{
.appVersion = "1342";
DisplayStrings = (
"@",
"~",
"/approxequal",
M
);
classes = (
{
automatic = 1;
code = "A Aacute Abreve Abreveacute Abrevegrave Abrevetilde Acaron Acircumflex Acircumflexacute Acircumflexgrave Acircumflextilde Adieresis Agrave Amacron Aring Atilde AE B C Cacute Ccaron Cdotaccent D Eth Dcaron E Eacute Ecaron Ecircumflex Ecircumflexacute Ecircumflexgrave Ecircumflextilde Edieresis Edotaccent Egrave Emacron Etilde F G Gbreve Gdotaccent H Hbar I Iacute Icaron Icircumflex Idieresis Idotaccent Igrave Imacron Itilde J K L Lacute Lcaron Lslash M N Nacute Ncaron Ntilde O Oacute Ocaron Ocircumflex Ocircumflexacute Ocircumflexgrave Ocircumflextilde Odieresis Odieresismacron Ograve Ohungarumlaut Omacron Omacronacute Omacrongrave Oslash Oslashacute Otilde Otildeacute OE P Q R Racute Rcaron S Sacute Scaron Germandbls T Tcaron U Uacute Ucaron Ucircumflex Udieresis Udieresisacute Udieresiscaron Udieresisgrave Udieresismacron Ugrave Uhungarumlaut Umacron Uring Utilde V W Wacute Wcircumflex Wdieresis Wgrave X Y Yacute Ycircumflex Ydieresis Ygrave Ytilde Z Zacute Zcaron Zdotaccent A.salt M.salt";
name = Uppercase;
}
);
copyright = "© 2020 Felix Summ | All Rights Reserved";
date = "2020-06-23 16:23:12 +0000";
designer = "Felix Summ";
designerURL = fireproofpuppydogs.com;
familyName = "FPD Pressure";
featurePrefixes = (
{
automatic = 1;
code = "languagesystem DFLT dflt;\012\012languagesystem latn dflt;\012languagesystem latn AZE;\012languagesystem latn CRT;\012languagesystem latn KAZ;\012languagesystem latn TAT;\012languagesystem latn TRK;\012";
name = Languagesystems;
}
);
features = (
{
automatic = 1;
code = "feature salt;\012feature lnum;\012feature onum;\012feature case;\012feature locl;\012feature zero;\012";
name = aalt;
},
{
code = "sub A by A.salt;\012sub M by M.salt;\012";
name = salt;
},
{
automatic = 1;

glyphs = (
{
glyphname = A;
lastChange = "2020-07-08 22:10:24 +0000";
layers = (
{
anchors = (
{
name = top;
position = "{340, 600}";
}
);
layerId = "5472B35A-B7AE-4E4F-A6B1-630A6CFD37FC";
paths = (
{
closed = 1;
nodes = (
"160 243 LINE",
"160 153 LINE",
"520 153 LINE",
"520 243 LINE"
);
},
{
closed = 1;
nodes = (
"140 25 LINE SMOOTH",
"140 61 OFFCURVE",
"146 81 OFFCURVE",
"176 145 CURVE SMOOTH",
"346 502 LINE SMOOTH",
"355 521 OFFCURVE",
"354 510 OFFCURVE",
"340 510 CURVE SMOOTH",
"326 510 OFFCURVE",
"325 521 OFFCURVE",
"334 503 CURVE SMOOTH",
"504 145 LINE SMOOTH",
"538 74 OFFCURVE",
"540 65 OFFCURVE",
"540 25 CURVE SMOOTH",
"540 0 LINE",
"640 0 LINE",
"640 25 LINE SMOOTH",
"640 78 OFFCURVE",
"633 103 OFFCURVE",
"594 183 CURVE SMOOTH",
"424 541 LINE SMOOTH",
"408 576 OFFCURVE",
"376 600 OFFCURVE",
"340 600 CURVE SMOOTH",
"304 600 OFFCURVE",
"274 577 OFFCURVE",
"256 542 CURVE SMOOTH",
"86 183 LINE SMOOTH",
"50 108 OFFCURVE",
"40 73 OFFCURVE",
"40 25 CURVE SMOOTH",
"40 0 LINE",
"140 0 LINE"
);
}
);
width = 680;
},
{
anchors = (
{
name = top;
position = "{340, 600}";
}
);
layerId = "A262DCEF-80AC-4544-820F-6C74D2F82537";
paths = (
{
closed = 1;
nodes = (
"160 228 LINE",
"160 198 LINE",
"520 198 LINE",
"520 228 LINE"
);
},
{
closed = 1;
nodes = (
"110 25 LINE SMOOTH",
"110 61 OFFCURVE",
"117 86 OFFCURVE",
"149 158 CURVE SMOOTH",
"319 546 LINE SMOOTH",
"326 562 OFFCURVE",
"335 570 OFFCURVE",
"340 570 CURVE SMOOTH",
"345 570 OFFCURVE",
"354 562 OFFCURVE",
"361 546 CURVE SMOOTH",
"531 158 LINE SMOOTH",
"566 77 OFFCURVE",
"570 64 OFFCURVE",
"570 25 CURVE SMOOTH",
"570 0 LINE",
"610 0 LINE",
"610 25 LINE SMOOTH",
"610 68 OFFCURVE",
"605 83 OFFCURVE",
"567 170 CURVE SMOOTH",
"397 558 LINE SMOOTH",
"386 583 OFFCURVE",
"364 600 OFFCURVE",
"340 600 CURVE SMOOTH",
"316 600 OFFCURVE",
"294 583 OFFCURVE",
"283 558 CURVE SMOOTH",
"113 170 LINE SMOOTH",
"78 92 OFFCURVE",
"70 66 OFFCURVE",
"70 25 CURVE SMOOTH",
"70 0 LINE",
"110 0 LINE"
);
}
);
width = 680;
},
{
anchors = (
{
name = top;
position = "{340, 600}";
}
);
layerId = "A8E52AE2-2A6A-4CD2-B761-065329444C15";
paths = (
{
closed = 1;
nodes = (
"160 251 LINE",
"160 131 LINE",
"520 131 LINE",
"520 251 LINE"
);
},
{
closed = 1;
nodes = (
"160 25 LINE SMOOTH",
"160 62 OFFCURVE",
"165 81 OFFCURVE",
"194 137 CURVE SMOOTH",
"364 480 LINE SMOOTH",
"370 494 OFFCURVE",
"354 480 OFFCURVE",
"340 480 CURVE SMOOTH",
"326 480 OFFCURVE",
"310 494 OFFCURVE",
"316 480 CURVE SMOOTH",
"486 137 LINE SMOOTH",
"518 74 OFFCURVE",
"520 66 OFFCURVE",
"520 25 CURVE SMOOTH",
"520 0 LINE",
"660 0 LINE",
"660 25 LINE SMOOTH",
"660 85 OFFCURVE",
"652 109 OFFCURVE",
"612 191 CURVE SMOOTH",
"442 534 LINE SMOOTH",
"422 574 OFFCURVE",
"383 600 OFFCURVE",
"340 600 CURVE SMOOTH",
"297 600 OFFCURVE",
"258 574 OFFCURVE",
"238 534 CURVE SMOOTH",
"68 191 LINE SMOOTH",
"31 116 OFFCURVE",
"20 79 OFFCURVE",
"20 25 CURVE SMOOTH",
"20 0 LINE",
"160 0 LINE"
);
}
);
width = 680;
}
);
leftKerningGroup = A;
rightKerningGroup = A;
unicode = 0041;
},
{
glyphname = AE;
lastChange = "2020-07-12 15:14:50 +0000";
layers = (
{
layerId = "A262DCEF-80AC-4544-820F-6C74D2F82537";
paths = (
{
closed = 1;
nodes = (
"669 30 LINE SMOOTH",
"617 30 OFFCURVE",
"589 60 OFFCURVE",
"589 115 CURVE SMOOTH",
"589 570 LINE",
"940 570 LINE",
"940 600 LINE",
"549 600 LINE",
"549 589 LINE",
"549 115 LINE SMOOTH",
"549 44 OFFCURVE",
"595 0 OFFCURVE",
"669 0 CURVE SMOOTH",
"940 0 LINE",
"940 30 LINE"
);
},
{
closed = 1;
nodes = (
"569 315 LINE",
"569 285 LINE",
"890 285 LINE",
"890 315 LINE"
);
},
{
closed = 1;
nodes = (
"199 246 LINE",
"199 216 LINE",
"563 216 LINE",
"563 246 LINE"
);
},
{
closed = 1;
nodes = (
"120 25 LINE SMOOTH",
"120 79 OFFCURVE",
"127 109 OFFCURVE",
"148 135 CURVE SMOOTH",
"477 543 LINE SMOOTH",
"490 560 OFFCURVE",
"505 570 OFFCURVE",
"512 570 CURVE SMOOTH",
"549 570 LINE",
"549 190 LINE",
"589 190 LINE",
"589 600 LINE",
"512 600 LINE SMOOTH",
"490 600 OFFCURVE",
"463 584 OFFCURVE",
"445 561 CURVE SMOOTH",
"116 153 LINE SMOOTH",
"89 120 OFFCURVE",
"80 85 OFFCURVE",
"80 25 CURVE SMOOTH",
"80 0 LINE",
"120 0 LINE"
);
}
);
width = 1020;
},
{
layerId = "5472B35A-B7AE-4E4F-A6B1-630A6CFD37FC";
paths = (
{
closed = 1;
nodes = (
"669 90 LINE SMOOTH",
"635 90 OFFCURVE",
"619 106 OFFCURVE",
"619 145 CURVE SMOOTH",
"619 510 LINE",
"985 510 LINE",
"985 600 LINE",
"529 600 LINE",
"519 582 LINE",
"519 145 LINE SMOOTH",
"519 57 OFFCURVE",
"579 0 OFFCURVE",
"669 0 CURVE SMOOTH",
"985 0 LINE",
"985 90 LINE"
);
},
{
closed = 1;
nodes = (
"569 345 LINE",
"569 255 LINE",
"935 255 LINE",
"935 345 LINE"
);
},
{
closed = 1;
nodes = (
"184 266 LINE",
"184 176 LINE",
"556 176 LINE",
"556 266 LINE"
);
},
{
closed = 1;
nodes = (
"150 25 LINE SMOOTH",
"150 77 OFFCURVE",
"156 97 OFFCURVE",
"170 114 CURVE SMOOTH",
"499 493 LINE SMOOTH",
"504 499 OFFCURVE",
"514 510 OFFCURVE",
"518 510 CURVE SMOOTH",
"519 510 LINE",
"519 190 LINE",
"619 190 LINE",
"619 600 LINE",
"522 600 LINE SMOOTH",
"470 600 OFFCURVE",
"448 580 OFFCURVE",
"423 551 CURVE SMOOTH",
"94 174 LINE SMOOTH",
"61 136 OFFCURVE",
"50 98 OFFCURVE",
"50 25 CURVE SMOOTH",
"50 0 LINE",
"150 0 LINE"
);
}
);
width = 1035;
},
{
layerId = "A8E52AE2-2A6A-4CD2-B761-065329444C15";
paths = (
{
closed = 1;
nodes = (
"669 120 LINE SMOOTH",
"647 120 OFFCURVE",
"639 127 OFFCURVE",
"639 160 CURVE SMOOTH",
"639 480 LINE",
"1000 480 LINE",
"1000 600 LINE",
"519 600 LINE",
"499 582 LINE",
"499 160 LINE SMOOTH",
"499 63 OFFCURVE",
"568 0 OFFCURVE",
"669 0 CURVE SMOOTH",
"1000 0 LINE",
"1000 120 LINE"
);
},
{
closed = 1;
nodes = (
"569 360 LINE",
"569 240 LINE",
"950 240 LINE",
"950 360 LINE"
);
},
{
closed = 1;
nodes = (
"189 251 LINE",
"189 131 LINE",
"549 131 LINE",
"549 251 LINE"
);
},
{
closed = 1;
nodes = (
"170 25 LINE SMOOTH",
"170 73 OFFCURVE",
"174 93 OFFCURVE",
"184 104 CURVE SMOOTH",
"515 468 LINE SMOOTH",
"523 477 OFFCURVE",
"538 480 OFFCURVE",
"557 480 CURVE SMOOTH",
"595 480 LINE",
"499 190 LINE",
"639 190 LINE",
"639 600 LINE",
"512 600 LINE SMOOTH",
"474 600 OFFCURVE",
"441 579 OFFCURVE",
"410 548 CURVE SMOOTH",
"80 184 LINE SMOOTH",
"40 139 OFFCURVE",
"30 98 OFFCURVE",
"30 25 CURVE SMOOTH",
"30 0 LINE",
"170 0 LINE"
);
}
);
width = 1035;
}
);
unicode = 00C6;
},
{
glyphname = B;
lastChange = "2020-07-08 22:10:42 +0000";
layers = (
{
anchors = (
{
name = top;
position = "{310, 600}";
}
);
layerId = "5472B35A-B7AE-4E4F-A6B1-630A6CFD37FC";
paths = (
{
closed = 1;
nodes = (
"150 510 LINE",
"415 510 LINE SMOOTH",
"449 510 OFFCURVE",
"465 494 OFFCURVE",
"465 455 CURVE SMOOTH",
"465 405 LINE SMOOTH",
"465 366 OFFCURVE",
"449 350 OFFCURVE",
"415 350 CURVE SMOOTH",
"150 350 LINE"
);
},
{
closed = 1;
nodes = (
"415 260 LINE SMOOTH",
"505 260 OFFCURVE",
"565 317 OFFCURVE",
"565 405 CURVE SMOOTH",
"565 455 LINE SMOOTH",
"565 543 OFFCURVE",
"505 600 OFFCURVE",
"415 600 CURVE SMOOTH",
"50 600 LINE",
"50 260 LINE"
);
},
{
closed = 1;
nodes = (
"440 260 LINE SMOOTH",
"462 260 OFFCURVE",
"490 230 OFFCURVE",
"490 205 CURVE SMOOTH",
"490 145 LINE SMOOTH",
"490 106 OFFCURVE",
"474 90 OFFCURVE",
"440 90 CURVE SMOOTH",
"150 90 LINE",
"150 305 LINE",
"50 305 LINE",
"50 0 LINE",
"440 0 LINE SMOOTH",
"530 0 OFFCURVE",
"590 57 OFFCURVE",
"590 145 CURVE SMOOTH",
"590 205 LINE SMOOTH",
"590 280 OFFCURVE",
"517 350 OFFCURVE",
"440 350 CURVE SMOOTH",
"366 350 LINE",
"366 260 LINE"
);
}
);
width = 640;
},
{
anchors = (
{
name = top;
position = "{310, 600}";
}
);
layerId = "A262DCEF-80AC-4544-820F-6C74D2F82537";
paths = (
{
closed = 1;
nodes = (
"120 570 LINE",
"415 570 LINE SMOOTH",
"467 570 OFFCURVE",
"495 540 OFFCURVE",
"495 485 CURVE SMOOTH",
"495 405 LINE SMOOTH",
"495 350 OFFCURVE",
"467 320 OFFCURVE",
"415 320 CURVE SMOOTH",
"120 320 LINE"
);
},
{
closed = 1;
nodes = (
"415 290 LINE SMOOTH",
"489 290 OFFCURVE",
"535 334 OFFCURVE",
"535 405 CURVE SMOOTH",
"535 485 LINE SMOOTH",
"535 556 OFFCURVE",
"489 600 OFFCURVE",
"415 600 CURVE SMOOTH",
"80 600 LINE",
"80 290 LINE"
);
},
{
closed = 1;
nodes = (
"440 290 LINE SMOOTH",
"479 290 OFFCURVE",
"520 247 OFFCURVE",
"520 205 CURVE SMOOTH",
"520 115 LINE SMOOTH",
"520 60 OFFCURVE",
"492 30 OFFCURVE",
"440 30 CURVE SMOOTH",
"120 30 LINE",
"120 305 LINE",
"80 305 LINE",
"80 0 LINE",
"440 0 LINE SMOOTH",
"514 0 OFFCURVE",
"560 44 OFFCURVE",
"560 115 CURVE SMOOTH",
"560 205 LINE SMOOTH",
"560 263 OFFCURVE",
"501 320 OFFCURVE",
"440 320 CURVE SMOOTH",
"366 320 LINE",
"366 290 LINE"
);
}
);
width = 640;
},
{
anchors = (
{
name = top;
position = "{310, 600}";
}
);
layerId = "A8E52AE2-2A6A-4CD2-B761-065329444C15";
paths = (
{
closed = 1;
nodes = (
"170 480 LINE",
"415 480 LINE SMOOTH",
"437 480 OFFCURVE",
"445 473 OFFCURVE",
"445 440 CURVE SMOOTH",
"445 405 LINE SMOOTH",
"445 372 OFFCURVE",
"437 365 OFFCURVE",
"415 365 CURVE SMOOTH",
"170 365 LINE"
);
},
{
closed = 1;
nodes = (
"415 245 LINE SMOOTH",
"516 245 OFFCURVE",
"585 308 OFFCURVE",
"585 405 CURVE SMOOTH",
"585 440 LINE SMOOTH",
"585 537 OFFCURVE",
"516 600 OFFCURVE",
"415 600 CURVE SMOOTH",
"30 600 LINE",
"30 245 LINE"
);
},
{
closed = 1;
nodes = (
"440 245 LINE SMOOTH",
"450 245 OFFCURVE",
"470 223 OFFCURVE",
"470 205 CURVE SMOOTH",
"470 160 LINE SMOOTH",
"470 127 OFFCURVE",
"462 120 OFFCURVE",
"440 120 CURVE SMOOTH",
"170 120 LINE",
"170 305 LINE",
"30 305 LINE",
"30 0 LINE",
"440 0 LINE SMOOTH",
"541 0 OFFCURVE",
"610 63 OFFCURVE",
"610 160 CURVE SMOOTH",
"610 205 LINE SMOOTH",
"610 289 OFFCURVE",
"528 365 OFFCURVE",
"440 365 CURVE SMOOTH",
"366 365 LINE",
"366 245 LINE"
);
}
);
width = 640;
}
);
unicode = 0042;
},
{
glyphname = C;
lastChange = "2020-07-08 22:10:48 +0000";
layers = (
{
anchors = (
{
name = top;
position = "{340, 600}";
}
);
layerId = "5472B35A-B7AE-4E4F-A6B1-630A6CFD37FC";
paths = (
{
closed = 1;
nodes = (
"620 455 LINE SMOOTH",
"620 543 OFFCURVE",
"560 600 OFFCURVE",
"470 600 CURVE SMOOTH",
"200 600 LINE SMOOTH",
"110 600 OFFCURVE",
"50 543 OFFCURVE",
"50 455 CURVE SMOOTH",
"50 145 LINE SMOOTH",
"50 57 OFFCURVE",
"110 0 OFFCURVE",
"200 0 CURVE SMOOTH",
"470 0 LINE SMOOTH",
"560 0 OFFCURVE",
"620 57 OFFCURVE",
"620 145 CURVE SMOOTH",
"620 170 LINE",
"520 170 LINE",
"520 145 LINE SMOOTH",
"520 106 OFFCURVE",
"504 90 OFFCURVE",
"470 90 CURVE SMOOTH",
"200 90 LINE SMOOTH",
"166 90 OFFCURVE",
"150 106 OFFCURVE",
"150 145 CURVE SMOOTH",
"150 455 LINE SMOOTH",
"150 494 OFFCURVE",
"166 510 OFFCURVE",
"200 510 CURVE SMOOTH",
"470 510 LINE SMOOTH",
"504 510 OFFCURVE",
"520 494 OFFCURVE",
"520 455 CURVE SMOOTH",
"520 430 LINE",
"620 430 LINE"
);
}
);
width = 670;
},
{
anchors = (
{
name = top;
position = "{340, 600}";
}
);
layerId = "A262DCEF-80AC-4544-820F-6C74D2F82537";
paths = (
{
closed = 1;
nodes = (
"590 485 LINE SMOOTH",
"590 556 OFFCURVE",
"544 600 OFFCURVE",
"470 600 CURVE SMOOTH",
"200 600 LINE SMOOTH",
"126 600 OFFCURVE",
"80 556 OFFCURVE",
"80 485 CURVE SMOOTH",
"80 115 LINE SMOOTH",
"80 44 OFFCURVE",
"126 0 OFFCURVE",
"200 0 CURVE SMOOTH",
"470 0 LINE SMOOTH",
"544 0 OFFCURVE",
"590 44 OFFCURVE",
"590 115 CURVE SMOOTH",
"590 140 LINE",
"550 140 LINE",
"550 115 LINE SMOOTH",
"550 60 OFFCURVE",
"522 30 OFFCURVE",
"470 30 CURVE SMOOTH",
"200 30 LINE SMOOTH",
"148 30 OFFCURVE",
"120 60 OFFCURVE",
"120 115 CURVE SMOOTH",
"120 485 LINE SMOOTH",
"120 540 OFFCURVE",
"148 570 OFFCURVE",
"200 570 CURVE SMOOTH",
"470 570 LINE SMOOTH",
"522 570 OFFCURVE",
"550 540 OFFCURVE",
"550 485 CURVE SMOOTH",
"550 460 LINE",
"590 460 LINE"
);
}
);
width = 670;
},
{
anchors = (
{
name = top;
position = "{340, 600}";
}
);
layerId = "A8E52AE2-2A6A-4CD2-B761-065329444C15";
paths = (
{
closed = 1;
nodes = (
"640 440 LINE SMOOTH",
"640 537 OFFCURVE",
"571 600 OFFCURVE",
"470 600 CURVE SMOOTH",
"200 600 LINE SMOOTH",
"99 600 OFFCURVE",
"30 537 OFFCURVE",
"30 440 CURVE SMOOTH",
"30 160 LINE SMOOTH",
"30 63 OFFCURVE",
"99 0 OFFCURVE",
"200 0 CURVE SMOOTH",
"470 0 LINE SMOOTH",
"571 0 OFFCURVE",
"640 63 OFFCURVE",
"640 160 CURVE SMOOTH",
"640 185 LINE",
"500 185 LINE",
"500 160 LINE SMOOTH",
"500 127 OFFCURVE",
"492 120 OFFCURVE",
"470 120 CURVE SMOOTH",
"200 120 LINE SMOOTH",
"178 120 OFFCURVE",
"170 127 OFFCURVE",
"170 160 CURVE SMOOTH",
"170 440 LINE SMOOTH",
"170 473 OFFCURVE",
"178 480 OFFCURVE",
"200 480 CURVE SMOOTH",
"470 480 LINE SMOOTH",
"492 480 OFFCURVE",
"500 473 OFFCURVE",
"500 440 CURVE SMOOTH",
"500 415 LINE",
"640 415 LINE"
);
}
);
width = 670;
}
);
unicode = 0043;
},
{
glyphname = D;
lastChange = "2020-07-12 20:26:51 +0000";
layers = (
{
anchors = (
{
name = top;
position = "{340, 600}";
}
);
layerId = "5472B35A-B7AE-4E4F-A6B1-630A6CFD37FC";
paths = (
{
closed = 1;
nodes = (
"530 145 LINE SMOOTH",
"530 106 OFFCURVE",
"514 90 OFFCURVE",
"480 90 CURVE SMOOTH",
"150 90 LINE",
"150 510 LINE",
"480 510 LINE SMOOTH",
"514 510 OFFCURVE",
"530 494 OFFCURVE",
"530 455 CURVE SMOOTH"
);
},
{
closed = 1;
nodes = (
"630 543 OFFCURVE",
"570 600 OFFCURVE",
"480 600 CURVE SMOOTH",
"50 600 LINE",
"50 0 LINE",
"480 0 LINE SMOOTH",
"570 0 OFFCURVE",
"630 57 OFFCURVE",
"630 145 CURVE SMOOTH",
"630 455 LINE SMOOTH"
);
}
);
width = 680;
},
{
anchors = (
{
name = top;
position = "{340, 600}";
}
);
layerId = "A262DCEF-80AC-4544-820F-6C74D2F82537";
paths = (
{
closed = 1;
nodes = (
"560 115 LINE SMOOTH",
"560 60 OFFCURVE",
"532 30 OFFCURVE",
"480 30 CURVE SMOOTH",
"120 30 LINE",
"120 570 LINE",
"480 570 LINE SMOOTH",
"532 570 OFFCURVE",
"560 540 OFFCURVE",
"560 485 CURVE SMOOTH"
);
},
{
closed = 1;
nodes = (
"600 556 OFFCURVE",
"554 600 OFFCURVE",
"480 600 CURVE SMOOTH",
"80 600 LINE",
"80 0 LINE",
"480 0 LINE SMOOTH",
"554 0 OFFCURVE",
"600 44 OFFCURVE",
"600 115 CURVE SMOOTH",
"600 485 LINE SMOOTH"
);
}
);
width = 680;
},
{
anchors = (
{
name = top;
position = "{340, 600}";
}
);
layerId = "A8E52AE2-2A6A-4CD2-B761-065329444C15";
paths = (
{
closed = 1;
nodes = (
"510 160 LINE SMOOTH",
"510 127 OFFCURVE",
"502 120 OFFCURVE",
"480 120 CURVE SMOOTH",
"170 120 LINE",
"170 480 LINE",
"480 480 LINE SMOOTH",
"502 480 OFFCURVE",
"510 473 OFFCURVE",
"510 440 CURVE SMOOTH"
);
},
{
closed = 1;
nodes = (
"650 537 OFFCURVE",
"581 600 OFFCURVE",
"480 600 CURVE SMOOTH",
"30 600 LINE",
"30 0 LINE",
"480 0 LINE SMOOTH",
"581 0 OFFCURVE",
"650 63 OFFCURVE",
"650 160 CURVE SMOOTH",
"650 440 LINE SMOOTH"
);
}
);
width = 680;
}
);
unicode = 0044;
},
{
glyphname = E;
lastChange = "2020-07-15 17:29:51 +0000";
layers = (
{
anchors = (
{
name = top;
position = "{340, 600}";
}
);
layerId = "5472B35A-B7AE-4E4F-A6B1-630A6CFD37FC";
paths = (
{
closed = 1;
nodes = (
"200 90 LINE SMOOTH",
"166 90 OFFCURVE",
"150 106 OFFCURVE",
"150 145 CURVE SMOOTH",
"150 455 LINE SMOOTH",
"150 494 OFFCURVE",
"166 510 OFFCURVE",
"200 510 CURVE SMOOTH",
"580 510 LINE",
"580 600 LINE",
"200 600 LINE SMOOTH",
"110 600 OFFCURVE",
"50 543 OFFCURVE",
"50 455 CURVE SMOOTH",
"50 145 LINE SMOOTH",
"50 57 OFFCURVE",
"110 0 OFFCURVE",
"200 0 CURVE SMOOTH",
"580 0 LINE",
"580 90 LINE"
);
},
{
closed = 1;
nodes = (
"100 345 LINE",
"100 255 LINE",
"530 255 LINE",
"530 345 LINE"
);
}
);
width = 630;
},
{
anchors = (
{
name = top;
position = "{340, 600}";
}
);
layerId = "A262DCEF-80AC-4544-820F-6C74D2F82537";
paths = (
{
closed = 1;
nodes = (
"200 30 LINE SMOOTH",
"148 30 OFFCURVE",
"120 60 OFFCURVE",
"120 115 CURVE SMOOTH",
"120 485 LINE SMOOTH",
"120 540 OFFCURVE",
"148 570 OFFCURVE",
"200 570 CURVE SMOOTH",
"550 570 LINE",
"550 600 LINE",
"200 600 LINE SMOOTH",
"126 600 OFFCURVE",
"80 556 OFFCURVE",
"80 485 CURVE SMOOTH",
"80 115 LINE SMOOTH",
"80 44 OFFCURVE",
"126 0 OFFCURVE",
"200 0 CURVE SMOOTH",
"550 0 LINE",
"550 30 LINE"
);
},
{
closed = 1;
nodes = (
"100 315 LINE",
"100 285 LINE",
"500 285 LINE",
"500 315 LINE"
);
}
);
width = 630;
},
{
anchors = (
{
name = top;
position = "{340, 600}";
}
);
layerId = "A8E52AE2-2A6A-4CD2-B761-065329444C15";
paths = (
{
closed = 1;
nodes = (
"200 120 LINE SMOOTH",
"178 120 OFFCURVE",
"170 127 OFFCURVE",
"170 160 CURVE SMOOTH",
"170 440 LINE SMOOTH",
"170 473 OFFCURVE",
"178 480 OFFCURVE",
"200 480 CURVE SMOOTH",
"595 480 LINE",
"595 600 LINE",
"200 600 LINE SMOOTH",
"99 600 OFFCURVE",
"30 537 OFFCURVE",
"30 440 CURVE SMOOTH",
"30 160 LINE SMOOTH",
"30 63 OFFCURVE",
"99 0 OFFCURVE",
"200 0 CURVE SMOOTH",
"595 0 LINE",
"595 120 LINE"
);
},
{
closed = 1;
nodes = (
"100 360 LINE",
"100 240 LINE",
"545 240 LINE",
"545 360 LINE"
);
}
);
width = 625;
}
);
unicode = 0045;
},
{
glyphname = F;
lastChange = "2020-07-08 22:10:24 +0000";
layers = (
{
layerId = "5472B35A-B7AE-4E4F-A6B1-630A6CFD37FC";
paths = (
{
closed = 1;
nodes = (
"200 600 LINE SMOOTH",
"110 600 OFFCURVE",
"50 543 OFFCURVE",
"50 455 CURVE SMOOTH",
"50 0 LINE",
"150 0 LINE",
"150 455 LINE SMOOTH",
"150 494 OFFCURVE",
"166 510 OFFCURVE",
"200 510 CURVE SMOOTH",
"570 510 LINE",
"570 600 LINE"
);
},
{
closed = 1;
nodes = (
"100 295 LINE",
"100 205 LINE",
"520 205 LINE",
"520 295 LINE"
);
}
);
width = 620;
},
{
layerId = "A262DCEF-80AC-4544-820F-6C74D2F82537";
paths = (
{
closed = 1;
nodes = (
"200 600 LINE SMOOTH",
"126 600 OFFCURVE",
"80 556 OFFCURVE",
"80 485 CURVE SMOOTH",
"80 0 LINE",
"120 0 LINE",
"120 485 LINE SMOOTH",
"120 540 OFFCURVE",
"148 570 OFFCURVE",
"200 570 CURVE SMOOTH",
"540 570 LINE",
"540 600 LINE"
);
},
{
closed = 1;
nodes = (
"100 290 LINE",
"100 260 LINE",
"490 260 LINE",
"490 290 LINE"
);
}
);
width = 620;
},
{
layerId = "A8E52AE2-2A6A-4CD2-B761-065329444C15";
paths = (
{
closed = 1;
nodes = (
"200 600 LINE SMOOTH",
"99 600 OFFCURVE",
"30 537 OFFCURVE",
"30 440 CURVE SMOOTH",
"30 0 LINE",
"170 0 LINE",
"170 440 LINE SMOOTH",
"170 473 OFFCURVE",
"178 480 OFFCURVE",
"200 480 CURVE SMOOTH",
"585 480 LINE",
"585 600 LINE"
);
},
{
closed = 1;
nodes = (
"100 298 LINE",
"100 178 LINE",
"535 178 LINE",
"535 298 LINE"
);
}
);
width = 620;
}
);
unicode = 0046;
},
{
glyphname = G;
lastChange = "2020-07-12 02:53:25 +0000";
layers = (
{
anchors = (
{
name = top;
position = "{340, 600}";
}
);
layerId = "5472B35A-B7AE-4E4F-A6B1-630A6CFD37FC";
paths = (
{
closed = 1;
nodes = (
"550 230 LINE",
"550 145 LINE SMOOTH",
"550 106 OFFCURVE",
"534 90 OFFCURVE",
"500 90 CURVE SMOOTH",
"200 90 LINE SMOOTH",
"166 90 OFFCURVE",
"150 106 OFFCURVE",
"150 145 CURVE SMOOTH",
"150 455 LINE SMOOTH",
"150 494 OFFCURVE",
"166 510 OFFCURVE",
"200 510 CURVE SMOOTH",
"500 510 LINE SMOOTH",
"534 510 OFFCURVE",
"550 494 OFFCURVE",
"550 455 CURVE SMOOTH",
"550 430 LINE",
"650 430 LINE",
"650 455 LINE SMOOTH",
"650 543 OFFCURVE",
"590 600 OFFCURVE",
"500 600 CURVE SMOOTH",
"200 600 LINE SMOOTH",
"110 600 OFFCURVE",
"50 543 OFFCURVE",
"50 455 CURVE SMOOTH",
"50 145 LINE SMOOTH",
"50 57 OFFCURVE",
"110 0 OFFCURVE",
"200 0 CURVE SMOOTH",
"500 0 LINE SMOOTH",
"590 0 OFFCURVE",
"650 57 OFFCURVE",
"650 145 CURVE SMOOTH",
"650 320 LINE",
"375 320 LINE",
"375 230 LINE"
);
}
);
width = 700;
},
{
anchors = (
{
name = top;
position = "{340, 600}";
}
);
layerId = "A262DCEF-80AC-4544-820F-6C74D2F82537";
paths = (
{
closed = 1;
nodes = (
"580 260 LINE",
"580 115 LINE SMOOTH",
"580 60 OFFCURVE",
"552 30 OFFCURVE",
"500 30 CURVE SMOOTH",
"200 30 LINE SMOOTH",
"148 30 OFFCURVE",
"120 60 OFFCURVE",
"120 115 CURVE SMOOTH",
"120 485 LINE SMOOTH",
"120 540 OFFCURVE",
"148 570 OFFCURVE",
"200 570 CURVE SMOOTH",
"500 570 LINE SMOOTH",
"552 570 OFFCURVE",
"580 540 OFFCURVE",
"580 485 CURVE SMOOTH",
"580 460 LINE",
"620 460 LINE",
"620 485 LINE SMOOTH",
"620 556 OFFCURVE",
"574 600 OFFCURVE",
"500 600 CURVE SMOOTH",
"200 600 LINE SMOOTH",
"126 600 OFFCURVE",
"80 556 OFFCURVE",
"80 485 CURVE SMOOTH",
"80 115 LINE SMOOTH",
"80 44 OFFCURVE",
"126 0 OFFCURVE",
"200 0 CURVE SMOOTH",
"500 0 LINE SMOOTH",
"574 0 OFFCURVE",
"620 44 OFFCURVE",
"620 115 CURVE SMOOTH",
"620 290 LINE",
"375 290 LINE",
"375 260 LINE"
);
}
);
width = 700;
},
{
anchors = (
{
name = top;
position = "{340, 600}";
}
);
layerId = "A8E52AE2-2A6A-4CD2-B761-065329444C15";
paths = (
{
closed = 1;
nodes = (
"530 215 LINE",
"530 160 LINE SMOOTH",
"530 127 OFFCURVE",
"522 120 OFFCURVE",
"500 120 CURVE SMOOTH",
"200 120 LINE SMOOTH",
"178 120 OFFCURVE",
"170 127 OFFCURVE",
"170 160 CURVE SMOOTH",
"170 440 LINE SMOOTH",
"170 473 OFFCURVE",
"178 480 OFFCURVE",
"200 480 CURVE SMOOTH",
"500 480 LINE SMOOTH",
"522 480 OFFCURVE",
"530 473 OFFCURVE",
"530 440 CURVE SMOOTH",
"530 415 LINE",
"670 415 LINE",
"670 440 LINE SMOOTH",
"670 537 OFFCURVE",
"601 600 OFFCURVE",
"500 600 CURVE SMOOTH",
"200 600 LINE SMOOTH",
"99 600 OFFCURVE",
"30 537 OFFCURVE",
"30 440 CURVE SMOOTH",
"30 160 LINE SMOOTH",
"30 63 OFFCURVE",
"99 0 OFFCURVE",
"200 0 CURVE SMOOTH",
"500 0 LINE SMOOTH",
"601 0 OFFCURVE",
"670 63 OFFCURVE",
"670 160 CURVE SMOOTH",
"670 335 LINE",
"375 335 LINE",
"375 215 LINE"
);
}
);
width = 700;
}
);
unicode = 0047;
},
{
glyphname = H;
lastChange = "2020-07-08 22:10:24 +0000";
layers = (
{
layerId = "5472B35A-B7AE-4E4F-A6B1-630A6CFD37FC";
paths = (
{
closed = 1;
nodes = (
"50 0 LINE",
"150 0 LINE",
"150 600 LINE",
"50 600 LINE"
);
},
{
closed = 1;
nodes = (
"100 345 LINE",
"100 255 LINE",
"600 255 LINE",
"600 345 LINE"
);
},
{
closed = 1;
nodes = (
"650 600 LINE",
"550 600 LINE",
"550 0 LINE",
"650 0 LINE"
);
}
);
width = 700;
},
{
layerId = "A262DCEF-80AC-4544-820F-6C74D2F82537";
paths = (
{
closed = 1;
nodes = (
"80 0 LINE",
"120 0 LINE",
"120 600 LINE",
"80 600 LINE"
);
},
{
closed = 1;
nodes = (
"100 315 LINE",
"100 285 LINE",
"600 285 LINE",
"600 315 LINE"
);
},
{
closed = 1;
nodes = (
"620 600 LINE",
"580 600 LINE",
"580 0 LINE",
"620 0 LINE"
);
}
);
width = 700;
},
{
layerId = "A8E52AE2-2A6A-4CD2-B761-065329444C15";
paths = (
{
closed = 1;
nodes = (
"30 0 LINE",
"170 0 LINE",
"170 600 LINE",
"30 600 LINE"
);
},
{
closed = 1;
nodes = (
"100 360 LINE",
"100 240 LINE",
"600 240 LINE",
"600 360 LINE"
);
},
{
closed = 1;
nodes = (
"670 600 LINE",
"530 600 LINE",
"530 0 LINE",
"670 0 LINE"
);
}
);
width = 700;
}
);
unicode = 0048;
},
{
glyphname = I;
lastChange = "2020-07-08 22:10:24 +0000";
layers = (
{
anchors = (
{
name = top;
position = "{120, 600}";
}
);
layerId = "5472B35A-B7AE-4E4F-A6B1-630A6CFD37FC";
paths = (
{
closed = 1;
nodes = (
"170 600 LINE",
"70 600 LINE",
"70 0 LINE",
"170 0 LINE"
);
}
);
width = 240;
},
{
anchors = (
{
name = top;
position = "{120, 600}";
}
);
layerId = "A262DCEF-80AC-4544-820F-6C74D2F82537";
paths = (
{
closed = 1;
nodes = (
"140 600 LINE",
"100 600 LINE",
"100 0 LINE",
"140 0 LINE"
);
}
);
width = 240;
},
{
anchors = (
{
name = top;
position = "{120, 600}";
}
);
layerId = "A8E52AE2-2A6A-4CD2-B761-065329444C15";
paths = (
{
closed = 1;
nodes = (
"190 600 LINE",
"50 600 LINE",
"50 0 LINE",
"190 0 LINE"
);
}
);
width = 240;
}
);
unicode = 0049;
},
{
glyphname = J;
lastChange = "2020-07-08 22:10:24 +0000";
layers = (
{
layerId = "5472B35A-B7AE-4E4F-A6B1-630A6CFD37FC";
paths = (
{
closed = 1;
nodes = (
"50 145 LINE SMOOTH",
"50 57 OFFCURVE",
"110 0 OFFCURVE",
"200 0 CURVE SMOOTH",
"470 0 LINE SMOOTH",
"560 0 OFFCURVE",
"620 57 OFFCURVE",
"620 145 CURVE SMOOTH",
"620 600 LINE",
"520 600 LINE",
"520 145 LINE SMOOTH",
"520 106 OFFCURVE",
"504 90 OFFCURVE",
"470 90 CURVE SMOOTH",
"200 90 LINE SMOOTH",
"166 90 OFFCURVE",
"150 106 OFFCURVE",
"150 145 CURVE SMOOTH",
"150 225 LINE",
"50 225 LINE"
);
}
);
width = 670;
},
{
layerId = "A262DCEF-80AC-4544-820F-6C74D2F82537";
paths = (
{
closed = 1;
nodes = (
"80 115 LINE SMOOTH",
"80 44 OFFCURVE",
"126 0 OFFCURVE",
"200 0 CURVE SMOOTH",
"470 0 LINE SMOOTH",
"544 0 OFFCURVE",
"590 44 OFFCURVE",
"590 115 CURVE SMOOTH",
"590 600 LINE",
"550 600 LINE",
"550 115 LINE SMOOTH",
"550 60 OFFCURVE",
"522 30 OFFCURVE",
"470 30 CURVE SMOOTH",
"200 30 LINE SMOOTH",
"148 30 OFFCURVE",
"120 60 OFFCURVE",
"120 115 CURVE SMOOTH",
"120 195 LINE",
"80 195 LINE"
);
}
);
width = 670;
},
{
layerId = "A8E52AE2-2A6A-4CD2-B761-065329444C15";
paths = (
{
closed = 1;
nodes = (
"30 160 LINE SMOOTH",
"30 63 OFFCURVE",
"99 0 OFFCURVE",
"200 0 CURVE SMOOTH",
"470 0 LINE SMOOTH",
"571 0 OFFCURVE",
"640 63 OFFCURVE",
"640 160 CURVE SMOOTH",
"640 600 LINE",
"500 600 LINE",
"500 160 LINE SMOOTH",
"500 127 OFFCURVE",
"492 120 OFFCURVE",
"470 120 CURVE SMOOTH",
"200 120 LINE SMOOTH",
"178 120 OFFCURVE",
"170 127 OFFCURVE",
"170 160 CURVE SMOOTH",
"170 240 LINE",
"30 240 LINE"
);
}
);
width = 670;
}
);
leftKerningGroup = lowArm;
unicode = 004A;
},
{
glyphname = K;
lastChange = "2020-07-09 00:41:13 +0000";
layers = (
{
layerId = "5472B35A-B7AE-4E4F-A6B1-630A6CFD37FC";
paths = (
{
closed = 1;
nodes = (
"50 0 LINE",
"150 0 LINE",
"150 600 LINE",
"50 600 LINE"
);
},
{
closed = 1;
nodes = (
"650 11 LINE SMOOTH",
"650 89 OFFCURVE",
"649 114 OFFCURVE",
"615 146 CURVE SMOOTH",
"383 375 LINE",
"313 311 LINE",
"538 90 LINE SMOOTH",
"549 79 OFFCURVE",
"550 75 OFFCURVE",
"550 11 CURVE SMOOTH",
"550 0 LINE",
"650 0 LINE"
);
},
{
closed = 1;
nodes = (
"530 539 LINE SMOOTH",
"530 531 OFFCURVE",
"526 526 OFFCURVE",
"507 514 CURVE SMOOTH",
"73 238 LINE",
"127 162 LINE",
"561 438 LINE SMOOTH",
"606 467 OFFCURVE",
"630 496 OFFCURVE",
"630 539 CURVE SMOOTH",
"630 600 LINE",
"530 600 LINE"
);
}
);
width = 700;
},
{
layerId = "A262DCEF-80AC-4544-820F-6C74D2F82537";
paths = (
{
closed = 1;
nodes = (
"80 0 LINE",
"120 0 LINE",
"120 600 LINE",
"80 600 LINE"
);
},
{
closed = 1;
nodes = (
"620 11 LINE SMOOTH",
"620 90 OFFCURVE",
"618 102 OFFCURVE",
"594 125 CURVE SMOOTH",
"362 354 LINE",
"334 332 LINE",
"566 103 LINE SMOOTH",
"578 92 OFFCURVE",
"580 83 OFFCURVE",
"580 11 CURVE SMOOTH",
"580 0 LINE",
"620 0 LINE"
);
},
{
closed = 1;
nodes = (
"560 539 LINE SMOOTH",
"560 519 OFFCURVE",
"549 505 OFFCURVE",
"523 489 CURVE SMOOTH",
"89 213 LINE",
"111 187 LINE",
"545 463 LINE SMOOTH",
"584 488 OFFCURVE",
"600 510 OFFCURVE",
"600 539 CURVE SMOOTH",
"600 600 LINE",
"560 600 LINE"
);
}
);
width = 700;
},
{
layerId = "A8E52AE2-2A6A-4CD2-B761-065329444C15";
paths = (
{
closed = 1;
nodes = (
"30 0 LINE",
"170 0 LINE",
"170 600 LINE",
"30 600 LINE"
);
},
{
closed = 1;
nodes = (
"670 11 LINE SMOOTH",
"670 92 OFFCURVE",
"669 118 OFFCURVE",
"628 157 CURVE SMOOTH",
"397 386 LINE",
"299 300 LINE",
"519 83 LINE SMOOTH",
"531 71 OFFCURVE",
"530 65 OFFCURVE",
"530 11 CURVE SMOOTH",
"530 0 LINE",
"670 0 LINE"
);
},
{
closed = 1;
nodes = (
"510 539 LINE SMOOTH",
"510 537 OFFCURVE",
"510 536 OFFCURVE",
"496 527 CURVE SMOOTH",
"62 251 LINE",
"138 149 LINE",
"572 425 LINE SMOOTH",
"621 456 OFFCURVE",
"650 490 OFFCURVE",
"650 539 CURVE SMOOTH",
"650 600 LINE",
"510 600 LINE"
);
}
);
width = 700;
}
);
unicode = 004B;
},
{
glyphname = L;
lastChange = "2020-07-12 20:27:51 +0000";
layers = (
{
anchors = (
{
name = top;
position = "{100, 600}";
}
);
layerId = "5472B35A-B7AE-4E4F-A6B1-630A6CFD37FC";
paths = (
{
closed = 1;
nodes = (
"50 145 LINE SMOOTH",
"50 57 OFFCURVE",
"110 0 OFFCURVE",
"200 0 CURVE SMOOTH",
"530 0 LINE",
"530 90 LINE",
"200 90 LINE SMOOTH",
"166 90 OFFCURVE",
"150 106 OFFCURVE",
"150 145 CURVE SMOOTH",
"150 600 LINE",
"50 600 LINE"
);
}
);
width = 580;
},
{
anchors = (
{
name = top;
position = "{100, 600}";
}
);
layerId = "A262DCEF-80AC-4544-820F-6C74D2F82537";
paths = (
{
closed = 1;
nodes = (
"80 115 LINE SMOOTH",
"80 44 OFFCURVE",
"126 0 OFFCURVE",
"200 0 CURVE SMOOTH",
"500 0 LINE",
"500 30 LINE",
"200 30 LINE SMOOTH",
"148 30 OFFCURVE",
"120 60 OFFCURVE",
"120 115 CURVE SMOOTH",
"120 600 LINE",
"80 600 LINE"
);
}
);
width = 580;
},
{
anchors = (
{
name = top;
position = "{100, 600}";
}
);
layerId = "A8E52AE2-2A6A-4CD2-B761-065329444C15";
paths = (
{
closed = 1;
nodes = (
"30 160 LINE SMOOTH",
"30 63 OFFCURVE",
"99 0 OFFCURVE",
"200 0 CURVE SMOOTH",
"545 0 LINE",
"545 120 LINE",
"200 120 LINE SMOOTH",
"178 120 OFFCURVE",
"170 127 OFFCURVE",
"170 160 CURVE SMOOTH",
"170 600 LINE",
"30 600 LINE"
);
}
);
width = 580;
}
);
rightKerningGroup = lowArm;
unicode = 004C;
},
{
glyphname = M;
lastChange = "2020-07-09 00:49:14 +0000";
layers = (
{
layerId = "5472B35A-B7AE-4E4F-A6B1-630A6CFD37FC";
paths = (
{
closed = 1;
nodes = (
"710 523 LINE SMOOTH",
"710 570 OFFCURVE",
"669 600 OFFCURVE",
"633 600 CURVE SMOOTH",
"605 600 OFFCURVE",
"582 590 OFFCURVE",
"566 569 CURVE SMOOTH",
"367 308 LINE SMOOTH",
"360 298 OFFCURVE",
"369 285 OFFCURVE",
"380 285 CURVE SMOOTH",
"390 285 OFFCURVE",
"401 297 OFFCURVE",
"394 306 CURVE SMOOTH",
"194 569 LINE SMOOTH",
"178 590 OFFCURVE",
"155 600 OFFCURVE",
"127 600 CURVE SMOOTH",
"91 600 OFFCURVE",
"50 570 OFFCURVE",
"50 523 CURVE SMOOTH",
"50 0 LINE",
"150 0 LINE",
"150 490 LINE SMOOTH",
"150 504 OFFCURVE",
"146 512 OFFCURVE",
"137 512 CURVE SMOOTH",
"127 512 OFFCURVE",
"127 497 OFFCURVE",
"137 484 CURVE SMOOTH",
"325 238 LINE SMOOTH",
"340 223 OFFCURVE",
"359 214 OFFCURVE",
"380 214 CURVE SMOOTH",
"401 214 OFFCURVE",
"420 223 OFFCURVE",
"435 238 CURVE SMOOTH",
"628 491 LINE SMOOTH",
"636 502 OFFCURVE",
"632 512 OFFCURVE",
"623 512 CURVE SMOOTH",
"613 512 OFFCURVE",
"610 505 OFFCURVE",
"610 487 CURVE SMOOTH",
"610 0 LINE",
"710 0 LINE"
);
}
);
width = 760;
},
{
layerId = "A262DCEF-80AC-4544-820F-6C74D2F82537";
paths = (
{
closed = 1;
nodes = (
"680 553 LINE SMOOTH",
"680 582 OFFCURVE",
"655 600 OFFCURVE",
"634 600 CURVE SMOOTH",
"615 600 OFFCURVE",
"600 594 OFFCURVE",
"590 581 CURVE SMOOTH",
"380 295 LINE SMOOTH",
"375 289 OFFCURVE",
"377 288 OFFCURVE",
"380 288 CURVE SMOOTH",
"384 288 OFFCURVE",
"384 290 OFFCURVE",
"380 295 CURVE SMOOTH",
"170 581 LINE SMOOTH",
"160 594 OFFCURVE",
"145 600 OFFCURVE",
"126 600 CURVE SMOOTH",
"105 600 OFFCURVE",
"80 582 OFFCURVE",
"80 553 CURVE SMOOTH",
"80 0 LINE",
"120 0 LINE",
"120 553 LINE SMOOTH",
"120 563 OFFCURVE",
"124 569 OFFCURVE",
"128 569 CURVE SMOOTH",
"131 569 OFFCURVE",
"135 567 OFFCURVE",
"138 563 CURVE SMOOTH",
"348 277 LINE SMOOTH",
"355 267 OFFCURVE",
"368 264 OFFCURVE",
"380 264 CURVE SMOOTH",
"393 264 OFFCURVE",
"405 268 OFFCURVE",
"412 277 CURVE SMOOTH",
"622 563 LINE SMOOTH",
"625 567 OFFCURVE",
"629 569 OFFCURVE",
"632 569 CURVE SMOOTH",
"636 569 OFFCURVE",
"640 563 OFFCURVE",
"640 553 CURVE SMOOTH",
"640 0 LINE",
"680 0 LINE"
);
}
);
width = 760;
},
{
layerId = "A8E52AE2-2A6A-4CD2-B761-065329444C15";
paths = (
{
closed = 1;
nodes = (
"730 508 LINE SMOOTH",
"730 565 OFFCURVE",
"678 600 OFFCURVE",
"627 600 CURVE SMOOTH",
"597 600 OFFCURVE",
"568 588 OFFCURVE",
"549 561 CURVE",
"364 322 LINE SMOOTH",
"348 301 OFFCURVE",
"365 289 OFFCURVE",
"380 289 CURVE SMOOTH",
"396 289 OFFCURVE",
"414 301 OFFCURVE",
"397 322 CURVE SMOOTH",
"211 561 LINE",
"192 588 OFFCURVE",
"163 600 OFFCURVE",
"133 600 CURVE SMOOTH",
"82 600 OFFCURVE",
"30 565 OFFCURVE",
"30 508 CURVE SMOOTH",
"30 0 LINE",
"170 0 LINE",
"170 425 LINE SMOOTH",
"170 443 OFFCURVE",
"173 468 OFFCURVE",
"152 468 CURVE SMOOTH",
"140 468 OFFCURVE",
"133 452 OFFCURVE",
"156 422 CURVE SMOOTH",
"309 219 LINE SMOOTH",
"324 199 OFFCURVE",
"353 189 OFFCURVE",
"380 189 CURVE SMOOTH",
"408 189 OFFCURVE",
"435 199 OFFCURVE",
"451 219 CURVE SMOOTH",
"614 427 LINE SMOOTH",
"626 443 OFFCURVE",
"623 458 OFFCURVE",
"611 458 CURVE SMOOTH",
"596 458 OFFCURVE",
"590 439 OFFCURVE",
"590 421 CURVE SMOOTH",
"590 0 LINE",
"730 0 LINE"
);
}
);
width = 760;
}
);
unicode = 004D;
},
{
glyphname = N;
lastChange = "2020-07-12 20:27:00 +0000";
layers = (
{
anchors = (
{
name = top;
position = "{340, 600}";
}
);
layerId = "5472B35A-B7AE-4E4F-A6B1-630A6CFD37FC";
paths = (
{
closed = 1;
nodes = (
"550 72 LINE SMOOTH",
"550 89 OFFCURVE",
"583 95 OFFCURVE",
"593 84 CURVE SMOOTH",
"185 574 LINE SMOOTH",
"142 627 OFFCURVE",
"50 597 OFFCURVE",
"50 528 CURVE SMOOTH",
"50 0 LINE",
"150 0 LINE",
"150 528 LINE SMOOTH",
"150 511 OFFCURVE",
"117 505 OFFCURVE",
"107 516 CURVE SMOOTH",
"515 26 LINE SMOOTH",
"558 -27 OFFCURVE",
"650 3 OFFCURVE",
"650 72 CURVE SMOOTH",
"650 600 LINE",
"550 600 LINE"
);
}
);
width = 700;
},
{
anchors = (
{
name = top;
position = "{340, 600}";
}
);
layerId = "A262DCEF-80AC-4544-820F-6C74D2F82537";
paths = (
{
closed = 1;
nodes = (
"580 49 LINE SMOOTH",
"580 25 OFFCURVE",
"582 26 OFFCURVE",
"570 41 CURVE SMOOTH",
"162 578 LINE SMOOTH",
"132 619 OFFCURVE",
"80 604 OFFCURVE",
"80 552 CURVE SMOOTH",
"80 0 LINE",
"120 0 LINE",
"120 552 LINE SMOOTH",
"120 576 OFFCURVE",
"118 575 OFFCURVE",
"130 560 CURVE SMOOTH",
"538 23 LINE SMOOTH",
"568 -18 OFFCURVE",
"620 -3 OFFCURVE",
"620 49 CURVE SMOOTH",
"620 600 LINE",
"580 600 LINE"
);
}
);
width = 700;
},
{
anchors = (
{
name = top;
position = "{340, 600}";
}
);
layerId = "A8E52AE2-2A6A-4CD2-B761-065329444C15";
paths = (
{
closed = 1;
nodes = (
"530 84 LINE SMOOTH",
"530 118 OFFCURVE",
"585 132 OFFCURVE",
"607 106 CURVE SMOOTH",
"202 568 LINE",
"154 633 OFFCURVE",
"30 596 OFFCURVE",
"30 516 CURVE SMOOTH",
"30 0 LINE",
"170 0 LINE",
"170 516 LINE SMOOTH",
"170 480 OFFCURVE",
"111 468 OFFCURVE",
"90 497 CURVE",
"501 28 LINE SMOOTH",
"552 -32 OFFCURVE",
"670 5 OFFCURVE",
"670 84 CURVE SMOOTH",
"670 600 LINE",
"530 600 LINE"
);
}
);
width = 700;
}
);
unicode = 004E;
},
{
glyphname = O;
lastChange = "2020-07-08 22:10:24 +0000";
layers = (
{
anchors = (
{
name = top;
position = "{350, 600}";
}
);
layerId = "5472B35A-B7AE-4E4F-A6B1-630A6CFD37FC";
paths = (
{
closed = 1;
nodes = (
"550 145 LINE SMOOTH",
"550 106 OFFCURVE",
"534 90 OFFCURVE",
"500 90 CURVE SMOOTH",
"200 90 LINE SMOOTH",
"166 90 OFFCURVE",
"150 106 OFFCURVE",
"150 145 CURVE SMOOTH",
"150 455 LINE SMOOTH",
"150 494 OFFCURVE",
"166 510 OFFCURVE",
"200 510 CURVE SMOOTH",
"500 510 LINE SMOOTH",
"534 510 OFFCURVE",
"550 494 OFFCURVE",
"550 455 CURVE SMOOTH"
);
},
{
closed = 1;
nodes = (
"650 543 OFFCURVE",
"590 600 OFFCURVE",
"500 600 CURVE SMOOTH",
"200 600 LINE SMOOTH",
"110 600 OFFCURVE",
"50 543 OFFCURVE",
"50 455 CURVE SMOOTH",
"50 145 LINE SMOOTH",
"50 57 OFFCURVE",
"110 0 OFFCURVE",
"200 0 CURVE SMOOTH",
"500 0 LINE SMOOTH",
"590 0 OFFCURVE",
"650 57 OFFCURVE",
"650 145 CURVE SMOOTH",
"650 455 LINE SMOOTH"
);
}
);
width = 700;
},
{
anchors = (
{
name = top;
position = "{350, 600}";
}
);
layerId = "A262DCEF-80AC-4544-820F-6C74D2F82537";
paths = (
{
closed = 1;
nodes = (
"580 115 LINE SMOOTH",
"580 60 OFFCURVE",
"552 30 OFFCURVE",
"500 30 CURVE SMOOTH",
"200 30 LINE SMOOTH",
"148 30 OFFCURVE",
"120 60 OFFCURVE",
"120 115 CURVE SMOOTH",
"120 485 LINE SMOOTH",
"120 540 OFFCURVE",
"148 570 OFFCURVE",
"200 570 CURVE SMOOTH",
"500 570 LINE SMOOTH",
"552 570 OFFCURVE",
"580 540 OFFCURVE",
"580 485 CURVE SMOOTH"
);
},
{
closed = 1;
nodes = (
"620 556 OFFCURVE",
"574 600 OFFCURVE",
"500 600 CURVE SMOOTH",
"200 600 LINE SMOOTH",
"126 600 OFFCURVE",
"80 556 OFFCURVE",
"80 485 CURVE SMOOTH",
"80 115 LINE SMOOTH",
"80 44 OFFCURVE",
"126 0 OFFCURVE",
"200 0 CURVE SMOOTH",
"500 0 LINE SMOOTH",
"574 0 OFFCURVE",
"620 44 OFFCURVE",
"620 115 CURVE SMOOTH",
"620 485 LINE SMOOTH"
);
}
);
width = 700;
},
{
anchors = (
{
name = top;
position = "{350, 600}";
}
);
layerId = "A8E52AE2-2A6A-4CD2-B761-065329444C15";
paths = (
{
closed = 1;
nodes = (
"530 160 LINE SMOOTH",
"530 127 OFFCURVE",
"522 120 OFFCURVE",
"500 120 CURVE SMOOTH",
"200 120 LINE SMOOTH",
"178 120 OFFCURVE",
"170 127 OFFCURVE",
"170 160 CURVE SMOOTH",
"170 440 LINE SMOOTH",
"170 473 OFFCURVE",
"178 480 OFFCURVE",
"200 480 CURVE SMOOTH",
"500 480 LINE SMOOTH",
"522 480 OFFCURVE",
"530 473 OFFCURVE",
"530 440 CURVE SMOOTH"
);
},
{
closed = 1;
nodes = (
"670 537 OFFCURVE",
"601 600 OFFCURVE",
"500 600 CURVE SMOOTH",
"200 600 LINE SMOOTH",
"99 600 OFFCURVE",
"30 537 OFFCURVE",
"30 440 CURVE SMOOTH",
"30 160 LINE SMOOTH",
"30 63 OFFCURVE",
"99 0 OFFCURVE",
"200 0 CURVE SMOOTH",
"500 0 LINE SMOOTH",
"601 0 OFFCURVE",
"670 63 OFFCURVE",
"670 160 CURVE SMOOTH",
"670 440 LINE SMOOTH"
);
}
);
width = 700;
}
);
unicode = 004F;
},
{
glyphname = OE;
lastChange = "2020-07-12 15:24:24 +0000";
layers = (
{
anchors = (
{
name = top;
position = "{540, 600}";
}
);
layerId = "A262DCEF-80AC-4544-820F-6C74D2F82537";
paths = (
{
closed = 1;
nodes = (
"640 30 LINE SMOOTH",
"588 30 OFFCURVE",
"560 60 OFFCURVE",
"560 115 CURVE SMOOTH",
"560 485 LINE SMOOTH",
"560 540 OFFCURVE",
"588 570 OFFCURVE",
"640 570 CURVE SMOOTH",
"920 570 LINE",
"920 600 LINE",
"640 600 LINE SMOOTH",
"566 600 OFFCURVE",
"520 556 OFFCURVE",
"520 485 CURVE SMOOTH",
"520 115 LINE SMOOTH",
"520 44 OFFCURVE",
"566 0 OFFCURVE",
"640 0 CURVE SMOOTH",
"920 0 LINE",
"920 30 LINE"
);
},
{
closed = 1;
nodes = (
"540 315 LINE",
"540 285 LINE",
"870 285 LINE",
"870 315 LINE"
);
},
{
closed = 1;
nodes = (
"520 115 LINE SMOOTH",
"520 60 OFFCURVE",
"492 30 OFFCURVE",
"440 30 CURVE SMOOTH",
"200 30 LINE SMOOTH",
"148 30 OFFCURVE",
"120 60 OFFCURVE",
"120 115 CURVE SMOOTH",
"120 485 LINE SMOOTH",
"120 540 OFFCURVE",
"148 570 OFFCURVE",
"200 570 CURVE SMOOTH",
"440 570 LINE SMOOTH",
"492 570 OFFCURVE",
"520 540 OFFCURVE",
"520 485 CURVE SMOOTH"
);
},
{
closed = 1;
nodes = (
"560 556 OFFCURVE",
"514 600 OFFCURVE",
"440 600 CURVE SMOOTH",
"200 600 LINE SMOOTH",
"126 600 OFFCURVE",
"80 556 OFFCURVE",
"80 485 CURVE SMOOTH",
"80 115 LINE SMOOTH",
"80 44 OFFCURVE",
"126 0 OFFCURVE",
"200 0 CURVE SMOOTH",
"440 0 LINE SMOOTH",
"514 0 OFFCURVE",
"560 44 OFFCURVE",
"560 115 CURVE SMOOTH",
"560 485 LINE SMOOTH"
);
}
);
width = 1030;
},
{
anchors = (
{
name = top;
position = "{540, 600}";
}
);
layerId = "5472B35A-B7AE-4E4F-A6B1-630A6CFD37FC";
paths = (
{
closed = 1;
nodes = (
"640 90 LINE SMOOTH",
"606 90 OFFCURVE",
"590 106 OFFCURVE",
"590 145 CURVE SMOOTH",
"590 455 LINE SMOOTH",
"590 494 OFFCURVE",
"606 510 OFFCURVE",
"640 510 CURVE SMOOTH",
"950 510 LINE",
"950 600 LINE",
"640 600 LINE SMOOTH",
"550 600 OFFCURVE",
"490 543 OFFCURVE",
"490 455 CURVE SMOOTH",
"490 145 LINE SMOOTH",
"490 57 OFFCURVE",
"550 0 OFFCURVE",
"640 0 CURVE SMOOTH",
"950 0 LINE",
"950 90 LINE"
);
},
{
closed = 1;
nodes = (
"540 345 LINE",
"540 255 LINE",
"900 255 LINE",
"900 345 LINE"
);
},
{
closed = 1;
nodes = (
"490 145 LINE SMOOTH",
"490 106 OFFCURVE",
"474 90 OFFCURVE",
"440 90 CURVE SMOOTH",
"200 90 LINE SMOOTH",
"166 90 OFFCURVE",
"150 106 OFFCURVE",
"150 145 CURVE SMOOTH",
"150 455 LINE SMOOTH",
"150 494 OFFCURVE",
"166 510 OFFCURVE",
"200 510 CURVE SMOOTH",
"440 510 LINE SMOOTH",
"474 510 OFFCURVE",
"490 494 OFFCURVE",
"490 455 CURVE SMOOTH"
);
},
{
closed = 1;
nodes = (
"590 543 OFFCURVE",
"530 600 OFFCURVE",
"440 600 CURVE SMOOTH",
"200 600 LINE SMOOTH",
"110 600 OFFCURVE",
"50 543 OFFCURVE",
"50 455 CURVE SMOOTH",
"50 145 LINE SMOOTH",
"50 57 OFFCURVE",
"110 0 OFFCURVE",
"200 0 CURVE SMOOTH",
"440 0 LINE SMOOTH",
"530 0 OFFCURVE",
"590 57 OFFCURVE",
"590 145 CURVE SMOOTH",
"590 455 LINE SMOOTH"
);
}
);
width = 1000;
},
{
anchors = (
{
name = top;
position = "{540, 600}";
}
);
layerId = "A8E52AE2-2A6A-4CD2-B761-065329444C15";
paths = (
{
closed = 1;
nodes = (
"640 120 LINE SMOOTH",
"618 120 OFFCURVE",
"610 127 OFFCURVE",
"610 160 CURVE SMOOTH",
"610 440 LINE SMOOTH",
"610 473 OFFCURVE",
"618 480 OFFCURVE",
"640 480 CURVE SMOOTH",
"970 480 LINE",
"970 600 LINE",
"640 600 LINE SMOOTH",
"539 600 OFFCURVE",
"470 537 OFFCURVE",
"470 440 CURVE SMOOTH",
"470 160 LINE SMOOTH",
"470 63 OFFCURVE",
"539 0 OFFCURVE",
"640 0 CURVE SMOOTH",
"970 0 LINE",
"970 120 LINE"
);
},
{
closed = 1;
nodes = (
"540 360 LINE",
"540 240 LINE",
"920 240 LINE",
"920 360 LINE"
);
},
{
closed = 1;
nodes = (
"470 160 LINE SMOOTH",
"470 127 OFFCURVE",
"462 120 OFFCURVE",
"440 120 CURVE SMOOTH",
"200 120 LINE SMOOTH",
"178 120 OFFCURVE",
"170 127 OFFCURVE",
"170 160 CURVE SMOOTH",
"170 440 LINE SMOOTH",
"170 473 OFFCURVE",
"178 480 OFFCURVE",
"200 480 CURVE SMOOTH",
"440 480 LINE SMOOTH",
"462 480 OFFCURVE",
"470 473 OFFCURVE",
"470 440 CURVE SMOOTH"
);
},
{
closed = 1;
nodes = (
"610 537 OFFCURVE",
"541 600 OFFCURVE",
"440 600 CURVE SMOOTH",
"200 600 LINE SMOOTH",
"99 600 OFFCURVE",
"30 537 OFFCURVE",
"30 440 CURVE SMOOTH",
"30 160 LINE SMOOTH",
"30 63 OFFCURVE",
"99 0 OFFCURVE",
"200 0 CURVE SMOOTH",
"440 0 LINE SMOOTH",
"541 0 OFFCURVE",
"610 63 OFFCURVE",
"610 160 CURVE SMOOTH",
"610 440 LINE SMOOTH"
);
}
);
width = 1000;
}
);
unicode = 0152;
},
{
glyphname = P;
lastChange = "2020-07-08 22:10:24 +0000";
layers = (
{
layerId = "5472B35A-B7AE-4E4F-A6B1-630A6CFD37FC";
paths = (
{
closed = 1;
nodes = (
"450 180 LINE SMOOTH",
"540 180 OFFCURVE",
"600 237 OFFCURVE",
"600 325 CURVE SMOOTH",
"600 455 LINE SMOOTH",
"600 543 OFFCURVE",
"540 600 OFFCURVE",
"450 600 CURVE SMOOTH",
"50 600 LINE",
"50 0 LINE",
"150 0 LINE",
"150 510 LINE",
"450 510 LINE SMOOTH",
"484 510 OFFCURVE",
"500 494 OFFCURVE",
"500 455 CURVE SMOOTH",
"500 325 LINE SMOOTH",
"500 286 OFFCURVE",
"484 270 OFFCURVE",
"450 270 CURVE SMOOTH",
"100 270 LINE",
"100 180 LINE"
);
}
);
width = 650;
},
{
layerId = "A262DCEF-80AC-4544-820F-6C74D2F82537";
paths = (
{
closed = 1;
nodes = (
"450 225 LINE SMOOTH",
"524 225 OFFCURVE",
"570 269 OFFCURVE",
"570 340 CURVE SMOOTH",
"570 485 LINE SMOOTH",
"570 556 OFFCURVE",
"524 600 OFFCURVE",
"450 600 CURVE SMOOTH",
"80 600 LINE",
"80 0 LINE",
"120 0 LINE",
"120 570 LINE",
"450 570 LINE SMOOTH",
"502 570 OFFCURVE",
"530 540 OFFCURVE",
"530 485 CURVE SMOOTH",
"530 340 LINE SMOOTH",
"530 285 OFFCURVE",
"502 255 OFFCURVE",
"450 255 CURVE SMOOTH",
"100 255 LINE",
"100 225 LINE"
);
}
);
width = 650;
},
{
layerId = "A8E52AE2-2A6A-4CD2-B761-065329444C15";
paths = (
{
closed = 1;
nodes = (
"450 158 LINE SMOOTH",
"551 158 OFFCURVE",
"620 221 OFFCURVE",
"620 318 CURVE SMOOTH",
"620 440 LINE SMOOTH",
"620 537 OFFCURVE",
"551 600 OFFCURVE",
"450 600 CURVE SMOOTH",
"30 600 LINE",
"30 0 LINE",
"170 0 LINE",
"170 480 LINE",
"450 480 LINE SMOOTH",
"472 480 OFFCURVE",
"480 473 OFFCURVE",
"480 440 CURVE SMOOTH",
"480 318 LINE SMOOTH",
"480 285 OFFCURVE",
"472 278 OFFCURVE",
"450 278 CURVE SMOOTH",
"100 278 LINE",
"100 158 LINE"
);
}
);
width = 650;
}
);
unicode = 0050;
},
{
glyphname = Q;
lastChange = "2020-07-08 22:10:24 +0000";
layers = (
{
layerId = "5472B35A-B7AE-4E4F-A6B1-630A6CFD37FC";
paths = (
{
closed = 1;
nodes = (
"550 145 LINE SMOOTH",
"550 106 OFFCURVE",
"534 90 OFFCURVE",
"500 90 CURVE SMOOTH",
"200 90 LINE SMOOTH",
"166 90 OFFCURVE",
"150 106 OFFCURVE",
"150 145 CURVE SMOOTH",
"150 455 LINE SMOOTH",
"150 494 OFFCURVE",
"166 510 OFFCURVE",
"200 510 CURVE SMOOTH",
"500 510 LINE SMOOTH",
"534 510 OFFCURVE",
"550 494 OFFCURVE",
"550 455 CURVE SMOOTH"
);
},
{
closed = 1;
nodes = (
"650 543 OFFCURVE",
"590 600 OFFCURVE",
"500 600 CURVE SMOOTH",
"200 600 LINE SMOOTH",
"110 600 OFFCURVE",
"50 543 OFFCURVE",
"50 455 CURVE SMOOTH",
"50 145 LINE SMOOTH",
"50 57 OFFCURVE",
"110 0 OFFCURVE",
"200 0 CURVE SMOOTH",
"500 0 LINE SMOOTH",
"590 0 OFFCURVE",
"650 57 OFFCURVE",
"650 145 CURVE SMOOTH",
"650 455 LINE SMOOTH"
);
},
{
closed = 1;
nodes = (
"400 200 LINE",
"300 200 LINE",
"300 -45 LINE",
"400 -45 LINE"
);
}
);
width = 700;
},
{
layerId = "A262DCEF-80AC-4544-820F-6C74D2F82537";
paths = (
{
closed = 1;
nodes = (
"580 115 LINE SMOOTH",
"580 60 OFFCURVE",
"552 30 OFFCURVE",
"500 30 CURVE SMOOTH",
"200 30 LINE SMOOTH",
"148 30 OFFCURVE",
"120 60 OFFCURVE",
"120 115 CURVE SMOOTH",
"120 485 LINE SMOOTH",
"120 540 OFFCURVE",
"148 570 OFFCURVE",
"200 570 CURVE SMOOTH",
"500 570 LINE SMOOTH",
"552 570 OFFCURVE",
"580 540 OFFCURVE",
"580 485 CURVE SMOOTH"
);
},
{
closed = 1;
nodes = (
"620 556 OFFCURVE",
"574 600 OFFCURVE",
"500 600 CURVE SMOOTH",
"200 600 LINE SMOOTH",
"126 600 OFFCURVE",
"80 556 OFFCURVE",
"80 485 CURVE SMOOTH",
"80 115 LINE SMOOTH",
"80 44 OFFCURVE",
"126 0 OFFCURVE",
"200 0 CURVE SMOOTH",
"500 0 LINE SMOOTH",
"574 0 OFFCURVE",
"620 44 OFFCURVE",
"620 115 CURVE SMOOTH",
"620 485 LINE SMOOTH"
);
},
{
closed = 1;
nodes = (
"370 150 LINE",
"330 150 LINE",
"330 -75 LINE",
"370 -75 LINE"
);
}
);
width = 700;
},
{
layerId = "A8E52AE2-2A6A-4CD2-B761-065329444C15";
paths = (
{
closed = 1;
nodes = (
"530 160 LINE SMOOTH",
"530 127 OFFCURVE",
"522 120 OFFCURVE",
"500 120 CURVE SMOOTH",
"200 120 LINE SMOOTH",
"178 120 OFFCURVE",
"170 127 OFFCURVE",
"170 160 CURVE SMOOTH",
"170 440 LINE SMOOTH",
"170 473 OFFCURVE",
"178 480 OFFCURVE",
"200 480 CURVE SMOOTH",
"500 480 LINE SMOOTH",
"522 480 OFFCURVE",
"530 473 OFFCURVE",
"530 440 CURVE SMOOTH"
);
},
{
closed = 1;
nodes = (
"670 537 OFFCURVE",
"601 600 OFFCURVE",
"500 600 CURVE SMOOTH",
"200 600 LINE SMOOTH",
"99 600 OFFCURVE",
"30 537 OFFCURVE",
"30 440 CURVE SMOOTH",
"30 160 LINE SMOOTH",
"30 63 OFFCURVE",
"99 0 OFFCURVE",
"200 0 CURVE SMOOTH",
"500 0 LINE SMOOTH",
"601 0 OFFCURVE",
"670 63 OFFCURVE",
"670 160 CURVE SMOOTH",
"670 440 LINE SMOOTH"
);
},
{
closed = 1;
nodes = (
"420 225 LINE",
"280 225 LINE",
"280 -30 LINE",
"420 -30 LINE"
);
}
);
width = 700;
}
);
unicode = 0051;
},
{
glyphname = R;
lastChange = "2020-07-14 19:41:59 +0000";
layers = (
{
anchors = (
{
name = top;
position = "{320, 600}";
}
);
layerId = "5472B35A-B7AE-4E4F-A6B1-630A6CFD37FC";
paths = (
{
closed = 1;
nodes = (
"450 190 LINE SMOOTH",
"540 190 OFFCURVE",
"600 247 OFFCURVE",
"600 335 CURVE SMOOTH",
"600 455 LINE SMOOTH",
"600 543 OFFCURVE",
"540 600 OFFCURVE",
"450 600 CURVE SMOOTH",
"50 600 LINE",
"50 0 LINE",
"150 0 LINE",
"150 510 LINE",
"450 510 LINE SMOOTH",
"484 510 OFFCURVE",
"500 494 OFFCURVE",
"500 455 CURVE SMOOTH",
"500 335 LINE SMOOTH",
"500 296 OFFCURVE",
"484 280 OFFCURVE",
"450 280 CURVE SMOOTH",
"100 280 LINE",
"100 190 LINE"
);
},
{
closed = 1;
nodes = (
"579 90 LINE SMOOTH",
"541 90 OFFCURVE",
"535 90 OFFCURVE",
"523 100 CURVE SMOOTH",
"333 269 LINE",
"267 201 LINE",
"453 36 LINE SMOOTH",
"487 6 OFFCURVE",
"518 0 OFFCURVE",
"579 0 CURVE SMOOTH",
"600 0 LINE",
"600 90 LINE"
);
}
);
width = 650;
},
{
anchors = (
{
name = top;
position = "{320, 600}";
}
);
layerId = "A262DCEF-80AC-4544-820F-6C74D2F82537";
paths = (
{
closed = 1;
nodes = (
"450 220 LINE SMOOTH",
"524 220 OFFCURVE",
"570 264 OFFCURVE",
"570 335 CURVE SMOOTH",
"570 485 LINE SMOOTH",
"570 556 OFFCURVE",
"524 600 OFFCURVE",
"450 600 CURVE SMOOTH",
"80 600 LINE",
"80 0 LINE",
"120 0 LINE",
"120 570 LINE",
"450 570 LINE SMOOTH",
"502 570 OFFCURVE",
"530 540 OFFCURVE",
"530 485 CURVE SMOOTH",
"530 335 LINE SMOOTH",
"530 280 OFFCURVE",
"502 250 OFFCURVE",
"450 250 CURVE SMOOTH",
"100 250 LINE",
"100 220 LINE"
);
},
{
closed = 1;
nodes = (
"549 30 LINE SMOOTH",
"511 30 OFFCURVE",
"489 26 OFFCURVE",
"464 58 CURVE SMOOTH",
"316 244 LINE",
"284 226 LINE",
"432 40 LINE SMOOTH",
"471 -8 OFFCURVE",
"515 0 OFFCURVE",
"549 0 CURVE SMOOTH",
"570 0 LINE",
"570 30 LINE"
);
}
);
width = 650;
},
{
anchors = (
{
name = top;
position = "{320, 600}";
}
);
layerId = "A8E52AE2-2A6A-4CD2-B761-065329444C15";
paths = (
{
closed = 1;
nodes = (
"450 175 LINE SMOOTH",
"551 175 OFFCURVE",
"620 238 OFFCURVE",
"620 335 CURVE SMOOTH",
"620 440 LINE SMOOTH",
"620 537 OFFCURVE",
"551 600 OFFCURVE",
"450 600 CURVE SMOOTH",
"30 600 LINE",
"30 0 LINE",
"170 0 LINE",
"170 480 LINE",
"450 480 LINE SMOOTH",
"472 480 OFFCURVE",
"480 473 OFFCURVE",
"480 440 CURVE SMOOTH",
"480 335 LINE SMOOTH",
"480 302 OFFCURVE",
"472 295 OFFCURVE",
"450 295 CURVE SMOOTH",
"100 295 LINE",
"100 175 LINE"
);
},
{
closed = 1;
nodes = (
"594 120 LINE SMOOTH",
"568 120 OFFCURVE",
"561 120 OFFCURVE",
"551 125 CURVE",
"342 283 LINE",
"258 187 LINE",
"466 30 LINE",
"498 9 OFFCURVE",
"536 0 OFFCURVE",
"594 0 CURVE SMOOTH",
"615 0 LINE",
"615 120 LINE"
);
}
);
width = 650;
}
);
unicode = 0052;
},
{
glyphname = S;
lastChange = "2020-07-12 20:27:08 +0000";
layers = (
{
anchors = (
{
name = top;
position = "{340, 600}";
}
);
layerId = "5472B35A-B7AE-4E4F-A6B1-630A6CFD37FC";
paths = (
{
closed = 1;
nodes = (
"50 145 LINE SMOOTH",
"50 57 OFFCURVE",
"110 0 OFFCURVE",
"200 0 CURVE SMOOTH",
"500 0 LINE SMOOTH",
"590 0 OFFCURVE",
"650 57 OFFCURVE",
"650 145 CURVE SMOOTH",
"650 203 LINE SMOOTH",
"650 291 OFFCURVE",
"590 348 OFFCURVE",
"500 348 CURVE SMOOTH",
"205 348 LINE SMOOTH",
"171 348 OFFCURVE",
"155 364 OFFCURVE",
"155 403 CURVE SMOOTH",
"155 455 LINE SMOOTH",
"155 494 OFFCURVE",
"171 510 OFFCURVE",
"205 510 CURVE SMOOTH",
"491 510 LINE SMOOTH",
"525 510 OFFCURVE",
"541 494 OFFCURVE",
"541 455 CURVE SMOOTH",
"541 430 LINE",
"641 430 LINE",
"641 455 LINE SMOOTH",
"641 543 OFFCURVE",
"581 600 OFFCURVE",
"491 600 CURVE SMOOTH",
"205 600 LINE SMOOTH",
"115 600 OFFCURVE",
"55 543 OFFCURVE",
"55 455 CURVE SMOOTH",
"55 403 LINE SMOOTH",
"55 315 OFFCURVE",
"115 258 OFFCURVE",
"205 258 CURVE SMOOTH",
"500 258 LINE SMOOTH",
"534 258 OFFCURVE",
"550 242 OFFCURVE",
"550 203 CURVE SMOOTH",
"550 145 LINE SMOOTH",
"550 106 OFFCURVE",
"534 90 OFFCURVE",
"500 90 CURVE SMOOTH",
"200 90 LINE SMOOTH",
"166 90 OFFCURVE",
"150 106 OFFCURVE",
"150 145 CURVE SMOOTH",
"150 170 LINE",
"50 170 LINE"
);
}
);
width = 700;
},
{
anchors = (
{
name = top;
position = "{340, 600}";
}
);
layerId = "A262DCEF-80AC-4544-820F-6C74D2F82537";
paths = (
{
closed = 1;
nodes = (
"80 115 LINE SMOOTH",
"80 44 OFFCURVE",
"126 0 OFFCURVE",
"200 0 CURVE SMOOTH",
"500 0 LINE SMOOTH",
"574 0 OFFCURVE",
"620 44 OFFCURVE",
"620 115 CURVE SMOOTH",
"620 203 LINE SMOOTH",
"620 274 OFFCURVE",
"574 318 OFFCURVE",
"500 318 CURVE SMOOTH",
"205 318 LINE SMOOTH",
"153 318 OFFCURVE",
"125 348 OFFCURVE",
"125 403 CURVE SMOOTH",
"125 485 LINE SMOOTH",
"125 540 OFFCURVE",
"153 570 OFFCURVE",
"205 570 CURVE SMOOTH",
"491 570 LINE SMOOTH",
"543 570 OFFCURVE",
"571 540 OFFCURVE",
"571 485 CURVE SMOOTH",
"571 460 LINE",
"611 460 LINE",
"611 485 LINE SMOOTH",
"611 556 OFFCURVE",
"565 600 OFFCURVE",
"491 600 CURVE SMOOTH",
"205 600 LINE SMOOTH",
"131 600 OFFCURVE",
"85 556 OFFCURVE",
"85 485 CURVE SMOOTH",
"85 403 LINE SMOOTH",
"85 332 OFFCURVE",
"131 288 OFFCURVE",
"205 288 CURVE SMOOTH",
"500 288 LINE SMOOTH",
"552 288 OFFCURVE",
"580 258 OFFCURVE",
"580 203 CURVE SMOOTH",
"580 115 LINE SMOOTH",
"580 60 OFFCURVE",
"552 30 OFFCURVE",
"500 30 CURVE SMOOTH",
"200 30 LINE SMOOTH",
"148 30 OFFCURVE",
"120 60 OFFCURVE",
"120 115 CURVE SMOOTH",
"120 140 LINE",
"80 140 LINE"
);
}
);
width = 700;
},
{
anchors = (
{
name = top;
position = "{340, 600}";
}
);
layerId = "A8E52AE2-2A6A-4CD2-B761-065329444C15";
paths = (
{
closed = 1;
nodes = (
"30 160 LINE SMOOTH",
"30 63 OFFCURVE",
"99 0 OFFCURVE",
"200 0 CURVE SMOOTH",
"500 0 LINE SMOOTH",
"601 0 OFFCURVE",
"670 63 OFFCURVE",
"670 160 CURVE SMOOTH",
"670 203 LINE SMOOTH",
"670 300 OFFCURVE",
"601 363 OFFCURVE",
"500 363 CURVE SMOOTH",
"205 363 LINE SMOOTH",
"183 363 OFFCURVE",
"175 370 OFFCURVE",
"175 403 CURVE SMOOTH",
"175 440 LINE SMOOTH",
"175 473 OFFCURVE",
"183 480 OFFCURVE",
"205 480 CURVE SMOOTH",
"491 480 LINE SMOOTH",
"513 480 OFFCURVE",
"521 473 OFFCURVE",
"521 440 CURVE SMOOTH",
"521 415 LINE",
"661 415 LINE",
"661 440 LINE SMOOTH",
"661 537 OFFCURVE",
"592 600 OFFCURVE",
"491 600 CURVE SMOOTH",
"205 600 LINE SMOOTH",
"104 600 OFFCURVE",
"35 537 OFFCURVE",
"35 440 CURVE SMOOTH",
"35 403 LINE SMOOTH",
"35 306 OFFCURVE",
"104 243 OFFCURVE",
"205 243 CURVE SMOOTH",
"500 243 LINE SMOOTH",
"522 243 OFFCURVE",
"530 236 OFFCURVE",
"530 203 CURVE SMOOTH",
"530 160 LINE SMOOTH",
"530 127 OFFCURVE",
"522 120 OFFCURVE",
"500 120 CURVE SMOOTH",
"200 120 LINE SMOOTH",
"178 120 OFFCURVE",
"170 127 OFFCURVE",
"170 160 CURVE SMOOTH",
"170 185 LINE",
"30 185 LINE"
);
}
);
width = 700;
}
);
unicode = 0053;
},
{
glyphname = Germandbls;
lastChange = "2020-07-15 17:30:37 +0000";
layers = (
{
layerId = "A262DCEF-80AC-4544-820F-6C74D2F82537";
paths = (
{
closed = 1;
nodes = (
"261 115 LINE SMOOTH",
"261 44 OFFCURVE",
"307 0 OFFCURVE",
"381 0 CURVE SMOOTH",
"526 0 LINE SMOOTH",
"600 0 OFFCURVE",
"646 44 OFFCURVE",
"646 115 CURVE SMOOTH",
"646 203 LINE SMOOTH",
"646 274 OFFCURVE",
"600 318 OFFCURVE",
"526 318 CURVE SMOOTH",
"441 318 LINE SMOOTH",
"389 318 OFFCURVE",
"346 364 OFFCURVE",
"346 418 CURVE SMOOTH",
"346 470 LINE SMOOTH",
"346 523 OFFCURVE",
"392 570 OFFCURVE",
"446 570 CURVE SMOOTH",
"490 570 LINE",
"490 600 LINE",
"310 599 LINE SMOOTH",
"168 599 OFFCURVE",
"80 517 OFFCURVE",
"80 384 CURVE SMOOTH",
"80 0 LINE",
"120 0 LINE",
"120 384 LINE SMOOTH",
"120 500 OFFCURVE",
"190 569 OFFCURVE",
"310 569 CURVE SMOOTH",
"490 570 LINE",
"490 600 LINE",
"446 600 LINE SMOOTH",
"370 600 OFFCURVE",
"306 539 OFFCURVE",
"306 470 CURVE SMOOTH",
"306 418 LINE SMOOTH",
"306 347 OFFCURVE",
"366 288 OFFCURVE",
"441 288 CURVE SMOOTH",
"526 288 LINE SMOOTH",
"578 288 OFFCURVE",
"606 258 OFFCURVE",
"606 203 CURVE SMOOTH",
"606 115 LINE SMOOTH",
"606 60 OFFCURVE",
"578 30 OFFCURVE",
"526 30 CURVE SMOOTH",
"381 30 LINE SMOOTH",
"329 30 OFFCURVE",
"301 60 OFFCURVE",
"301 115 CURVE SMOOTH",
"301 140 LINE",
"261 140 LINE"
);
}
);
width = 726;
},
{
layerId = "5472B35A-B7AE-4E4F-A6B1-630A6CFD37FC";
paths = (
{
closed = 1;
nodes = (
"251 145 LINE SMOOTH",
"251 57 OFFCURVE",
"311 0 OFFCURVE",
"401 0 CURVE SMOOTH",
"556 0 LINE SMOOTH",
"646 0 OFFCURVE",
"706 57 OFFCURVE",
"706 145 CURVE SMOOTH",
"706 203 LINE SMOOTH",
"706 291 OFFCURVE",
"646 348 OFFCURVE",
"556 348 CURVE SMOOTH",
"471 348 LINE SMOOTH",
"435 348 OFFCURVE",
"406 381 OFFCURVE",
"406 418 CURVE SMOOTH",
"406 440 LINE SMOOTH",
"406 476 OFFCURVE",
"439 510 OFFCURVE",
"476 510 CURVE SMOOTH",
"520 510 LINE",
"520 600 LINE",
"310 599 LINE SMOOTH",
"152 599 OFFCURVE",
"50 503 OFFCURVE",
"50 354 CURVE SMOOTH",
"50 0 LINE",
"150 0 LINE",
"150 354 LINE SMOOTH",
"150 453 OFFCURVE",
"207 509 OFFCURVE",
"310 509 CURVE SMOOTH",
"520 510 LINE",
"520 600 LINE",
"476 600 LINE SMOOTH",
"384 600 OFFCURVE",
"306 526 OFFCURVE",
"306 440 CURVE SMOOTH",
"306 418 LINE SMOOTH",
"306 331 OFFCURVE",
"380 258 OFFCURVE",
"471 258 CURVE SMOOTH",
"556 258 LINE SMOOTH",
"590 258 OFFCURVE",
"606 242 OFFCURVE",
"606 203 CURVE SMOOTH",
"606 145 LINE SMOOTH",
"606 106 OFFCURVE",
"590 90 OFFCURVE",
"556 90 CURVE SMOOTH",
"401 90 LINE SMOOTH",
"367 90 OFFCURVE",
"351 106 OFFCURVE",
"351 145 CURVE SMOOTH",
"351 170 LINE",
"251 170 LINE"
);
}
);
width = 756;
},
{
layerId = "A8E52AE2-2A6A-4CD2-B761-065329444C15";
paths = (
{
closed = 1;
nodes = (
"246 160 LINE SMOOTH",
"246 63 OFFCURVE",
"315 0 OFFCURVE",
"416 0 CURVE SMOOTH",
"586 0 LINE SMOOTH",
"687 0 OFFCURVE",
"756 63 OFFCURVE",
"756 160 CURVE SMOOTH",
"756 203 LINE SMOOTH",
"756 300 OFFCURVE",
"687 363 OFFCURVE",
"586 363 CURVE SMOOTH",
"501 363 LINE SMOOTH",
"477 363 OFFCURVE",
"456 388 OFFCURVE",
"456 418 CURVE SMOOTH",
"456 425 LINE SMOOTH",
"456 453 OFFCURVE",
"480 480 OFFCURVE",
"506 480 CURVE SMOOTH",
"550 480 LINE",
"550 600 LINE",
"310 599 LINE SMOOTH",
"141 599 OFFCURVE",
"30 497 OFFCURVE",
"30 339 CURVE SMOOTH",
"30 0 LINE",
"170 0 LINE",
"170 339 LINE SMOOTH",
"170 430 OFFCURVE",
"218 479 OFFCURVE",
"310 479 CURVE SMOOTH",
"550 480 LINE",
"550 600 LINE",
"506 600 LINE SMOOTH",
"404 600 OFFCURVE",
"316 520 OFFCURVE",
"316 425 CURVE SMOOTH",
"316 418 LINE SMOOTH",
"316 322 OFFCURVE",
"400 243 OFFCURVE",
"501 243 CURVE SMOOTH",
"586 243 LINE SMOOTH",
"608 243 OFFCURVE",
"616 236 OFFCURVE",
"616 203 CURVE SMOOTH",
"616 160 LINE SMOOTH",
"616 127 OFFCURVE",
"608 120 OFFCURVE",
"586 120 CURVE SMOOTH",
"416 120 LINE SMOOTH",
"394 120 OFFCURVE",
"386 127 OFFCURVE",
"386 160 CURVE SMOOTH",
"386 185 LINE",
"246 185 LINE"
);
}
);
width = 786;
}
);
unicode = 1E9E;
},
{
glyphname = T;
lastChange = "2020-07-12 20:27:15 +0000";
layers = (
{
anchors = (
{
name = top;
position = "{340, 600}";
}
);
layerId = "5472B35A-B7AE-4E4F-A6B1-630A6CFD37FC";
paths = (
{
closed = 1;
nodes = (
"400 555 LINE",
"300 555 LINE",
"300 0 LINE",
"400 0 LINE"
);
},
{
closed = 1;
nodes = (
"50 600 LINE",
"50 510 LINE",
"650 510 LINE",
"650 600 LINE"
);
}
);
width = 700;
},
{
anchors = (
{
name = top;
position = "{340, 600}";
}
);
layerId = "A262DCEF-80AC-4544-820F-6C74D2F82537";
paths = (
{
closed = 1;
nodes = (
"370 585 LINE",
"330 585 LINE",
"330 0 LINE",
"370 0 LINE"
);
},
{
closed = 1;
nodes = (
"80 600 LINE",
"80 570 LINE",
"620 570 LINE",
"620 600 LINE"
);
}
);
width = 700;
},
{
anchors = (
{
name = top;
position = "{340, 600}";
}
);
layerId = "A8E52AE2-2A6A-4CD2-B761-065329444C15";
paths = (
{
closed = 1;
nodes = (
"420 540 LINE",
"280 540 LINE",
"280 0 LINE",
"420 0 LINE"
);
},
{
closed = 1;
nodes = (
"35 600 LINE",
"35 480 LINE",
"665 480 LINE",
"665 600 LINE"
);
}
);
width = 700;
}
);
leftKerningGroup = T;
rightKerningGroup = T;
unicode = 0054;
},
{
glyphname = U;
lastChange = "2020-07-08 22:10:24 +0000";
layers = (
{
anchors = (
{
name = top;
position = "{350, 600}";
}
);
layerId = "5472B35A-B7AE-4E4F-A6B1-630A6CFD37FC";
paths = (
{
closed = 1;
nodes = (
"50 145 LINE SMOOTH",
"50 57 OFFCURVE",
"110 0 OFFCURVE",
"200 0 CURVE SMOOTH",
"500 0 LINE SMOOTH",
"590 0 OFFCURVE",
"650 57 OFFCURVE",
"650 145 CURVE SMOOTH",
"650 600 LINE",
"550 600 LINE",
"550 145 LINE SMOOTH",
"550 106 OFFCURVE",
"534 90 OFFCURVE",
"500 90 CURVE SMOOTH",
"200 90 LINE SMOOTH",
"166 90 OFFCURVE",
"150 106 OFFCURVE",
"150 145 CURVE SMOOTH",
"150 600 LINE",
"50 600 LINE"
);
}
);
width = 700;
},
{
anchors = (
{
name = top;
position = "{350, 600}";
}
);
layerId = "A262DCEF-80AC-4544-820F-6C74D2F82537";
paths = (
{
closed = 1;
nodes = (
"80 115 LINE SMOOTH",
"80 44 OFFCURVE",
"126 0 OFFCURVE",
"200 0 CURVE SMOOTH",
"500 0 LINE SMOOTH",
"574 0 OFFCURVE",
"620 44 OFFCURVE",
"620 115 CURVE SMOOTH",
"620 600 LINE",
"580 600 LINE",
"580 115 LINE SMOOTH",
"580 60 OFFCURVE",
"552 30 OFFCURVE",
"500 30 CURVE SMOOTH",
"200 30 LINE SMOOTH",
"148 30 OFFCURVE",
"120 60 OFFCURVE",
"120 115 CURVE SMOOTH",
"120 600 LINE",
"80 600 LINE"
);
}
);
width = 700;
},
{
anchors = (
{
name = top;
position = "{350, 600}";
}
);
layerId = "A8E52AE2-2A6A-4CD2-B761-065329444C15";
paths = (
{
closed = 1;
nodes = (
"30 160 LINE SMOOTH",
"30 63 OFFCURVE",
"99 0 OFFCURVE",
"200 0 CURVE SMOOTH",
"500 0 LINE SMOOTH",
"601 0 OFFCURVE",
"670 63 OFFCURVE",
"670 160 CURVE SMOOTH",
"670 600 LINE",
"530 600 LINE",
"530 160 LINE SMOOTH",
"530 127 OFFCURVE",
"522 120 OFFCURVE",
"500 120 CURVE SMOOTH",
"200 120 LINE SMOOTH",
"178 120 OFFCURVE",
"170 127 OFFCURVE",
"170 160 CURVE SMOOTH",
"170 600 LINE",
"30 600 LINE"
);
}
);
width = 700;
}
);
unicode = 0055;
},
{
glyphname = V;
lastChange = "2020-07-08 22:10:24 +0000";
layers = (
{
layerId = "5472B35A-B7AE-4E4F-A6B1-630A6CFD37FC";
paths = (
{
closed = 1;
nodes = (
"550 575 LINE SMOOTH",
"550 539 OFFCURVE",
"544 519 OFFCURVE",
"514 455 CURVE SMOOTH",
"344 97 LINE SMOOTH",
"327 61 OFFCURVE",
"373 61 OFFCURVE",
"356 97 CURVE SMOOTH",
"186 455 LINE SMOOTH",
"152 526 OFFCURVE",
"150 535 OFFCURVE",
"150 575 CURVE SMOOTH",
"150 600 LINE",
"50 600 LINE",
"50 575 LINE SMOOTH",
"50 522 OFFCURVE",
"57 497 OFFCURVE",
"96 417 CURVE SMOOTH",
"266 59 LINE SMOOTH",
"303 -19 OFFCURVE",
"397 -20 OFFCURVE",
"434 59 CURVE SMOOTH",
"604 417 LINE SMOOTH",
"640 492 OFFCURVE",
"650 527 OFFCURVE",
"650 575 CURVE SMOOTH",
"650 600 LINE",
"550 600 LINE"
);
}
);
width = 700;
},
{
layerId = "A262DCEF-80AC-4544-820F-6C74D2F82537";
paths = (
{
closed = 1;
nodes = (
"580 575 LINE SMOOTH",
"580 539 OFFCURVE",
"573 514 OFFCURVE",
"541 442 CURVE SMOOTH",
"371 54 LINE SMOOTH",
"357 22 OFFCURVE",
"343 23 OFFCURVE",
"329 54 CURVE SMOOTH",
"159 442 LINE SMOOTH",
"124 523 OFFCURVE",
"120 536 OFFCURVE",
"120 575 CURVE SMOOTH",
"120 600 LINE",
"80 600 LINE",
"80 575 LINE SMOOTH",
"80 532 OFFCURVE",
"85 517 OFFCURVE",
"123 430 CURVE SMOOTH",
"293 42 LINE SMOOTH",
"317 -14 OFFCURVE",
"383 -14 OFFCURVE",
"407 42 CURVE SMOOTH",
"577 430 LINE SMOOTH",
"612 508 OFFCURVE",
"620 534 OFFCURVE",
"620 575 CURVE SMOOTH",
"620 600 LINE",
"580 600 LINE"
);
}
);
width = 700;
},
{
layerId = "A8E52AE2-2A6A-4CD2-B761-065329444C15";
paths = (
{
closed = 1;
nodes = (
"530 575 LINE SMOOTH",
"530 539 OFFCURVE",
"525 521 OFFCURVE",
"496 462 CURVE SMOOTH",
"326 120 LINE SMOOTH",
"323 114 OFFCURVE",
"377 114 OFFCURVE",
"374 120 CURVE SMOOTH",
"204 462 LINE SMOOTH",
"172 528 OFFCURVE",
"170 535 OFFCURVE",
"170 575 CURVE SMOOTH",
"170 600 LINE",
"30 600 LINE",
"30 575 LINE SMOOTH",
"30 518 OFFCURVE",
"38 492 OFFCURVE",
"78 410 CURVE SMOOTH",
"248 66 LINE SMOOTH",
"292 -22 OFFCURVE",
"408 -22 OFFCURVE",
"452 66 CURVE SMOOTH",
"622 410 LINE SMOOTH",
"659 486 OFFCURVE",
"670 523 OFFCURVE",
"670 575 CURVE SMOOTH",
"670 600 LINE",
"530 600 LINE"
);
}
);
width = 700;
}
);
leftKerningGroup = V;
rightKerningGroup = V;
unicode = 0056;
},
{
glyphname = X;
lastChange = "2020-07-08 22:10:24 +0000";
layers = (
{
layerId = "5472B35A-B7AE-4E4F-A6B1-630A6CFD37FC";
paths = (
{
closed = 1;
nodes = (
"650 45 LINE SMOOTH",
"650 104 OFFCURVE",
"628 144 OFFCURVE",
"570 190 CURVE SMOOTH",
"202 479 LINE SMOOTH",
"169 506 OFFCURVE",
"160 522 OFFCURVE",
"160 555 CURVE SMOOTH",
"160 600 LINE",
"60 600 LINE",
"60 555 LINE SMOOTH",
"60 495 OFFCURVE",
"83 455 OFFCURVE",
"140 409 CURVE SMOOTH",
"508 120 LINE SMOOTH",
"542 93 OFFCURVE",
"550 77 OFFCURVE",
"550 45 CURVE SMOOTH",
"550 0 LINE",
"650 0 LINE"
);
},
{
closed = 1;
nodes = (
"150 45 LINE SMOOTH",
"150 77 OFFCURVE",
"158 93 OFFCURVE",
"192 120 CURVE SMOOTH",
"560 409 LINE SMOOTH",
"617 455 OFFCURVE",
"640 495 OFFCURVE",
"640 555 CURVE SMOOTH",
"640 600 LINE",
"540 600 LINE",
"540 555 LINE SMOOTH",
"540 522 OFFCURVE",
"531 506 OFFCURVE",
"498 479 CURVE SMOOTH",
"130 190 LINE SMOOTH",
"72 144 OFFCURVE",
"50 104 OFFCURVE",
"50 45 CURVE SMOOTH",
"50 0 LINE",
"150 0 LINE"
);
}
);
width = 700;
},
{
layerId = "A262DCEF-80AC-4544-820F-6C74D2F82537";
paths = (
{
closed = 1;
nodes = (
"620 45 LINE SMOOTH",
"620 95 OFFCURVE",
"602 126 OFFCURVE",
"551 167 CURVE SMOOTH",
"183 456 LINE SMOOTH",
"143 488 OFFCURVE",
"130 513 OFFCURVE",
"130 555 CURVE SMOOTH",
"130 600 LINE",
"90 600 LINE",
"90 555 LINE SMOOTH",
"90 505 OFFCURVE",
"108 473 OFFCURVE",
"159 432 CURVE SMOOTH",
"527 143 LINE SMOOTH",
"567 111 OFFCURVE",
"580 87 OFFCURVE",
"580 45 CURVE SMOOTH",
"580 0 LINE",
"620 0 LINE"
);
},
{
closed = 1;
nodes = (
"120 45 LINE SMOOTH",
"120 87 OFFCURVE",
"133 111 OFFCURVE",
"173 143 CURVE SMOOTH",
"541 432 LINE SMOOTH",
"592 473 OFFCURVE",
"610 505 OFFCURVE",
"610 555 CURVE SMOOTH",
"610 600 LINE",
"570 600 LINE",
"570 555 LINE SMOOTH",
"570 513 OFFCURVE",
"557 488 OFFCURVE",
"517 456 CURVE SMOOTH",
"149 167 LINE SMOOTH",
"98 126 OFFCURVE",
"80 95 OFFCURVE",
"80 45 CURVE SMOOTH",
"80 0 LINE",
"120 0 LINE"
);
}
);
width = 700;
},
{
layerId = "A8E52AE2-2A6A-4CD2-B761-065329444C15";
paths = (
{
closed = 1;
nodes = (
"670 45 LINE SMOOTH",
"670 109 OFFCURVE",
"646 151 OFFCURVE",
"582 202 CURVE SMOOTH",
"214 491 LINE SMOOTH",
"187 513 OFFCURVE",
"180 526 OFFCURVE",
"180 555 CURVE SMOOTH",
"180 600 LINE",
"40 600 LINE",
"40 555 LINE SMOOTH",
"40 490 OFFCURVE",
"64 447 OFFCURVE",
"128 397 CURVE SMOOTH",
"496 108 LINE SMOOTH",
"524 85 OFFCURVE",
"530 73 OFFCURVE",
"530 45 CURVE SMOOTH",
"530 0 LINE",
"670 0 LINE"
);
},
{
closed = 1;
nodes = (
"170 45 LINE SMOOTH",
"170 73 OFFCURVE",
"176 85 OFFCURVE",
"204 108 CURVE SMOOTH",
"572 397 LINE SMOOTH",
"636 447 OFFCURVE",
"660 490 OFFCURVE",
"660 555 CURVE SMOOTH",
"660 600 LINE",
"520 600 LINE",
"520 555 LINE SMOOTH",
"520 526 OFFCURVE",
"513 513 OFFCURVE",
"486 491 CURVE SMOOTH",
"118 202 LINE SMOOTH",
"54 151 OFFCURVE",
"30 109 OFFCURVE",
"30 45 CURVE SMOOTH",
"30 0 LINE",
"170 0 LINE"
);
}
);
width = 700;
}
);
unicode = 0058;
},
{
glyphname = Y;
lastChange = "2020-07-08 22:10:53 +0000";
layers = (
{
anchors = (
{
name = top;
position = "{350, 600}";
}
);
layerId = "5472B35A-B7AE-4E4F-A6B1-630A6CFD37FC";
paths = (
{
closed = 1;
nodes = (
"550 575 LINE SMOOTH",
"550 514 OFFCURVE",
"544 489 OFFCURVE",
"523 467 CURVE SMOOTH",
"350 287 LINE",
"177 467 LINE SMOOTH",
"147 499 OFFCURVE",
"150 532 OFFCURVE",
"150 575 CURVE SMOOTH",
"150 600 LINE",
"50 600 LINE",
"50 575 LINE SMOOTH",
"50 536 OFFCURVE",
"43 469 OFFCURVE",
"105 405 CURVE SMOOTH",
"350 149 LINE",
"595 405 LINE SMOOTH",
"637 448 OFFCURVE",
"650 491 OFFCURVE",
"650 575 CURVE SMOOTH",
"650 600 LINE",
"550 600 LINE"
);
},
{
closed = 1;
nodes = (
"300 0 LINE",
"400 0 LINE",
"400 218 LINE",
"300 218 LINE"
);
}
);
width = 700;
},
{
anchors = (
{
name = top;
position = "{350, 600}";
}
);
layerId = "A262DCEF-80AC-4544-820F-6C74D2F82537";
paths = (
{
closed = 1;
nodes = (
"580 575 LINE SMOOTH",
"580 536 OFFCURVE",
"582 484 OFFCURVE",
"545 446 CURVE SMOOTH",
"350 243 LINE",
"155 446 LINE SMOOTH",
"115 488 OFFCURVE",
"120 534 OFFCURVE",
"120 575 CURVE SMOOTH",
"120 600 LINE",
"80 600 LINE",
"80 575 LINE SMOOTH",
"80 534 OFFCURVE",
"75 480 OFFCURVE",
"127 426 CURVE SMOOTH",
"350 193 LINE",
"573 426 LINE SMOOTH",
"622 476 OFFCURVE",
"620 536 OFFCURVE",
"620 575 CURVE SMOOTH",
"620 600 LINE",
"580 600 LINE"
);
},
{
closed = 1;
nodes = (
"330 0 LINE",
"370 0 LINE",
"370 218 LINE",
"330 218 LINE"
);
}
);
width = 700;
},
{
anchors = (
{
name = top;
position = "{350, 600}";
}
);
layerId = "A8E52AE2-2A6A-4CD2-B761-065329444C15";
paths = (
{
closed = 1;
nodes = (
"530 575 LINE SMOOTH",
"530 518 OFFCURVE",
"524 494 OFFCURVE",
"509 478 CURVE SMOOTH",
"350 312 LINE",
"192 478 LINE SMOOTH",
"167 503 OFFCURVE",
"170 532 OFFCURVE",
"170 575 CURVE SMOOTH",
"170 600 LINE",
"30 600 LINE",
"30 575 LINE SMOOTH",
"30 487 OFFCURVE",
"39 448 OFFCURVE",
"90 394 CURVE SMOOTH",
"350 124 LINE",
"609 394 LINE SMOOTH",
"659 445 OFFCURVE",
"670 491 OFFCURVE",
"670 575 CURVE SMOOTH",
"670 600 LINE",
"530 600 LINE"
);
},
{
closed = 1;
nodes = (
"280 0 LINE",
"420 0 LINE",
"420 218 LINE",
"280 218 LINE"
);
}
);
width = 700;
}
);
leftKerningGroup = V;
rightKerningGroup = V;
unicode = 0059;
},
{
glyphname = Z;
lastChange = "2020-07-12 02:53:17 +0000";
layers = (
{
anchors = (
{
name = top;
position = "{340, 600}";
}
);
layerId = "5472B35A-B7AE-4E4F-A6B1-630A6CFD37FC";
paths = (
{
closed = 1;
nodes = (
"133 90 LINE SMOOTH",
"148 90 OFFCURVE",
"158 75 OFFCURVE",
"146 65 CURVE SMOOTH",
"610 467 LINE SMOOTH",
"668 517 OFFCURVE",
"633 600 OFFCURVE",
"557 600 CURVE SMOOTH",
"70 600 LINE",
"70 510 LINE",
"557 510 LINE SMOOTH",
"543 510 OFFCURVE",
"533 525 OFFCURVE",
"544 535 CURVE SMOOTH",
"80 133 LINE SMOOTH",
"22 83 OFFCURVE",
"58 0 OFFCURVE",
"133 0 CURVE SMOOTH",
"650 0 LINE",
"650 90 LINE"
);
}
);
width = 700;
},
{
anchors = (
{
name = top;
position = "{340, 600}";
}
);
layerId = "A262DCEF-80AC-4544-820F-6C74D2F82537";
paths = (
{
closed = 1;
nodes = (
"133 30 LINE SMOOTH",
"121 30 OFFCURVE",
"117 49 OFFCURVE",
"127 58 CURVE SMOOTH",
"591 520 LINE SMOOTH",
"626 555 OFFCURVE",
"605 600 OFFCURVE",
"557 600 CURVE SMOOTH",
"100 600 LINE",
"100 570 LINE",
"557 570 LINE SMOOTH",
"570 570 OFFCURVE",
"573 552 OFFCURVE",
"563 542 CURVE SMOOTH",
"99 80 LINE SMOOTH",
"65 45 OFFCURVE",
"86 0 OFFCURVE",
"133 0 CURVE SMOOTH",
"620 0 LINE",
"620 30 LINE"
);
}
);
width = 700;
},
{
anchors = (
{
name = top;
position = "{340, 600}";
}
);
layerId = "A8E52AE2-2A6A-4CD2-B761-065329444C15";
paths = (
{
closed = 1;
nodes = (
"133 120 LINE SMOOTH",
"167 120 OFFCURVE",
"184 90 OFFCURVE",
"157 67 CURVE SMOOTH",
"621 439 LINE SMOOTH",
"697 499 OFFCURVE",
"653 600 OFFCURVE",
"557 600 CURVE SMOOTH",
"55 600 LINE",
"55 480 LINE",
"557 480 LINE SMOOTH",
"522 480 OFFCURVE",
"506 512 OFFCURVE",
"533 533 CURVE SMOOTH",
"69 161 LINE SMOOTH",
"-5 99 OFFCURVE",
"39 0 OFFCURVE",
"133 0 CURVE SMOOTH",
"665 0 LINE",
"665 120 LINE"
);
}
);
width = 700;
}
);
unicode = 005A;
},
{
color = 1;
glyphname = A.salt;
lastChange = "2020-07-09 01:55:21 +0000";
layers = (
{
anchors = (
{
name = top;
position = "{350, 600}";
}
);
layerId = "5472B35A-B7AE-4E4F-A6B1-630A6CFD37FC";
paths = (
{
closed = 1;
nodes = (
"650 455 LINE SMOOTH",
"650 543 OFFCURVE",
"590 600 OFFCURVE",
"500 600 CURVE SMOOTH",
"200 600 LINE SMOOTH",
"110 600 OFFCURVE",
"50 543 OFFCURVE",
"50 455 CURVE SMOOTH",
"50 0 LINE",
"150 0 LINE",
"150 455 LINE SMOOTH",
"150 494 OFFCURVE",
"166 510 OFFCURVE",
"200 510 CURVE SMOOTH",
"500 510 LINE SMOOTH",
"534 510 OFFCURVE",
"550 494 OFFCURVE",
"550 455 CURVE SMOOTH",
"550 0 LINE",
"650 0 LINE"
);
},
{
closed = 1;
nodes = (
"100 300 LINE",
"100 210 LINE",
"600 210 LINE",
"600 300 LINE"
);
}
);
width = 700;
},
{
anchors = (
{
name = top;
position = "{350, 600}";
}
);
layerId = "A262DCEF-80AC-4544-820F-6C74D2F82537";
paths = (
{
closed = 1;
nodes = (
"620 485 LINE SMOOTH",
"620 556 OFFCURVE",
"574 600 OFFCURVE",
"500 600 CURVE SMOOTH",
"200 600 LINE SMOOTH",
"126 600 OFFCURVE",
"80 556 OFFCURVE",
"80 485 CURVE SMOOTH",
"80 0 LINE",
"120 0 LINE",
"120 485 LINE SMOOTH",
"120 540 OFFCURVE",
"148 570 OFFCURVE",
"200 570 CURVE SMOOTH",
"500 570 LINE SMOOTH",
"552 570 OFFCURVE",
"580 540 OFFCURVE",
"580 485 CURVE SMOOTH",
"580 0 LINE",
"620 0 LINE"
);
},
{
closed = 1;
nodes = (
"100 290 LINE",
"100 260 LINE",
"600 260 LINE",
"600 290 LINE"
);
}
);
width = 700;
},
{
anchors = (
{
name = top;
position = "{350, 600}";
}
);
layerId = "A8E52AE2-2A6A-4CD2-B761-065329444C15";
paths = (
{
closed = 1;
nodes = (
"670 440 LINE SMOOTH",
"670 537 OFFCURVE",
"601 600 OFFCURVE",
"500 600 CURVE SMOOTH",
"200 600 LINE SMOOTH",
"99 600 OFFCURVE",
"30 537 OFFCURVE",
"30 440 CURVE SMOOTH",
"30 0 LINE",
"170 0 LINE",
"170 440 LINE SMOOTH",
"170 473 OFFCURVE",
"178 480 OFFCURVE",
"200 480 CURVE SMOOTH",
"500 480 LINE SMOOTH",
"522 480 OFFCURVE",
"530 473 OFFCURVE",
"530 440 CURVE SMOOTH",
"530 0 LINE",
"670 0 LINE"
);
},
{
closed = 1;
nodes = (
"100 315 LINE",
"100 195 LINE",
"600 195 LINE",
"600 315 LINE"
);
}
);
width = 700;
}
);
},
{
color = 1;
glyphname = M.salt;
lastChange = "2020-07-09 02:05:22 +0000";
layers = (
{
layerId = "5472B35A-B7AE-4E4F-A6B1-630A6CFD37FC";
paths = (
{
closed = 1;
nodes = (
"747 600 LINE",
"667 600 LINE SMOOTH",
"645 600 OFFCURVE",
"623 591 OFFCURVE",
"608 574 CURVE SMOOTH",
"381 318 LINE",
"419 318 LINE",
"192 574 LINE SMOOTH",
"177 591 OFFCURVE",
"155 600 OFFCURVE",
"133 600 CURVE SMOOTH",
"53 600 LINE",
"50 0 LINE",
"150 0 LINE",
"153 510 LINE",
"145 510 LINE SMOOTH",
"132 510 OFFCURVE",
"138 492 OFFCURVE",
"145 484 CURVE SMOOTH",
"349 254 LINE SMOOTH",
"361 240 OFFCURVE",
"382 234 OFFCURVE",
"400 234 CURVE SMOOTH",
"418 234 OFFCURVE",
"439 240 OFFCURVE",
"451 254 CURVE SMOOTH",
"661 491 LINE SMOOTH",
"668 498 OFFCURVE",
"670 510 OFFCURVE",
"658 510 CURVE SMOOTH",
"647 510 LINE",
"650 0 LINE",
"750 0 LINE"
);
}
);
width = 800;
},
{
layerId = "A262DCEF-80AC-4544-820F-6C74D2F82537";
paths = (
{
closed = 1;
nodes = (
"717 570 LINE",
"667 570 LINE SMOOTH",
"653 570 OFFCURVE",
"639 565 OFFCURVE",
"629 553 CURVE",
"396 290 LINE",
"405 290 LINE",
"171 553 LINE SMOOTH",
"161 565 OFFCURVE",
"147 570 OFFCURVE",
"133 570 CURVE SMOOTH",
"83 570 LINE",
"80 0 LINE",
"120 0 LINE",
"123 540 LINE",
"133 540 LINE SMOOTH",
"134 540 OFFCURVE",
"134 540 OFFCURVE",
"141 533 CURVE SMOOTH",
"370 275 LINE SMOOTH",
"377 268 OFFCURVE",
"389 264 OFFCURVE",
"400 264 CURVE SMOOTH",
"411 264 OFFCURVE",
"423 268 OFFCURVE",
"430 275 CURVE SMOOTH",
"659 533 LINE SMOOTH",
"666 540 OFFCURVE",
"666 540 OFFCURVE",
"667 540 CURVE SMOOTH",
"677 540 LINE",
"680 0 LINE",
"720 0 LINE"
);
}
);
width = 800;
},
{
layerId = "A8E52AE2-2A6A-4CD2-B761-065329444C15";
paths = (
{
closed = 1;
nodes = (
"767 600 LINE",
"667 600 LINE SMOOTH",
"640 600 OFFCURVE",
"613 589 OFFCURVE",
"594 569 CURVE SMOOTH",
"376 325 LINE",
"424 325 LINE",
"206 569 LINE SMOOTH",
"187 589 OFFCURVE",
"160 600 OFFCURVE",
"133 600 CURVE SMOOTH",
"33 600 LINE",
"30 0 LINE",
"170 0 LINE",
"173 480 LINE",
"157 480 LINE SMOOTH",
"133 480 OFFCURVE",
"135 454 OFFCURVE",
"149 438 CURVE SMOOTH",
"335 229 LINE SMOOTH",
"350 213 OFFCURVE",
"378 204 OFFCURVE",
"400 204 CURVE SMOOTH",
"422 204 OFFCURVE",
"450 213 OFFCURVE",
"465 229 CURVE SMOOTH",
"646 432 LINE SMOOTH",
"665 454 OFFCURVE",
"665 480 OFFCURVE",
"652 480 CURVE SMOOTH",
"627 480 LINE",
"630 0 LINE",
"770 0 LINE"
);
}
);
width = 800;
}
);
},
{
color = 6;
export = 0;
glyphname = A.fwid;
lastChange = "2020-07-08 22:02:05 +0000";
layers = (
{
layerId = "5472B35A-B7AE-4E4F-A6B1-630A6CFD37FC";
paths = (
{
closed = 0;
nodes = (
"170 198 LINE",
"530 198 LINE"
);
},
{
closed = 0;
nodes = (
"600 0 LINE",
"600 25 LINE SMOOTH",
"600 66 OFFCURVE",
"599 80 OFFCURVE",
"559 164 CURVE SMOOTH",
"389 522 LINE SMOOTH",
"379 544 OFFCURVE",
"364 555 OFFCURVE",
"350 555 CURVE SMOOTH",
"336 555 OFFCURVE",
"322 544 OFFCURVE",
"311 522 CURVE SMOOTH",
"141 164 LINE SMOOTH",
"106 90 OFFCURVE",
"100 64 OFFCURVE",
"100 25 CURVE SMOOTH",
"100 0 LINE"
);
}
);
width = 700;
},
{
layerId = "A262DCEF-80AC-4544-820F-6C74D2F82537";
paths = (
{
closed = 0;
nodes = (
"170 198 LINE",
"530 198 LINE"
);
},
{
closed = 0;
nodes = (
"600 0 LINE",
"600 25 LINE SMOOTH",
"600 66 OFFCURVE",
"599 80 OFFCURVE",
"559 164 CURVE SMOOTH",
"389 522 LINE SMOOTH",
"379 544 OFFCURVE",
"364 555 OFFCURVE",
"350 555 CURVE SMOOTH",
"336 555 OFFCURVE",
"322 544 OFFCURVE",
"311 522 CURVE SMOOTH",
"141 164 LINE SMOOTH",
"106 90 OFFCURVE",
"100 64 OFFCURVE",
"100 25 CURVE SMOOTH",
"100 0 LINE"
);
}
);
width = 700;
},
{
layerId = "A8E52AE2-2A6A-4CD2-B761-065329444C15";
paths = (
{
closed = 0;
nodes = (
"170 198 LINE",
"530 198 LINE"
);
},
{
closed = 0;
nodes = (
"600 0 LINE",
"600 25 LINE SMOOTH",
"600 66 OFFCURVE",
"599 80 OFFCURVE",
"559 164 CURVE SMOOTH",
"389 522 LINE SMOOTH",
"379 544 OFFCURVE",
"364 555 OFFCURVE",
"350 555 CURVE SMOOTH",
"336 555 OFFCURVE",
"322 544 OFFCURVE",
"311 522 CURVE SMOOTH",
"141 164 LINE SMOOTH",
"106 90 OFFCURVE",
"100 64 OFFCURVE",
"100 25 CURVE SMOOTH",
"100 0 LINE"
);
}
);
width = 700;
}
);
},
{
color = 6;
export = 0;
glyphname = B.fwid;
lastChange = "2020-07-08 22:02:05 +0000";
layers = (
{
layerId = "5472B35A-B7AE-4E4F-A6B1-630A6CFD37FC";
paths = (
{
closed = 1;
nodes = (
"100 555 LINE",
"475 555 LINE",
"550 555 OFFCURVE",
"575 505 OFFCURVE",
"575 455 CURVE SMOOTH",
"575 405 LINE SMOOTH",
"575 355 OFFCURVE",
"550 305 OFFCURVE",
"475 305 CURVE",
"100 305 LINE"
);
},
{
closed = 0;
nodes = (
"100 305 LINE",
"100 45 LINE",
"500 45 LINE",
"575 45 OFFCURVE",
"600 95 OFFCURVE",
"600 145 CURVE SMOOTH",
"600 205 LINE SMOOTH",
"600 255 OFFCURVE",
"550 305 OFFCURVE",
"500 305 CURVE SMOOTH",
"426 305 LINE"
);
}
);
width = 700;
},
{
layerId = "A262DCEF-80AC-4544-820F-6C74D2F82537";
paths = (
{
closed = 1;
nodes = (
"100 555 LINE",
"475 555 LINE",
"550 555 OFFCURVE",
"575 505 OFFCURVE",
"575 455 CURVE SMOOTH",
"575 405 LINE SMOOTH",
"575 355 OFFCURVE",
"550 305 OFFCURVE",
"475 305 CURVE",
"100 305 LINE"
);
},
{
closed = 0;
nodes = (
"100 305 LINE",
"100 45 LINE",
"500 45 LINE",
"575 45 OFFCURVE",
"600 95 OFFCURVE",
"600 145 CURVE SMOOTH",
"600 205 LINE SMOOTH",
"600 255 OFFCURVE",
"550 305 OFFCURVE",
"500 305 CURVE SMOOTH",
"426 305 LINE"
);
}
);
width = 700;
},
{
layerId = "A8E52AE2-2A6A-4CD2-B761-065329444C15";
paths = (
{
closed = 1;
nodes = (
"100 555 LINE",
"475 555 LINE",
"550 555 OFFCURVE",
"575 505 OFFCURVE",
"575 455 CURVE SMOOTH",
"575 405 LINE SMOOTH",
"575 355 OFFCURVE",
"550 305 OFFCURVE",
"475 305 CURVE",
"100 305 LINE"
);
},
{
closed = 0;
nodes = (
"100 305 LINE",
"100 45 LINE",
"500 45 LINE",
"575 45 OFFCURVE",
"600 95 OFFCURVE",
"600 145 CURVE SMOOTH",
"600 205 LINE SMOOTH",
"600 255 OFFCURVE",
"550 305 OFFCURVE",
"500 305 CURVE SMOOTH",
"426 305 LINE"
);
}
);
width = 700;
}
);
},
{
color = 6;
export = 0;
glyphname = C.fwid;
lastChange = "2020-07-08 22:02:05 +0000";
layers = (
{
layerId = "5472B35A-B7AE-4E4F-A6B1-630A6CFD37FC";
paths = (
{
closed = 0;
nodes = (
"600 170 LINE",
"600 145 LINE SMOOTH",
"600 95 OFFCURVE",
"575 45 OFFCURVE",
"500 45 CURVE",
"200 45 LINE",
"125 45 OFFCURVE",
"100 95 OFFCURVE",
"100 145 CURVE",
"100 455 LINE",
"100 505 OFFCURVE",
"125 555 OFFCURVE",
"200 555 CURVE",
"500 555 LINE",
"575 555 OFFCURVE",
"600 505 OFFCURVE",
"600 455 CURVE SMOOTH",
"600 430 LINE"
);
}
);
width = 700;
},
{
layerId = "A262DCEF-80AC-4544-820F-6C74D2F82537";
paths = (
{
closed = 0;
nodes = (
"600 170 LINE",
"600 145 LINE SMOOTH",
"600 95 OFFCURVE",
"575 45 OFFCURVE",
"500 45 CURVE",
"200 45 LINE",
"125 45 OFFCURVE",
"100 95 OFFCURVE",
"100 145 CURVE",
"100 455 LINE",
"100 505 OFFCURVE",
"125 555 OFFCURVE",
"200 555 CURVE",
"500 555 LINE",
"575 555 OFFCURVE",
"600 505 OFFCURVE",
"600 455 CURVE SMOOTH",
"600 430 LINE"
);
}
);
width = 700;
},
{
layerId = "A8E52AE2-2A6A-4CD2-B761-065329444C15";
paths = (
{
closed = 0;
nodes = (
"600 170 LINE",
"600 145 LINE SMOOTH",
"600 95 OFFCURVE",
"575 45 OFFCURVE",
"500 45 CURVE",
"200 45 LINE",
"125 45 OFFCURVE",
"100 95 OFFCURVE",
"100 145 CURVE",
"100 455 LINE",
"100 505 OFFCURVE",
"125 555 OFFCURVE",
"200 555 CURVE",
"500 555 LINE",
"575 555 OFFCURVE",
"600 505 OFFCURVE",
"600 455 CURVE SMOOTH",
"600 430 LINE"
);
}
);
width = 700;
}
);
},
{
color = 6;
export = 0;
glyphname = D.fwid;
lastChange = "2020-07-08 22:02:05 +0000";
layers = (
{
layerId = "5472B35A-B7AE-4E4F-A6B1-630A6CFD37FC";
paths = (
{
closed = 1;
nodes = (
"600 145 LINE SMOOTH",
"600 95 OFFCURVE",
"575 45 OFFCURVE",
"500 45 CURVE",
"100 45 LINE",
"100 555 LINE",
"500 555 LINE",
"575 555 OFFCURVE",
"600 505 OFFCURVE",
"600 455 CURVE SMOOTH"
);
}
);
width = 700;
},
{
layerId = "A262DCEF-80AC-4544-820F-6C74D2F82537";
paths = (
{
closed = 1;
nodes = (
"600 145 LINE SMOOTH",
"600 95 OFFCURVE",
"575 45 OFFCURVE",
"500 45 CURVE",
"100 45 LINE",
"100 555 LINE",
"500 555 LINE",
"575 555 OFFCURVE",
"600 505 OFFCURVE",
"600 455 CURVE SMOOTH"
);
}
);
width = 700;
},
{
layerId = "A8E52AE2-2A6A-4CD2-B761-065329444C15";
paths = (
{
closed = 1;
nodes = (
"600 145 LINE SMOOTH",
"600 95 OFFCURVE",
"575 45 OFFCURVE",
"500 45 CURVE",
"100 45 LINE",
"100 555 LINE",
"500 555 LINE",
"575 555 OFFCURVE",
"600 505 OFFCURVE",
"600 455 CURVE SMOOTH"
);
}
);
width = 700;
}
);
},
{
color = 6;
export = 0;
glyphname = E.fwid;
lastChange = "2020-07-08 22:02:05 +0000";
layers = (
{
layerId = "5472B35A-B7AE-4E4F-A6B1-630A6CFD37FC";
paths = (
{
closed = 0;
nodes = (
"650 555 LINE",
"200 555 LINE",
"125 555 OFFCURVE",
"100 505 OFFCURVE",
"100 455 CURVE",
"100 145 LINE",
"100 95 OFFCURVE",
"125 45 OFFCURVE",
"200 45 CURVE",
"650 45 LINE"
);
},
{
closed = 0;
nodes = (
"100 300 LINE",
"600 300 LINE"
);
}
);
width = 700;
},
{
layerId = "A262DCEF-80AC-4544-820F-6C74D2F82537";
paths = (
{
closed = 0;
nodes = (
"650 555 LINE",
"200 555 LINE",
"125 555 OFFCURVE",
"100 505 OFFCURVE",
"100 455 CURVE",
"100 145 LINE",
"100 95 OFFCURVE",
"125 45 OFFCURVE",
"200 45 CURVE",
"650 45 LINE"
);
},
{
closed = 0;
nodes = (
"100 300 LINE",
"600 300 LINE"
);
}
);
width = 700;
},
{
layerId = "A8E52AE2-2A6A-4CD2-B761-065329444C15";
paths = (
{
closed = 0;
nodes = (
"650 555 LINE",
"200 555 LINE",
"125 555 OFFCURVE",
"100 505 OFFCURVE",
"100 455 CURVE",
"100 145 LINE",
"100 95 OFFCURVE",
"125 45 OFFCURVE",
"200 45 CURVE",
"650 45 LINE"
);
},
{
closed = 0;
nodes = (
"100 300 LINE",
"600 300 LINE"
);
}
);
width = 700;
}
);
},
{
color = 6;
export = 0;
glyphname = F.fwid;
lastChange = "2020-07-08 22:02:05 +0000";
layers = (
{
layerId = "5472B35A-B7AE-4E4F-A6B1-630A6CFD37FC";
paths = (
{
closed = 0;
nodes = (
"100 0 LINE",
"100 455 LINE",
"100 505 OFFCURVE",
"125 555 OFFCURVE",
"200 555 CURVE",
"650 555 LINE"
);
},
{
closed = 0;
nodes = (
"100 250 LINE",
"600 250 LINE"
);
}
);
width = 700;
},
{
layerId = "A262DCEF-80AC-4544-820F-6C74D2F82537";
paths = (
{
closed = 0;
nodes = (
"100 0 LINE",
"100 455 LINE",
"100 505 OFFCURVE",
"125 555 OFFCURVE",
"200 555 CURVE",
"650 555 LINE"
);
},
{
closed = 0;
nodes = (
"100 250 LINE",
"600 250 LINE"
);
}
);
width = 700;
},
{
layerId = "A8E52AE2-2A6A-4CD2-B761-065329444C15";
paths = (
{
closed = 0;
nodes = (
"100 0 LINE",
"100 455 LINE",
"100 505 OFFCURVE",
"125 555 OFFCURVE",
"200 555 CURVE",
"650 555 LINE"
);
},
{
closed = 0;
nodes = (
"100 250 LINE",
"600 250 LINE"
);
}
);
width = 700;
}
);
},
{
color = 6;
export = 0;
glyphname = I.fwid;
lastChange = "2020-07-08 22:02:05 +0000";
layers = (
{
layerId = "5472B35A-B7AE-4E4F-A6B1-630A6CFD37FC";
paths = (
{
closed = 0;
nodes = (
"350 555 LINE",
"350 45 LINE"
);
},
{
closed = 0;
nodes = (
"200 45 LINE",
"500 45 LINE"
);
},
{
closed = 0;
nodes = (
"200 555 LINE",
"500 555 LINE"
);
}
);
width = 700;
},
{
layerId = "A262DCEF-80AC-4544-820F-6C74D2F82537";
paths = (
{
closed = 0;
nodes = (
"350 555 LINE",
"350 45 LINE"
);
},
{
closed = 0;
nodes = (
"200 45 LINE",
"500 45 LINE"
);
},
{
closed = 0;
nodes = (
"200 555 LINE",
"500 555 LINE"
);
}
);
width = 700;
},
{
layerId = "A8E52AE2-2A6A-4CD2-B761-065329444C15";
paths = (
{
closed = 0;
nodes = (
"350 555 LINE",
"350 45 LINE"
);
},
{
closed = 0;
nodes = (
"200 45 LINE",
"500 45 LINE"
);
},
{
closed = 0;
nodes = (
"200 555 LINE",
"500 555 LINE"
);
}
);
width = 700;
}
);
},
{
color = 6;
export = 0;
glyphname = J.fwid;
lastChange = "2020-07-08 22:02:05 +0000";
layers = (
{
layerId = "5472B35A-B7AE-4E4F-A6B1-630A6CFD37FC";
paths = (
{
closed = 0;
nodes = (
"600 600 LINE",
"600 145 LINE",
"600 95 OFFCURVE",
"575 45 OFFCURVE",
"500 45 CURVE",
"200 45 LINE",
"125 45 OFFCURVE",
"100 95 OFFCURVE",
"100 145 CURVE SMOOTH",
"100 225 LINE"
);
}
);
width = 700;
},
{
layerId = "A262DCEF-80AC-4544-820F-6C74D2F82537";
paths = (
{
closed = 0;
nodes = (
"600 600 LINE",
"600 145 LINE",
"600 95 OFFCURVE",
"575 45 OFFCURVE",
"500 45 CURVE",
"200 45 LINE",
"125 45 OFFCURVE",
"100 95 OFFCURVE",
"100 145 CURVE SMOOTH",
"100 225 LINE"
);
}
);
width = 700;
},
{
layerId = "A8E52AE2-2A6A-4CD2-B761-065329444C15";
paths = (
{
closed = 0;
nodes = (
"600 600 LINE",
"600 145 LINE",
"600 95 OFFCURVE",
"575 45 OFFCURVE",
"500 45 CURVE",
"200 45 LINE",
"125 45 OFFCURVE",
"100 95 OFFCURVE",
"100 145 CURVE SMOOTH",
"100 225 LINE"
);
}
);
width = 700;
}
);
},
{
color = 6;
export = 0;
glyphname = L.fwid;
lastChange = "2020-07-08 22:02:05 +0000";
layers = (
{
layerId = "5472B35A-B7AE-4E4F-A6B1-630A6CFD37FC";
paths = (
{
closed = 0;
nodes = (
"650 45 LINE",
"200 45 LINE",
"125 45 OFFCURVE",
"100 95 OFFCURVE",
"100 145 CURVE",
"100 600 LINE"
);
}
);
width = 700;
},
{
layerId = "A262DCEF-80AC-4544-820F-6C74D2F82537";
paths = (
{
closed = 0;
nodes = (
"650 45 LINE",
"200 45 LINE",
"125 45 OFFCURVE",
"100 95 OFFCURVE",
"100 145 CURVE",
"100 600 LINE"
);
}
);
width = 700;
},
{
layerId = "A8E52AE2-2A6A-4CD2-B761-065329444C15";
paths = (
{
closed = 0;
nodes = (
"650 45 LINE",
"200 45 LINE",
"125 45 OFFCURVE",
"100 95 OFFCURVE",
"100 145 CURVE",
"100 600 LINE"
);
}
);
width = 700;
}
);
},
{
color = 6;
export = 0;
glyphname = M.fwid;
lastChange = "2020-07-08 22:02:05 +0000";
layers = (
{
layerId = "5472B35A-B7AE-4E4F-A6B1-630A6CFD37FC";
paths = (
{
closed = 0;
nodes = (
"100 0 LINE",
"100 523 LINE SMOOTH",
"100 554 OFFCURVE",
"137 567 OFFCURVE",
"154 542 CURVE SMOOTH",
"334 266 LINE SMOOTH",
"341 255 OFFCURVE",
"359 255 OFFCURVE",
"366 266 CURVE SMOOTH",
"546 542 LINE SMOOTH",
"563 567 OFFCURVE",
"600 554 OFFCURVE",
"600 523 CURVE SMOOTH",
"600 0 LINE"
);
}
);
width = 700;
},
{
layerId = "A262DCEF-80AC-4544-820F-6C74D2F82537";
paths = (
{
closed = 0;
nodes = (
"100 0 LINE",
"100 523 LINE SMOOTH",
"100 554 OFFCURVE",
"137 567 OFFCURVE",
"154 542 CURVE SMOOTH",
"334 266 LINE SMOOTH",
"341 255 OFFCURVE",
"359 255 OFFCURVE",
"366 266 CURVE SMOOTH",
"546 542 LINE SMOOTH",
"563 567 OFFCURVE",
"600 554 OFFCURVE",
"600 523 CURVE SMOOTH",
"600 0 LINE"
);
}
);
width = 700;
},
{
layerId = "A8E52AE2-2A6A-4CD2-B761-065329444C15";
paths = (
{
closed = 0;
nodes = (
"100 0 LINE",
"100 523 LINE SMOOTH",
"100 554 OFFCURVE",
"137 567 OFFCURVE",
"154 542 CURVE SMOOTH",
"334 266 LINE SMOOTH",
"341 255 OFFCURVE",
"359 255 OFFCURVE",
"366 266 CURVE SMOOTH",
"546 542 LINE SMOOTH",
"563 567 OFFCURVE",
"600 554 OFFCURVE",
"600 523 CURVE SMOOTH",
"600 0 LINE"
);
}
);
width = 700;
}
);
},
{
color = 6;
export = 0;
glyphname = P.fwid;
lastChange = "2020-07-08 22:02:05 +0000";
layers = (
{
layerId = "5472B35A-B7AE-4E4F-A6B1-630A6CFD37FC";
paths = (
{
closed = 0;
nodes = (
"100 0 LINE",
"100 555 LINE",
"500 555 LINE",
"575 555 OFFCURVE",
"600 505 OFFCURVE",
"600 455 CURVE SMOOTH",
"600 325 LINE SMOOTH",
"600 275 OFFCURVE",
"575 225 OFFCURVE",
"500 225 CURVE",
"100 225 LINE"
);
}
);
width = 700;
},
{
layerId = "A262DCEF-80AC-4544-820F-6C74D2F82537";
paths = (
{
closed = 0;
nodes = (
"100 0 LINE",
"100 555 LINE",
"500 555 LINE",
"575 555 OFFCURVE",
"600 505 OFFCURVE",
"600 455 CURVE SMOOTH",
"600 325 LINE SMOOTH",
"600 275 OFFCURVE",
"575 225 OFFCURVE",
"500 225 CURVE",
"100 225 LINE"
);
}
);
width = 700;
},
{
layerId = "A8E52AE2-2A6A-4CD2-B761-065329444C15";
paths = (
{
closed = 0;
nodes = (
"100 0 LINE",
"100 555 LINE",
"500 555 LINE",
"575 555 OFFCURVE",
"600 505 OFFCURVE",
"600 455 CURVE SMOOTH",
"600 325 LINE SMOOTH",
"600 275 OFFCURVE",
"575 225 OFFCURVE",
"500 225 CURVE",
"100 225 LINE"
);
}
);
width = 700;
}
);
},
{
color = 6;
export = 0;
glyphname = R.fwid;
lastChange = "2020-07-08 22:02:05 +0000";
layers = (
{
layerId = "5472B35A-B7AE-4E4F-A6B1-630A6CFD37FC";
paths = (
{
closed = 0;
nodes = (
"100 0 LINE",
"100 555 LINE",
"500 555 LINE",
"575 555 OFFCURVE",
"600 505 OFFCURVE",
"600 455 CURVE SMOOTH",
"600 325 LINE SMOOTH",
"600 275 OFFCURVE",
"575 225 OFFCURVE",
"500 225 CURVE",
"100 225 LINE"
);
},
{
closed = 0;
nodes = (
"350 225 LINE",
"539 67 LINE SMOOTH",
"567 44 OFFCURVE",
"593 45 OFFCURVE",
"629 45 CURVE",
"650 45 LINE"
);
}
);
width = 700;
},
{
layerId = "A262DCEF-80AC-4544-820F-6C74D2F82537";
paths = (
{
closed = 0;
nodes = (
"100 0 LINE",
"100 555 LINE",
"500 555 LINE",
"575 555 OFFCURVE",
"600 505 OFFCURVE",
"600 455 CURVE SMOOTH",
"600 325 LINE SMOOTH",
"600 275 OFFCURVE",
"575 225 OFFCURVE",
"500 225 CURVE",
"100 225 LINE"
);
},
{
closed = 0;
nodes = (
"350 225 LINE",
"539 67 LINE SMOOTH",
"567 44 OFFCURVE",
"593 45 OFFCURVE",
"629 45 CURVE",
"650 45 LINE"
);
}
);
width = 700;
},
{
layerId = "A8E52AE2-2A6A-4CD2-B761-065329444C15";
paths = (
{
closed = 0;
nodes = (
"100 0 LINE",
"100 555 LINE",
"500 555 LINE",
"575 555 OFFCURVE",
"600 505 OFFCURVE",
"600 455 CURVE SMOOTH",
"600 325 LINE SMOOTH",
"600 275 OFFCURVE",
"575 225 OFFCURVE",
"500 225 CURVE",
"100 225 LINE"
);
},
{
closed = 0;
nodes = (
"350 225 LINE",
"539 67 LINE SMOOTH",
"567 44 OFFCURVE",
"593 45 OFFCURVE",
"629 45 CURVE",
"650 45 LINE"
);
}
);
width = 700;
}
);
},
{
color = 6;
export = 0;
glyphname = W.fwid;
lastChange = "2020-07-08 22:02:05 +0000";
layers = (
{
layerId = "5472B35A-B7AE-4E4F-A6B1-630A6CFD37FC";
paths = (
{
closed = 0;
nodes = (
"600 600 LINE",
"597 77 LINE SMOOTH",
"597 46 OFFCURVE",
"560 32 OFFCURVE",
"543 58 CURVE SMOOTH",
"366 334 LINE SMOOTH",
"359 344 OFFCURVE",
"341 344 OFFCURVE",
"334 334 CURVE SMOOTH",
"157 58 LINE SMOOTH",
"140 32 OFFCURVE",
"103 46 OFFCURVE",
"103 77 CURVE SMOOTH",
"100 600 LINE"
);
}
);
width = 700;
},
{
layerId = "A262DCEF-80AC-4544-820F-6C74D2F82537";
paths = (
{
closed = 0;
nodes = (
"600 600 LINE",
"597 77 LINE SMOOTH",
"597 46 OFFCURVE",
"560 32 OFFCURVE",
"543 58 CURVE SMOOTH",
"366 334 LINE SMOOTH",
"359 344 OFFCURVE",
"341 344 OFFCURVE",
"334 334 CURVE SMOOTH",
"157 58 LINE SMOOTH",
"140 32 OFFCURVE",
"103 46 OFFCURVE",
"103 77 CURVE SMOOTH",
"100 600 LINE"
);
}
);
width = 700;
},
{
layerId = "A8E52AE2-2A6A-4CD2-B761-065329444C15";
paths = (
{
closed = 0;
nodes = (
"600 600 LINE",
"597 77 LINE SMOOTH",
"597 46 OFFCURVE",
"560 32 OFFCURVE",
"543 58 CURVE SMOOTH",
"366 334 LINE SMOOTH",
"359 344 OFFCURVE",
"341 344 OFFCURVE",
"334 334 CURVE SMOOTH",
"157 58 LINE SMOOTH",
"140 32 OFFCURVE",
"103 46 OFFCURVE",
"103 77 CURVE SMOOTH",
"100 600 LINE"
);
}
);
width = 700;
}
);
},
{
glyphname = zero;
lastChange = "2020-07-17 20:12:38 +0000";
layers = (
{
layerId = "5472B35A-B7AE-4E4F-A6B1-630A6CFD37FC";
paths = (
{
closed = 1;
nodes = (
"470 145 LINE SMOOTH",
"470 106 OFFCURVE",
"454 90 OFFCURVE",
"420 90 CURVE SMOOTH",
"200 90 LINE SMOOTH",
"166 90 OFFCURVE",
"150 106 OFFCURVE",
"150 145 CURVE SMOOTH",
"150 455 LINE SMOOTH",
"150 494 OFFCURVE",
"166 510 OFFCURVE",
"200 510 CURVE SMOOTH",
"420 510 LINE SMOOTH",
"454 510 OFFCURVE",
"470 494 OFFCURVE",
"470 455 CURVE SMOOTH"
);
},
{
closed = 1;
nodes = (
"570 543 OFFCURVE",
"510 600 OFFCURVE",
"420 600 CURVE SMOOTH",
"200 600 LINE SMOOTH",
"110 600 OFFCURVE",
"50 543 OFFCURVE",
"50 455 CURVE SMOOTH",
"50 145 LINE SMOOTH",
"50 57 OFFCURVE",
"110 0 OFFCURVE",
"200 0 CURVE SMOOTH",
"420 0 LINE SMOOTH",
"510 0 OFFCURVE",
"570 57 OFFCURVE",
"570 145 CURVE SMOOTH",
"570 455 LINE SMOOTH"
);
}
);
width = 620;
},
{
layerId = "A262DCEF-80AC-4544-820F-6C74D2F82537";
paths = (
{
closed = 1;
nodes = (
"500 115 LINE SMOOTH",
"500 60 OFFCURVE",
"472 30 OFFCURVE",
"420 30 CURVE SMOOTH",
"200 30 LINE SMOOTH",
"148 30 OFFCURVE",
"120 60 OFFCURVE",
"120 115 CURVE SMOOTH",
"120 485 LINE SMOOTH",
"120 540 OFFCURVE",
"148 570 OFFCURVE",
"200 570 CURVE SMOOTH",
"420 570 LINE SMOOTH",
"472 570 OFFCURVE",
"500 540 OFFCURVE",
"500 485 CURVE SMOOTH"
);
},
{
closed = 1;
nodes = (
"540 556 OFFCURVE",
"494 600 OFFCURVE",
"420 600 CURVE SMOOTH",
"200 600 LINE SMOOTH",
"126 600 OFFCURVE",
"80 556 OFFCURVE",
"80 485 CURVE SMOOTH",
"80 115 LINE SMOOTH",
"80 44 OFFCURVE",
"126 0 OFFCURVE",
"200 0 CURVE SMOOTH",
"420 0 LINE SMOOTH",
"494 0 OFFCURVE",
"540 44 OFFCURVE",
"540 115 CURVE SMOOTH",
"540 485 LINE SMOOTH"
);
}
);
width = 620;
},
{
layerId = "A8E52AE2-2A6A-4CD2-B761-065329444C15";
paths = (
{
closed = 1;
nodes = (
"450 160 LINE SMOOTH",
"450 127 OFFCURVE",
"442 120 OFFCURVE",
"420 120 CURVE SMOOTH",
"200 120 LINE SMOOTH",
"178 120 OFFCURVE",
"170 127 OFFCURVE",
"170 160 CURVE SMOOTH",
"170 440 LINE SMOOTH",
"170 473 OFFCURVE",
"178 480 OFFCURVE",
"200 480 CURVE SMOOTH",
"420 480 LINE SMOOTH",
"442 480 OFFCURVE",
"450 473 OFFCURVE",
"450 440 CURVE SMOOTH"
);
},
{
closed = 1;
nodes = (
"590 537 OFFCURVE",
"521 600 OFFCURVE",
"420 600 CURVE SMOOTH",
"200 600 LINE SMOOTH",
"99 600 OFFCURVE",
"30 537 OFFCURVE",
"30 440 CURVE SMOOTH",
"30 160 LINE SMOOTH",
"30 63 OFFCURVE",
"99 0 OFFCURVE",
"200 0 CURVE SMOOTH",
"420 0 LINE SMOOTH",
"521 0 OFFCURVE",
"590 63 OFFCURVE",
"590 160 CURVE SMOOTH",
"590 440 LINE SMOOTH"
);
}
);
width = 620;
}
);
unicode = 0030;
},
{
glyphname = one;
lastChange = "2020-07-08 22:11:09 +0000";
layers = (
{
layerId = "5472B35A-B7AE-4E4F-A6B1-630A6CFD37FC";
paths = (
{
closed = 1;
nodes = (
"90 510 LINE SMOOTH",
"124 510 OFFCURVE",
"140 494 OFFCURVE",
"140 455 CURVE SMOOTH",
"140 0 LINE",
"240 0 LINE",
"240 455 LINE SMOOTH",
"240 543 OFFCURVE",
"180 600 OFFCURVE",
"90 600 CURVE SMOOTH",
"30 600 LINE",
"30 510 LINE"
);
}
);
width = 310;
},
{
layerId = "A262DCEF-80AC-4544-820F-6C74D2F82537";
paths = (
{
closed = 1;
nodes = (
"90 568 LINE SMOOTH",
"142 568 OFFCURVE",
"170 538 OFFCURVE",
"170 483 CURVE SMOOTH",
"170 0 LINE",
"210 0 LINE",
"210 483 LINE SMOOTH",
"210 554 OFFCURVE",
"164 598 OFFCURVE",
"90 598 CURVE SMOOTH",
"60 598 LINE",
"60 568 LINE"
);
}
);
width = 310;
},
{
layerId = "A8E52AE2-2A6A-4CD2-B761-065329444C15";
paths = (
{
closed = 1;
nodes = (
"90 480 LINE SMOOTH",
"112 480 OFFCURVE",
"120 473 OFFCURVE",
"120 440 CURVE SMOOTH",
"120 0 LINE",
"260 0 LINE",
"260 440 LINE SMOOTH",
"260 537 OFFCURVE",
"191 600 OFFCURVE",
"90 600 CURVE SMOOTH",
"15 600 LINE",
"15 480 LINE"
);
}
);
width = 310;
}
);
unicode = 0031;
},
{
glyphname = two;
lastChange = "2020-07-08 22:11:09 +0000";
layers = (
{
layerId = "5472B35A-B7AE-4E4F-A6B1-630A6CFD37FC";
paths = (
{
closed = 1;
nodes = (
"150 494 OFFCURVE",
"166 510 OFFCURVE",
"200 510 CURVE SMOOTH",
"380 510 LINE SMOOTH",
"414 510 OFFCURVE",
"430 494 OFFCURVE",
"430 455 CURVE SMOOTH",
"430 390 LINE SMOOTH",
"430 363 OFFCURVE",
"420 351 OFFCURVE",
"364 333 CURVE SMOOTH",
"184 273 LINE SMOOTH",
"91 242 OFFCURVE",
"50 201 OFFCURVE",
"50 130 CURVE SMOOTH",
"50 0 LINE",
"530 0 LINE",
"530 90 LINE",
"150 90 LINE",
"150 130 LINE SMOOTH",
"150 157 OFFCURVE",
"160 169 OFFCURVE",
"216 187 CURVE SMOOTH",
"396 247 LINE SMOOTH",
"489 278 OFFCURVE",
"530 319 OFFCURVE",
"530 390 CURVE SMOOTH",
"530 455 LINE SMOOTH",
"530 543 OFFCURVE",
"470 600 OFFCURVE",
"380 600 CURVE SMOOTH",
"200 600 LINE SMOOTH",
"110 600 OFFCURVE",
"50 543 OFFCURVE",
"50 455 CURVE",
"150 455 LINE"
);
}
);
width = 580;
},
{
layerId = "A262DCEF-80AC-4544-820F-6C74D2F82537";
paths = (
{
closed = 1;
nodes = (
"120 540 OFFCURVE",
"148 570 OFFCURVE",
"200 570 CURVE SMOOTH",
"380 570 LINE SMOOTH",
"432 570 OFFCURVE",
"460 540 OFFCURVE",
"460 485 CURVE SMOOTH",
"460 390 LINE SMOOTH",
"460 347 OFFCURVE",
"439 326 OFFCURVE",
"374 304 CURVE SMOOTH",
"194 244 LINE SMOOTH",
"112 217 OFFCURVE",
"80 186 OFFCURVE",
"80 130 CURVE SMOOTH",
"80 0 LINE",
"500 0 LINE",
"500 30 LINE",
"120 30 LINE",
"120 130 LINE SMOOTH",
"120 173 OFFCURVE",
"141 194 OFFCURVE",
"206 216 CURVE SMOOTH",
"386 276 LINE SMOOTH",
"468 303 OFFCURVE",
"500 334 OFFCURVE",
"500 390 CURVE SMOOTH",
"500 485 LINE SMOOTH",
"500 556 OFFCURVE",
"454 600 OFFCURVE",
"380 600 CURVE SMOOTH",
"200 600 LINE SMOOTH",
"126 600 OFFCURVE",
"80 556 OFFCURVE",
"80 485 CURVE",
"120 485 LINE"
);
}
);
width = 580;
},
{
layerId = "A8E52AE2-2A6A-4CD2-B761-065329444C15";
paths = (
{
closed = 1;
nodes = (
"170 473 OFFCURVE",
"178 480 OFFCURVE",
"200 480 CURVE SMOOTH",
"380 480 LINE SMOOTH",
"402 480 OFFCURVE",
"410 473 OFFCURVE",
"410 440 CURVE SMOOTH",
"410 390 LINE SMOOTH",
"410 369 OFFCURVE",
"407 363 OFFCURVE",
"358 347 CURVE SMOOTH",
"178 287 LINE SMOOTH",
"79 255 OFFCURVE",
"30 210 OFFCURVE",
"30 130 CURVE SMOOTH",
"30 0 LINE",
"545 0 LINE",
"545 120 LINE",
"170 120 LINE",
"170 130 LINE SMOOTH",
"170 151 OFFCURVE",
"173 157 OFFCURVE",
"222 173 CURVE SMOOTH",
"402 233 LINE SMOOTH",
"501 265 OFFCURVE",
"550 310 OFFCURVE",
"550 390 CURVE SMOOTH",
"550 440 LINE SMOOTH",
"550 537 OFFCURVE",
"481 600 OFFCURVE",
"380 600 CURVE SMOOTH",
"200 600 LINE SMOOTH",
"99 600 OFFCURVE",
"30 537 OFFCURVE",
"30 440 CURVE",
"170 440 LINE"
);
}
);
width = 580;
}
);
unicode = 0032;
},
{
glyphname = three;
lastChange = "2020-07-08 22:11:09 +0000";
layers = (
{
layerId = "5472B35A-B7AE-4E4F-A6B1-630A6CFD37FC";
paths = (
{
closed = 1;
nodes = (
"155 455 LINE SMOOTH",
"155 494 OFFCURVE",
"171 510 OFFCURVE",
"205 510 CURVE SMOOTH",
"391 510 LINE SMOOTH",
"425 510 OFFCURVE",
"441 494 OFFCURVE",
"441 455 CURVE SMOOTH",
"441 403 LINE SMOOTH",
"441 364 OFFCURVE",
"425 348 OFFCURVE",
"391 348 CURVE",
"391 258 LINE",
"481 258 OFFCURVE",
"541 315 OFFCURVE",
"541 403 CURVE SMOOTH",
"541 455 LINE SMOOTH",
"541 543 OFFCURVE",
"481 600 OFFCURVE",
"391 600 CURVE SMOOTH",
"205 600 LINE SMOOTH",
"115 600 OFFCURVE",
"55 543 OFFCURVE",
"55 455 CURVE SMOOTH",
"55 430 LINE",
"155 430 LINE"
);
},
{
closed = 1;
nodes = (
"50 145 LINE SMOOTH",
"50 57 OFFCURVE",
"110 0 OFFCURVE",
"200 0 CURVE SMOOTH",
"400 0 LINE SMOOTH",
"490 0 OFFCURVE",
"550 57 OFFCURVE",
"550 145 CURVE SMOOTH",
"550 203 LINE SMOOTH",
"550 291 OFFCURVE",
"490 348 OFFCURVE",
"400 348 CURVE SMOOTH",
"295 348 LINE",
"295 258 LINE",
"400 258 LINE SMOOTH",
"434 258 OFFCURVE",
"450 242 OFFCURVE",
"450 203 CURVE SMOOTH",
"450 145 LINE SMOOTH",
"450 106 OFFCURVE",
"434 90 OFFCURVE",
"400 90 CURVE SMOOTH",
"200 90 LINE SMOOTH",
"166 90 OFFCURVE",
"150 106 OFFCURVE",
"150 145 CURVE SMOOTH",
"150 170 LINE",
"50 170 LINE"
);
}
);
width = 600;
},
{
layerId = "A262DCEF-80AC-4544-820F-6C74D2F82537";
paths = (
{
closed = 1;
nodes = (
"125 485 LINE SMOOTH",
"125 540 OFFCURVE",
"153 570 OFFCURVE",
"205 570 CURVE SMOOTH",
"391 570 LINE SMOOTH",
"443 570 OFFCURVE",
"471 540 OFFCURVE",
"471 485 CURVE SMOOTH",
"471 403 LINE SMOOTH",
"471 348 OFFCURVE",
"443 318 OFFCURVE",
"391 318 CURVE",
"391 288 LINE",
"465 288 OFFCURVE",
"511 332 OFFCURVE",
"511 403 CURVE SMOOTH",
"511 485 LINE SMOOTH",
"511 556 OFFCURVE",
"465 600 OFFCURVE",
"391 600 CURVE SMOOTH",
"205 600 LINE SMOOTH",
"131 600 OFFCURVE",
"85 556 OFFCURVE",
"85 485 CURVE SMOOTH",
"85 430 LINE",
"125 430 LINE"
);
},
{
closed = 1;
nodes = (
"80 115 LINE SMOOTH",
"80 44 OFFCURVE",
"126 0 OFFCURVE",
"200 0 CURVE SMOOTH",
"400 0 LINE SMOOTH",
"474 0 OFFCURVE",
"520 44 OFFCURVE",
"520 115 CURVE SMOOTH",
"520 203 LINE SMOOTH",
"520 274 OFFCURVE",
"474 318 OFFCURVE",
"400 318 CURVE SMOOTH",
"295 318 LINE",
"295 288 LINE",
"400 288 LINE SMOOTH",
"452 288 OFFCURVE",
"480 258 OFFCURVE",
"480 203 CURVE SMOOTH",
"480 115 LINE SMOOTH",
"480 60 OFFCURVE",
"452 30 OFFCURVE",
"400 30 CURVE SMOOTH",
"200 30 LINE SMOOTH",
"148 30 OFFCURVE",
"120 60 OFFCURVE",
"120 115 CURVE SMOOTH",
"120 170 LINE",
"80 170 LINE"
);
}
);
width = 600;
},
{
layerId = "A8E52AE2-2A6A-4CD2-B761-065329444C15";
paths = (
{
closed = 1;
nodes = (
"175 440 LINE SMOOTH",
"175 473 OFFCURVE",
"183 480 OFFCURVE",
"205 480 CURVE SMOOTH",
"391 480 LINE SMOOTH",
"413 480 OFFCURVE",
"421 473 OFFCURVE",
"421 440 CURVE SMOOTH",
"421 403 LINE SMOOTH",
"421 370 OFFCURVE",
"413 363 OFFCURVE",
"391 363 CURVE",
"391 243 LINE",
"492 243 OFFCURVE",
"561 306 OFFCURVE",
"561 403 CURVE SMOOTH",
"561 440 LINE SMOOTH",
"561 537 OFFCURVE",
"492 600 OFFCURVE",
"391 600 CURVE SMOOTH",
"205 600 LINE SMOOTH",
"104 600 OFFCURVE",
"35 537 OFFCURVE",
"35 440 CURVE SMOOTH",
"35 430 LINE",
"175 430 LINE"
);
},
{
closed = 1;
nodes = (
"30 160 LINE SMOOTH",
"30 63 OFFCURVE",
"99 0 OFFCURVE",
"200 0 CURVE SMOOTH",
"400 0 LINE SMOOTH",
"501 0 OFFCURVE",
"570 63 OFFCURVE",
"570 160 CURVE SMOOTH",
"570 203 LINE SMOOTH",
"570 300 OFFCURVE",
"501 363 OFFCURVE",
"400 363 CURVE SMOOTH",
"295 363 LINE",
"295 243 LINE",
"400 243 LINE SMOOTH",
"422 243 OFFCURVE",
"430 236 OFFCURVE",
"430 203 CURVE SMOOTH",
"430 160 LINE SMOOTH",
"430 127 OFFCURVE",
"422 120 OFFCURVE",
"400 120 CURVE SMOOTH",
"200 120 LINE SMOOTH",
"178 120 OFFCURVE",
"170 127 OFFCURVE",
"170 160 CURVE SMOOTH",
"170 170 LINE",
"30 170 LINE"
);
}
);
width = 600;
}
);
unicode = 0033;
},
{
glyphname = four;
lastChange = "2020-07-08 22:11:09 +0000";
layers = (
{
layerId = "5472B35A-B7AE-4E4F-A6B1-630A6CFD37FC";
paths = (
{
closed = 1;
nodes = (
"490 517 LINE SMOOTH",
"490 564 OFFCURVE",
"451 601 OFFCURVE",
"404 601 CURVE SMOOTH",
"380 601 OFFCURVE",
"356 591 OFFCURVE",
"341 573 CURVE SMOOTH",
"75 276 LINE SMOOTH",
"59 259 OFFCURVE",
"50 240 OFFCURVE",
"50 218 CURVE SMOOTH",
"50 172 OFFCURVE",
"90 140 OFFCURVE",
"137 140 CURVE SMOOTH",
"440 140 LINE",
"440 230 LINE",
"137 230 LINE SMOOTH",
"138 230 OFFCURVE",
"150 219 OFFCURVE",
"150 218 CURVE",
"150 219 OFFCURVE",
"148 215 OFFCURVE",
"149 216 CURVE SMOOTH",
"415 513 LINE",
"415 513 OFFCURVE",
"405 511 OFFCURVE",
"404 511 CURVE SMOOTH",
"403 511 OFFCURVE",
"390 516 OFFCURVE",
"390 517 CURVE SMOOTH",
"390 0 LINE",
"490 0 LINE"
);
}
);
width = 540;
},
{
layerId = "A262DCEF-80AC-4544-820F-6C74D2F82537";
paths = (
{
closed = 1;
nodes = (
"460 547 LINE SMOOTH",
"460 578 OFFCURVE",
"435 601 OFFCURVE",
"404 601 CURVE SMOOTH",
"389 601 OFFCURVE",
"373 594 OFFCURVE",
"363 583 CURVE SMOOTH",
"97 256 LINE SMOOTH",
"86 244 OFFCURVE",
"80 231 OFFCURVE",
"80 218 CURVE SMOOTH",
"80 190 OFFCURVE",
"105 170 OFFCURVE",
"137 170 CURVE SMOOTH",
"440 170 LINE",
"440 200 LINE",
"137 200 LINE SMOOTH",
"126 200 OFFCURVE",
"120 206 OFFCURVE",
"120 218 CURVE SMOOTH",
"120 224 OFFCURVE",
"123 231 OFFCURVE",
"127 236 CURVE SMOOTH",
"393 563 LINE SMOOTH",
"399 570 OFFCURVE",
"401 571 OFFCURVE",
"404 571 CURVE SMOOTH",
"412 571 OFFCURVE",
"420 561 OFFCURVE",
"420 547 CURVE SMOOTH",
"420 0 LINE",
"460 0 LINE"
);
}
);
width = 540;
},
{
layerId = "A8E52AE2-2A6A-4CD2-B761-065329444C15";
paths = (
{
closed = 1;
nodes = (
"510 502 LINE SMOOTH",
"510 559 OFFCURVE",
"461 601 OFFCURVE",
"404 601 CURVE SMOOTH",
"375 601 OFFCURVE",
"342 588 OFFCURVE",
"324 566 CURVE",
"58 283 LINE SMOOTH",
"41 264 OFFCURVE",
"30 243 OFFCURVE",
"30 218 CURVE SMOOTH",
"30 163 OFFCURVE",
"80 125 OFFCURVE",
"137 125 CURVE SMOOTH",
"440 125 LINE",
"440 245 LINE",
"137 245 LINE SMOOTH",
"153 245 OFFCURVE",
"170 233 OFFCURVE",
"170 218 CURVE SMOOTH",
"170 214 OFFCURVE",
"170 213 OFFCURVE",
"169 211 CURVE",
"431 489 LINE",
"428 484 OFFCURVE",
"409 481 OFFCURVE",
"404 481 CURVE SMOOTH",
"392 481 OFFCURVE",
"370 502 OFFCURVE",
"370 502 CURVE",
"370 0 LINE",
"510 0 LINE"
);
}
);
width = 540;
}
);
unicode = 0034;
},
{
glyphname = five;
lastChange = "2020-07-08 22:11:09 +0000";
layers = (
{
layerId = "5472B35A-B7AE-4E4F-A6B1-630A6CFD37FC";
paths = (
{
closed = 1;
nodes = (
"50 57 OFFCURVE",
"110 0 OFFCURVE",
"200 0 CURVE SMOOTH",
"400 0 LINE SMOOTH",
"490 0 OFFCURVE",
"550 57 OFFCURVE",
"550 145 CURVE SMOOTH",
"550 220 LINE SMOOTH",
"550 308 OFFCURVE",
"490 365 OFFCURVE",
"400 365 CURVE SMOOTH",
"205 365 LINE SMOOTH",
"171 365 OFFCURVE",
"155 381 OFFCURVE",
"155 420 CURVE SMOOTH",
"155 510 LINE",
"540 510 LINE",
"540 600 LINE",
"55 600 LINE",
"55 420 LINE SMOOTH",
"55 332 OFFCURVE",
"115 275 OFFCURVE",
"205 275 CURVE SMOOTH",
"400 275 LINE SMOOTH",
"434 275 OFFCURVE",
"450 259 OFFCURVE",
"450 220 CURVE SMOOTH",
"450 145 LINE SMOOTH",
"450 106 OFFCURVE",
"434 90 OFFCURVE",
"400 90 CURVE SMOOTH",
"200 90 LINE SMOOTH",
"166 90 OFFCURVE",
"150 106 OFFCURVE",
"150 145 CURVE",
"50 145 LINE"
);
}
);
width = 600;
},
{
layerId = "A262DCEF-80AC-4544-820F-6C74D2F82537";
paths = (
{
closed = 1;
nodes = (
"80 44 OFFCURVE",
"126 0 OFFCURVE",
"200 0 CURVE SMOOTH",
"400 0 LINE SMOOTH",
"474 0 OFFCURVE",
"520 44 OFFCURVE",
"520 115 CURVE SMOOTH",
"520 220 LINE SMOOTH",
"520 291 OFFCURVE",
"474 335 OFFCURVE",
"400 335 CURVE SMOOTH",
"205 335 LINE SMOOTH",
"153 335 OFFCURVE",
"125 365 OFFCURVE",
"125 420 CURVE SMOOTH",
"125 570 LINE",
"510 570 LINE",
"510 600 LINE",
"85 600 LINE",
"85 420 LINE SMOOTH",
"85 349 OFFCURVE",
"131 305 OFFCURVE",
"205 305 CURVE SMOOTH",
"400 305 LINE SMOOTH",
"452 305 OFFCURVE",
"480 275 OFFCURVE",
"480 220 CURVE SMOOTH",
"480 115 LINE SMOOTH",
"480 60 OFFCURVE",
"452 30 OFFCURVE",
"400 30 CURVE SMOOTH",
"200 30 LINE SMOOTH",
"148 30 OFFCURVE",
"120 60 OFFCURVE",
"120 115 CURVE",
"80 115 LINE"
);
}
);
width = 600;
},
{
layerId = "A8E52AE2-2A6A-4CD2-B761-065329444C15";
paths = (
{
closed = 1;
nodes = (
"30 63 OFFCURVE",
"99 0 OFFCURVE",
"200 0 CURVE SMOOTH",
"400 0 LINE SMOOTH",
"501 0 OFFCURVE",
"570 63 OFFCURVE",
"570 160 CURVE SMOOTH",
"570 220 LINE SMOOTH",
"570 317 OFFCURVE",
"501 380 OFFCURVE",
"400 380 CURVE SMOOTH",
"205 380 LINE SMOOTH",
"183 380 OFFCURVE",
"175 387 OFFCURVE",
"175 420 CURVE SMOOTH",
"175 480 LINE",
"555 480 LINE",
"555 600 LINE",
"35 600 LINE",
"35 420 LINE SMOOTH",
"35 323 OFFCURVE",
"104 260 OFFCURVE",
"205 260 CURVE SMOOTH",
"400 260 LINE SMOOTH",
"422 260 OFFCURVE",
"430 253 OFFCURVE",
"430 220 CURVE SMOOTH",
"430 160 LINE SMOOTH",
"430 127 OFFCURVE",
"422 120 OFFCURVE",
"400 120 CURVE SMOOTH",
"200 120 LINE SMOOTH",
"178 120 OFFCURVE",
"170 127 OFFCURVE",
"170 160 CURVE",
"30 160 LINE"
);
}
);
width = 600;
}
);
unicode = 0035;
},
{
glyphname = six;
lastChange = "2020-07-08 22:11:09 +0000";
layers = (
{
layerId = "5472B35A-B7AE-4E4F-A6B1-630A6CFD37FC";
paths = (
{
closed = 1;
nodes = (
"150 242 OFFCURVE",
"166 258 OFFCURVE",
"200 258 CURVE SMOOTH",
"400 258 LINE SMOOTH",
"434 258 OFFCURVE",
"450 242 OFFCURVE",
"450 203 CURVE SMOOTH",
"450 145 LINE SMOOTH",
"450 106 OFFCURVE",
"434 90 OFFCURVE",
"400 90 CURVE SMOOTH",
"200 90 LINE SMOOTH",
"166 90 OFFCURVE",
"150 106 OFFCURVE",
"150 145 CURVE SMOOTH",
"150 455 LINE SMOOTH",
"150 494 OFFCURVE",
"166 510 OFFCURVE",
"200 510 CURVE SMOOTH",
"386 510 LINE SMOOTH",
"420 510 OFFCURVE",
"436 494 OFFCURVE",
"436 455 CURVE SMOOTH",
"436 430 LINE",
"536 430 LINE",
"536 455 LINE SMOOTH",
"536 543 OFFCURVE",
"476 600 OFFCURVE",
"386 600 CURVE SMOOTH",
"200 600 LINE SMOOTH",
"110 600 OFFCURVE",
"50 543 OFFCURVE",
"50 455 CURVE SMOOTH",
"50 145 LINE SMOOTH",
"50 57 OFFCURVE",
"110 0 OFFCURVE",
"200 0 CURVE SMOOTH",
"400 0 LINE SMOOTH",
"490 0 OFFCURVE",
"550 57 OFFCURVE",
"550 145 CURVE SMOOTH",
"550 203 LINE SMOOTH",
"550 291 OFFCURVE",
"490 348 OFFCURVE",
"400 348 CURVE SMOOTH",
"200 348 LINE SMOOTH",
"110 348 OFFCURVE",
"50 291 OFFCURVE",
"50 203 CURVE",
"150 203 LINE"
);
}
);
width = 600;
},
{
layerId = "A262DCEF-80AC-4544-820F-6C74D2F82537";
paths = (
{
closed = 1;
nodes = (
"120 258 OFFCURVE",
"148 288 OFFCURVE",
"200 288 CURVE SMOOTH",
"400 288 LINE SMOOTH",
"452 288 OFFCURVE",
"480 258 OFFCURVE",
"480 203 CURVE SMOOTH",
"480 115 LINE SMOOTH",
"480 60 OFFCURVE",
"452 30 OFFCURVE",
"400 30 CURVE SMOOTH",
"200 30 LINE SMOOTH",
"148 30 OFFCURVE",
"120 60 OFFCURVE",
"120 115 CURVE SMOOTH",
"120 485 LINE SMOOTH",
"120 540 OFFCURVE",
"148 570 OFFCURVE",
"200 570 CURVE SMOOTH",
"386 570 LINE SMOOTH",
"438 570 OFFCURVE",
"466 540 OFFCURVE",
"466 485 CURVE SMOOTH",
"466 430 LINE",
"506 430 LINE",
"506 485 LINE SMOOTH",
"506 556 OFFCURVE",
"460 600 OFFCURVE",
"386 600 CURVE SMOOTH",
"200 600 LINE SMOOTH",
"126 600 OFFCURVE",
"80 556 OFFCURVE",
"80 485 CURVE SMOOTH",
"80 115 LINE SMOOTH",
"80 44 OFFCURVE",
"126 0 OFFCURVE",
"200 0 CURVE SMOOTH",
"400 0 LINE SMOOTH",
"474 0 OFFCURVE",
"520 44 OFFCURVE",
"520 115 CURVE SMOOTH",
"520 203 LINE SMOOTH",
"520 274 OFFCURVE",
"474 318 OFFCURVE",
"400 318 CURVE SMOOTH",
"200 318 LINE SMOOTH",
"126 318 OFFCURVE",
"80 274 OFFCURVE",
"80 203 CURVE",
"120 203 LINE"
);
}
);
width = 600;
},
{
layerId = "A8E52AE2-2A6A-4CD2-B761-065329444C15";
paths = (
{
closed = 1;
nodes = (
"170 236 OFFCURVE",
"178 243 OFFCURVE",
"200 243 CURVE SMOOTH",
"400 243 LINE SMOOTH",
"422 243 OFFCURVE",
"430 236 OFFCURVE",
"430 203 CURVE SMOOTH",
"430 160 LINE SMOOTH",
"430 127 OFFCURVE",
"422 120 OFFCURVE",
"400 120 CURVE SMOOTH",
"200 120 LINE SMOOTH",
"178 120 OFFCURVE",
"170 127 OFFCURVE",
"170 160 CURVE SMOOTH",
"170 440 LINE SMOOTH",
"170 473 OFFCURVE",
"178 480 OFFCURVE",
"200 480 CURVE SMOOTH",
"386 480 LINE SMOOTH",
"408 480 OFFCURVE",
"416 473 OFFCURVE",
"416 440 CURVE SMOOTH",
"416 415 LINE",
"556 415 LINE",
"556 440 LINE SMOOTH",
"556 537 OFFCURVE",
"487 600 OFFCURVE",
"386 600 CURVE SMOOTH",
"200 600 LINE SMOOTH",
"99 600 OFFCURVE",
"30 537 OFFCURVE",
"30 440 CURVE SMOOTH",
"30 160 LINE SMOOTH",
"30 63 OFFCURVE",
"99 0 OFFCURVE",
"200 0 CURVE SMOOTH",
"400 0 LINE SMOOTH",
"501 0 OFFCURVE",
"570 63 OFFCURVE",
"570 160 CURVE SMOOTH",
"570 203 LINE SMOOTH",
"570 300 OFFCURVE",
"501 363 OFFCURVE",
"400 363 CURVE SMOOTH",
"200 363 LINE SMOOTH",
"99 363 OFFCURVE",
"30 300 OFFCURVE",
"30 203 CURVE",
"170 203 LINE"
);
}
);
width = 600;
}
);
unicode = 0036;
},
{
glyphname = seven;
lastChange = "2020-07-08 22:18:02 +0000";
layers = (
{
layerId = "5472B35A-B7AE-4E4F-A6B1-630A6CFD37FC";
paths = (
{
closed = 1;
nodes = (
"270 75 LINE SMOOTH",
"270 95 OFFCURVE",
"273 101 OFFCURVE",
"306 136 CURVE SMOOTH",
"315 145 OFFCURVE",
"327 157 OFFCURVE",
"336 168 CURVE SMOOTH",
"482 331 LINE SMOOTH",
"538 392 OFFCURVE",
"550 418 OFFCURVE",
"550 480 CURVE SMOOTH",
"550 600 LINE",
"50 600 LINE",
"50 510 LINE",
"450 510 LINE",
"450 480 LINE SMOOTH",
"450 441 OFFCURVE",
"447 435 OFFCURVE",
"408 391 CURVE SMOOTH",
"262 228 LINE SMOOTH",
"252 217 OFFCURVE",
"247 211 OFFCURVE",
"234 198 CURVE SMOOTH",
"187 149 OFFCURVE",
"170 123 OFFCURVE",
"170 75 CURVE SMOOTH",
"170 0 LINE",
"270 0 LINE"
);
}
);
width = 600;
},
{
layerId = "A262DCEF-80AC-4544-820F-6C74D2F82537";
paths = (
{
closed = 1;
nodes = (
"240 75 LINE SMOOTH",
"240 104 OFFCURVE",
"247 117 OFFCURVE",
"285 157 CURVE SMOOTH",
"293 166 OFFCURVE",
"305 178 OFFCURVE",
"314 188 CURVE SMOOTH",
"460 351 LINE SMOOTH",
"511 407 OFFCURVE",
"520 427 OFFCURVE",
"520 480 CURVE SMOOTH",
"520 600 LINE",
"80 600 LINE",
"80 570 LINE",
"480 570 LINE",
"480 480 LINE SMOOTH",
"480 433 OFFCURVE",
"474 420 OFFCURVE",
"430 371 CURVE SMOOTH",
"284 208 LINE SMOOTH",
"274 197 OFFCURVE",
"269 191 OFFCURVE",
"256 177 CURVE SMOOTH",
"210 130 OFFCURVE",
"200 112 OFFCURVE",
"200 75 CURVE SMOOTH",
"200 0 LINE",
"240 0 LINE"
);
}
);
width = 600;
},
{
layerId = "A8E52AE2-2A6A-4CD2-B761-065329444C15";
paths = (
{
closed = 1;
nodes = (
"290 75 LINE SMOOTH",
"290 91 OFFCURVE",
"290 93 OFFCURVE",
"321 126 CURVE SMOOTH",
"329 135 OFFCURVE",
"343 149 OFFCURVE",
"351 158 CURVE SMOOTH",
"497 321 LINE SMOOTH",
"557 387 OFFCURVE",
"570 414 OFFCURVE",
"570 480 CURVE SMOOTH",
"570 600 LINE",
"35 600 LINE",
"35 480 LINE",
"430 480 LINE",
"430 473 LINE SMOOTH",
"430 443 OFFCURVE",
"427 438 OFFCURVE",
"393 401 CURVE SMOOTH",
"247 238 LINE SMOOTH",
"236 226 OFFCURVE",
"231 221 OFFCURVE",
"220 208 CURVE SMOOTH",
"169 156 OFFCURVE",
"150 129 OFFCURVE",
"150 75 CURVE SMOOTH",
"150 0 LINE",
"290 0 LINE"
);
}
);
width = 600;
}
);
unicode = 0037;
},
{
glyphname = eight;
lastChange = "2020-07-08 22:11:09 +0000";
layers = (
{
layerId = "5472B35A-B7AE-4E4F-A6B1-630A6CFD37FC";
paths = (
{
closed = 1;
nodes = (
"171 348 OFFCURVE",
"155 364 OFFCURVE",
"155 403 CURVE SMOOTH",
"155 455 LINE SMOOTH",
"155 494 OFFCURVE",
"171 510 OFFCURVE",
"205 510 CURVE SMOOTH",
"391 510 LINE SMOOTH",
"425 510 OFFCURVE",
"441 494 OFFCURVE",
"441 455 CURVE SMOOTH",
"441 403 LINE SMOOTH",
"441 364 OFFCURVE",
"425 348 OFFCURVE",
"391 348 CURVE SMOOTH",
"200 348 LINE SMOOTH",
"110 348 OFFCURVE",
"50 291 OFFCURVE",
"50 203 CURVE SMOOTH",
"50 145 LINE SMOOTH",
"50 57 OFFCURVE",
"110 0 OFFCURVE",
"200 0 CURVE SMOOTH",
"400 0 LINE SMOOTH",
"490 0 OFFCURVE",
"550 57 OFFCURVE",
"550 145 CURVE SMOOTH",
"550 203 LINE SMOOTH",
"550 291 OFFCURVE",
"490 348 OFFCURVE",
"400 348 CURVE",
"400 258 LINE",
"434 258 OFFCURVE",
"450 242 OFFCURVE",
"450 203 CURVE SMOOTH",
"450 145 LINE SMOOTH",
"450 106 OFFCURVE",
"434 90 OFFCURVE",
"400 90 CURVE SMOOTH",
"200 90 LINE SMOOTH",
"166 90 OFFCURVE",
"150 106 OFFCURVE",
"150 145 CURVE SMOOTH",
"150 203 LINE SMOOTH",
"150 242 OFFCURVE",
"166 258 OFFCURVE",
"200 258 CURVE SMOOTH",
"391 258 LINE SMOOTH",
"481 258 OFFCURVE",
"541 315 OFFCURVE",
"541 403 CURVE SMOOTH",
"541 455 LINE SMOOTH",
"541 543 OFFCURVE",
"481 600 OFFCURVE",
"391 600 CURVE SMOOTH",
"205 600 LINE SMOOTH",
"115 600 OFFCURVE",
"55 543 OFFCURVE",
"55 455 CURVE SMOOTH",
"55 403 LINE SMOOTH",
"55 315 OFFCURVE",
"115 258 OFFCURVE",
"205 258 CURVE",
"205 348 LINE"
);
}
);
width = 600;
},
{
layerId = "A262DCEF-80AC-4544-820F-6C74D2F82537";
paths = (
{
closed = 1;
nodes = (
"153 318 OFFCURVE",
"125 348 OFFCURVE",
"125 403 CURVE SMOOTH",
"125 485 LINE SMOOTH",
"125 540 OFFCURVE",
"153 570 OFFCURVE",
"205 570 CURVE SMOOTH",
"391 570 LINE SMOOTH",
"443 570 OFFCURVE",
"471 540 OFFCURVE",
"471 485 CURVE SMOOTH",
"471 403 LINE SMOOTH",
"471 348 OFFCURVE",
"443 318 OFFCURVE",
"391 318 CURVE SMOOTH",
"200 318 LINE SMOOTH",
"126 318 OFFCURVE",
"80 274 OFFCURVE",
"80 203 CURVE SMOOTH",
"80 115 LINE SMOOTH",
"80 44 OFFCURVE",
"126 0 OFFCURVE",
"200 0 CURVE SMOOTH",
"400 0 LINE SMOOTH",
"474 0 OFFCURVE",
"520 44 OFFCURVE",
"520 115 CURVE SMOOTH",
"520 203 LINE SMOOTH",
"520 274 OFFCURVE",
"474 318 OFFCURVE",
"400 318 CURVE",
"400 288 LINE",
"452 288 OFFCURVE",
"480 258 OFFCURVE",
"480 203 CURVE SMOOTH",
"480 115 LINE SMOOTH",
"480 60 OFFCURVE",
"452 30 OFFCURVE",
"400 30 CURVE SMOOTH",
"200 30 LINE SMOOTH",
"148 30 OFFCURVE",
"120 60 OFFCURVE",
"120 115 CURVE SMOOTH",
"120 203 LINE SMOOTH",
"120 258 OFFCURVE",
"148 288 OFFCURVE",
"200 288 CURVE SMOOTH",
"391 288 LINE SMOOTH",
"465 288 OFFCURVE",
"511 332 OFFCURVE",
"511 403 CURVE SMOOTH",
"511 485 LINE SMOOTH",
"511 556 OFFCURVE",
"465 600 OFFCURVE",
"391 600 CURVE SMOOTH",
"205 600 LINE SMOOTH",
"131 600 OFFCURVE",
"85 556 OFFCURVE",
"85 485 CURVE SMOOTH",
"85 403 LINE SMOOTH",
"85 332 OFFCURVE",
"131 288 OFFCURVE",
"205 288 CURVE",
"205 318 LINE"
);
}
);
width = 600;
},
{
layerId = "A8E52AE2-2A6A-4CD2-B761-065329444C15";
paths = (
{
closed = 1;
nodes = (
"183 363 OFFCURVE",
"175 370 OFFCURVE",
"175 403 CURVE SMOOTH",
"175 440 LINE SMOOTH",
"175 473 OFFCURVE",
"183 480 OFFCURVE",
"205 480 CURVE SMOOTH",
"391 480 LINE SMOOTH",
"413 480 OFFCURVE",
"421 473 OFFCURVE",
"421 440 CURVE SMOOTH",
"421 403 LINE SMOOTH",
"421 370 OFFCURVE",
"413 363 OFFCURVE",
"391 363 CURVE SMOOTH",
"200 363 LINE SMOOTH",
"99 363 OFFCURVE",
"30 300 OFFCURVE",
"30 203 CURVE SMOOTH",
"30 160 LINE SMOOTH",
"30 63 OFFCURVE",
"99 0 OFFCURVE",
"200 0 CURVE SMOOTH",
"400 0 LINE SMOOTH",
"501 0 OFFCURVE",
"570 63 OFFCURVE",
"570 160 CURVE SMOOTH",
"570 203 LINE SMOOTH",
"570 300 OFFCURVE",
"501 363 OFFCURVE",
"400 363 CURVE",
"400 243 LINE",
"422 243 OFFCURVE",
"430 236 OFFCURVE",
"430 203 CURVE SMOOTH",
"430 160 LINE SMOOTH",
"430 127 OFFCURVE",
"422 120 OFFCURVE",
"400 120 CURVE SMOOTH",
"200 120 LINE SMOOTH",
"178 120 OFFCURVE",
"170 127 OFFCURVE",
"170 160 CURVE SMOOTH",
"170 203 LINE SMOOTH",
"170 236 OFFCURVE",
"178 243 OFFCURVE",
"200 243 CURVE SMOOTH",
"391 243 LINE SMOOTH",
"492 243 OFFCURVE",
"561 306 OFFCURVE",
"561 403 CURVE SMOOTH",
"561 440 LINE SMOOTH",
"561 537 OFFCURVE",
"492 600 OFFCURVE",
"391 600 CURVE SMOOTH",
"205 600 LINE SMOOTH",
"104 600 OFFCURVE",
"35 537 OFFCURVE",
"35 440 CURVE SMOOTH",
"35 403 LINE SMOOTH",
"35 306 OFFCURVE",
"104 243 OFFCURVE",
"205 243 CURVE",
"205 363 LINE"
);
}
);
width = 600;
}
);
unicode = 0038;
},
{
glyphname = nine;
lastChange = "2020-07-08 22:11:09 +0000";
layers = (
{
layerId = "5472B35A-B7AE-4E4F-A6B1-630A6CFD37FC";
paths = (
{
closed = 1;
nodes = (
"204 342 LINE SMOOTH",
"170 342 OFFCURVE",
"154 358 OFFCURVE",
"154 397 CURVE SMOOTH",
"154 455 LINE SMOOTH",
"154 494 OFFCURVE",
"170 510 OFFCURVE",
"204 510 CURVE SMOOTH",
"400 510 LINE SMOOTH",
"434 510 OFFCURVE",
"450 494 OFFCURVE",
"450 455 CURVE SMOOTH",
"450 145 LINE SMOOTH",
"450 106 OFFCURVE",
"434 90 OFFCURVE",
"400 90 CURVE SMOOTH",
"200 90 LINE SMOOTH",
"166 90 OFFCURVE",
"150 106 OFFCURVE",
"150 145 CURVE SMOOTH",
"150 170 LINE",
"50 170 LINE",
"50 145 LINE SMOOTH",
"50 57 OFFCURVE",
"110 0 OFFCURVE",
"200 0 CURVE SMOOTH",
"400 0 LINE SMOOTH",
"490 0 OFFCURVE",
"550 57 OFFCURVE",
"550 145 CURVE SMOOTH",
"550 455 LINE SMOOTH",
"550 543 OFFCURVE",
"490 600 OFFCURVE",
"400 600 CURVE SMOOTH",
"204 600 LINE SMOOTH",
"114 600 OFFCURVE",
"54 543 OFFCURVE",
"54 455 CURVE SMOOTH",
"54 397 LINE SMOOTH",
"54 309 OFFCURVE",
"114 252 OFFCURVE",
"204 252 CURVE SMOOTH",
"500 252 LINE",
"500 342 LINE"
);
}
);
width = 600;
},
{
layerId = "A262DCEF-80AC-4544-820F-6C74D2F82537";
paths = (
{
closed = 1;
nodes = (
"204 312 LINE SMOOTH",
"152 312 OFFCURVE",
"124 342 OFFCURVE",
"124 397 CURVE SMOOTH",
"124 485 LINE SMOOTH",
"124 540 OFFCURVE",
"152 570 OFFCURVE",
"204 570 CURVE SMOOTH",
"400 570 LINE SMOOTH",
"452 570 OFFCURVE",
"480 540 OFFCURVE",
"480 485 CURVE SMOOTH",
"480 115 LINE SMOOTH",
"480 60 OFFCURVE",
"452 30 OFFCURVE",
"400 30 CURVE SMOOTH",
"200 30 LINE SMOOTH",
"148 30 OFFCURVE",
"120 60 OFFCURVE",
"120 115 CURVE SMOOTH",
"120 170 LINE",
"80 170 LINE",
"80 115 LINE SMOOTH",
"80 44 OFFCURVE",
"126 0 OFFCURVE",
"200 0 CURVE SMOOTH",
"400 0 LINE SMOOTH",
"474 0 OFFCURVE",
"520 44 OFFCURVE",
"520 115 CURVE SMOOTH",
"520 485 LINE SMOOTH",
"520 556 OFFCURVE",
"474 600 OFFCURVE",
"400 600 CURVE SMOOTH",
"204 600 LINE SMOOTH",
"130 600 OFFCURVE",
"84 556 OFFCURVE",
"84 485 CURVE SMOOTH",
"84 397 LINE SMOOTH",
"84 326 OFFCURVE",
"130 282 OFFCURVE",
"204 282 CURVE SMOOTH",
"500 282 LINE",
"500 312 LINE"
);
}
);
width = 600;
},
{
layerId = "A8E52AE2-2A6A-4CD2-B761-065329444C15";
paths = (
{
closed = 1;
nodes = (
"204 357 LINE SMOOTH",
"182 357 OFFCURVE",
"174 364 OFFCURVE",
"174 397 CURVE SMOOTH",
"174 440 LINE SMOOTH",
"174 473 OFFCURVE",
"182 480 OFFCURVE",
"204 480 CURVE SMOOTH",
"400 480 LINE SMOOTH",
"422 480 OFFCURVE",
"430 473 OFFCURVE",
"430 440 CURVE SMOOTH",
"430 160 LINE SMOOTH",
"430 127 OFFCURVE",
"422 120 OFFCURVE",
"400 120 CURVE SMOOTH",
"200 120 LINE SMOOTH",
"178 120 OFFCURVE",
"170 127 OFFCURVE",
"170 160 CURVE SMOOTH",
"170 170 LINE",
"30 170 LINE",
"30 160 LINE SMOOTH",
"30 63 OFFCURVE",
"99 0 OFFCURVE",
"200 0 CURVE SMOOTH",
"400 0 LINE SMOOTH",
"501 0 OFFCURVE",
"570 63 OFFCURVE",
"570 160 CURVE SMOOTH",
"570 440 LINE SMOOTH",
"570 537 OFFCURVE",
"501 600 OFFCURVE",
"400 600 CURVE SMOOTH",
"204 600 LINE SMOOTH",
"103 600 OFFCURVE",
"34 537 OFFCURVE",
"34 440 CURVE SMOOTH",
"34 397 LINE SMOOTH",
"34 300 OFFCURVE",
"103 237 OFFCURVE",
"204 237 CURVE SMOOTH",
"500 237 LINE",
"500 357 LINE"
);
}
);
width = 600;
}
);
unicode = 0039;
},
{
glyphname = zero.zero;
lastChange = "2020-07-17 20:12:28 +0000";
layers = (
{
layerId = "5472B35A-B7AE-4E4F-A6B1-630A6CFD37FC";
paths = (
{
closed = 1;
nodes = (
"470 145 LINE SMOOTH",
"470 106 OFFCURVE",
"454 90 OFFCURVE",
"420 90 CURVE SMOOTH",
"200 90 LINE SMOOTH",
"166 90 OFFCURVE",
"150 106 OFFCURVE",
"150 145 CURVE SMOOTH",
"150 455 LINE SMOOTH",
"150 494 OFFCURVE",
"166 510 OFFCURVE",
"200 510 CURVE SMOOTH",
"420 510 LINE SMOOTH",
"454 510 OFFCURVE",
"470 494 OFFCURVE",
"470 455 CURVE SMOOTH"
);
},
{
closed = 1;
nodes = (
"570 543 OFFCURVE",
"510 600 OFFCURVE",
"420 600 CURVE SMOOTH",
"200 600 LINE SMOOTH",
"110 600 OFFCURVE",
"50 543 OFFCURVE",
"50 455 CURVE SMOOTH",
"50 145 LINE SMOOTH",
"50 57 OFFCURVE",
"110 0 OFFCURVE",
"200 0 CURVE SMOOTH",
"420 0 LINE SMOOTH",
"510 0 OFFCURVE",
"570 57 OFFCURVE",
"570 145 CURVE SMOOTH",
"570 455 LINE SMOOTH"
);
},
{
closed = 1;
nodes = (
"106 123 LINE",
"184 67 LINE",
"514 477 LINE",
"436 533 LINE"
);
}
);
width = 620;
},
{
layerId = "A262DCEF-80AC-4544-820F-6C74D2F82537";
paths = (
{
closed = 1;
nodes = (
"500 115 LINE SMOOTH",
"500 60 OFFCURVE",
"472 30 OFFCURVE",
"420 30 CURVE SMOOTH",
"200 30 LINE SMOOTH",
"148 30 OFFCURVE",
"120 60 OFFCURVE",
"120 115 CURVE SMOOTH",
"120 485 LINE SMOOTH",
"120 540 OFFCURVE",
"148 570 OFFCURVE",
"200 570 CURVE SMOOTH",
"420 570 LINE SMOOTH",
"472 570 OFFCURVE",
"500 540 OFFCURVE",
"500 485 CURVE SMOOTH"
);
},
{
closed = 1;
nodes = (
"540 556 OFFCURVE",
"494 600 OFFCURVE",
"420 600 CURVE SMOOTH",
"200 600 LINE SMOOTH",
"126 600 OFFCURVE",
"80 556 OFFCURVE",
"80 485 CURVE SMOOTH",
"80 115 LINE SMOOTH",
"80 44 OFFCURVE",
"126 0 OFFCURVE",
"200 0 CURVE SMOOTH",
"420 0 LINE SMOOTH",
"494 0 OFFCURVE",
"540 44 OFFCURVE",
"540 115 CURVE SMOOTH",
"540 485 LINE SMOOTH"
);
},
{
closed = 1;
nodes = (
"119 59 LINE",
"151 41 LINE",
"501 541 LINE",
"469 559 LINE"
);
}
);
width = 620;
},
{
layerId = "A8E52AE2-2A6A-4CD2-B761-065329444C15";
paths = (
{
closed = 1;
nodes = (
"450 160 LINE SMOOTH",
"450 127 OFFCURVE",
"442 120 OFFCURVE",
"420 120 CURVE SMOOTH",
"200 120 LINE SMOOTH",
"178 120 OFFCURVE",
"170 127 OFFCURVE",
"170 160 CURVE SMOOTH",
"170 440 LINE SMOOTH",
"170 473 OFFCURVE",
"178 480 OFFCURVE",
"200 480 CURVE SMOOTH",
"420 480 LINE SMOOTH",
"442 480 OFFCURVE",
"450 473 OFFCURVE",
"450 440 CURVE SMOOTH"
);
},
{
closed = 1;
nodes = (
"590 537 OFFCURVE",
"521 600 OFFCURVE",
"420 600 CURVE SMOOTH",
"200 600 LINE SMOOTH",
"99 600 OFFCURVE",
"30 537 OFFCURVE",
"30 440 CURVE SMOOTH",
"30 160 LINE SMOOTH",
"30 63 OFFCURVE",
"99 0 OFFCURVE",
"200 0 CURVE SMOOTH",
"420 0 LINE SMOOTH",
"521 0 OFFCURVE",
"590 63 OFFCURVE",
"590 160 CURVE SMOOTH",
"590 440 LINE SMOOTH"
);
},
{
closed = 1;
nodes = (
"90 133 LINE",
"200 57 LINE",
"530 467 LINE",
"420 543 LINE"
);
}
);
width = 620;
}
);
},
{
color = 7;
glyphname = zero.osf;
lastChange = "2020-07-17 20:13:27 +0000";
layers = (
{
layerId = "5472B35A-B7AE-4E4F-A6B1-630A6CFD37FC";
paths = (
{
closed = 1;
nodes = (
"460 145 LINE SMOOTH",
"460 106 OFFCURVE",
"444 90 OFFCURVE",
"410 90 CURVE SMOOTH",
"200 90 LINE SMOOTH",
"166 90 OFFCURVE",
"150 106 OFFCURVE",
"150 145 CURVE SMOOTH",
"150 415 LINE SMOOTH",
"150 454 OFFCURVE",
"166 470 OFFCURVE",
"200 470 CURVE SMOOTH",
"410 470 LINE SMOOTH",
"444 470 OFFCURVE",
"460 454 OFFCURVE",
"460 415 CURVE SMOOTH"
);
},
{
closed = 1;
nodes = (
"560 503 OFFCURVE",
"500 560 OFFCURVE",
"410 560 CURVE SMOOTH",
"200 560 LINE SMOOTH",
"110 560 OFFCURVE",
"50 503 OFFCURVE",
"50 415 CURVE SMOOTH",
"50 145 LINE SMOOTH",
"50 57 OFFCURVE",
"110 0 OFFCURVE",
"200 0 CURVE SMOOTH",
"410 0 LINE SMOOTH",
"500 0 OFFCURVE",
"560 57 OFFCURVE",
"560 145 CURVE SMOOTH",
"560 415 LINE SMOOTH"
);
}
);
width = 610;
},
{
layerId = "A262DCEF-80AC-4544-820F-6C74D2F82537";
paths = (
{
closed = 1;
nodes = (
"490 115 LINE SMOOTH",
"490 60 OFFCURVE",
"462 30 OFFCURVE",
"410 30 CURVE SMOOTH",
"200 30 LINE SMOOTH",
"148 30 OFFCURVE",
"120 60 OFFCURVE",
"120 115 CURVE SMOOTH",
"120 445 LINE SMOOTH",
"120 500 OFFCURVE",
"148 530 OFFCURVE",
"200 530 CURVE SMOOTH",
"410 530 LINE SMOOTH",
"462 530 OFFCURVE",
"490 500 OFFCURVE",
"490 445 CURVE SMOOTH"
);
},
{
closed = 1;
nodes = (
"530 516 OFFCURVE",
"484 560 OFFCURVE",
"410 560 CURVE SMOOTH",
"200 560 LINE SMOOTH",
"126 560 OFFCURVE",
"80 516 OFFCURVE",
"80 445 CURVE SMOOTH",
"80 115 LINE SMOOTH",
"80 44 OFFCURVE",
"126 0 OFFCURVE",
"200 0 CURVE SMOOTH",
"410 0 LINE SMOOTH",
"484 0 OFFCURVE",
"530 44 OFFCURVE",
"530 115 CURVE SMOOTH",
"530 445 LINE SMOOTH"
);
}
);
width = 610;
},
{
layerId = "A8E52AE2-2A6A-4CD2-B761-065329444C15";
paths = (
{
closed = 1;
nodes = (
"440 160 LINE SMOOTH",
"440 127 OFFCURVE",
"432 120 OFFCURVE",
"410 120 CURVE SMOOTH",
"200 120 LINE SMOOTH",
"178 120 OFFCURVE",
"170 127 OFFCURVE",
"170 160 CURVE SMOOTH",
"170 400 LINE SMOOTH",
"170 433 OFFCURVE",
"178 440 OFFCURVE",
"200 440 CURVE SMOOTH",
"410 440 LINE SMOOTH",
"432 440 OFFCURVE",
"440 433 OFFCURVE",
"440 400 CURVE SMOOTH"
);
},
{
closed = 1;
nodes = (
"580 497 OFFCURVE",
"511 560 OFFCURVE",
"410 560 CURVE SMOOTH",
"200 560 LINE SMOOTH",
"99 560 OFFCURVE",
"30 497 OFFCURVE",
"30 400 CURVE SMOOTH",
"30 160 LINE SMOOTH",
"30 63 OFFCURVE",
"99 0 OFFCURVE",
"200 0 CURVE SMOOTH",
"410 0 LINE SMOOTH",
"511 0 OFFCURVE",
"580 63 OFFCURVE",
"580 160 CURVE SMOOTH",
"580 400 LINE SMOOTH"
);
}
);
width = 610;
}
);
},
{
color = 7;
glyphname = one.osf;
lastChange = "2020-07-08 22:11:09 +0000";
layers = (
{
layerId = "5472B35A-B7AE-4E4F-A6B1-630A6CFD37FC";
paths = (
{
closed = 1;
nodes = (
"90 470 LINE SMOOTH",
"124 470 OFFCURVE",
"140 454 OFFCURVE",
"140 415 CURVE SMOOTH",
"140 0 LINE",
"240 0 LINE",
"240 415 LINE SMOOTH",
"240 503 OFFCURVE",
"180 560 OFFCURVE",
"90 560 CURVE SMOOTH",
"30 560 LINE",
"30 470 LINE"
);
}
);
width = 310;
},
{
layerId = "A262DCEF-80AC-4544-820F-6C74D2F82537";
paths = (
{
closed = 1;
nodes = (
"90 530 LINE SMOOTH",
"142 530 OFFCURVE",
"170 500 OFFCURVE",
"170 445 CURVE SMOOTH",
"170 0 LINE",
"210 0 LINE",
"210 445 LINE SMOOTH",
"210 516 OFFCURVE",
"164 560 OFFCURVE",
"90 560 CURVE SMOOTH",
"60 560 LINE",
"60 530 LINE"
);
}
);
width = 310;
},
{
layerId = "A8E52AE2-2A6A-4CD2-B761-065329444C15";
paths = (
{
closed = 1;
nodes = (
"90 440 LINE SMOOTH",
"112 440 OFFCURVE",
"120 433 OFFCURVE",
"120 400 CURVE SMOOTH",
"120 0 LINE",
"260 0 LINE",
"260 400 LINE SMOOTH",
"260 497 OFFCURVE",
"191 560 OFFCURVE",
"90 560 CURVE SMOOTH",
"45 560 LINE",
"45 440 LINE"
);
}
);
width = 310;
}
);
},
{
color = 7;
glyphname = two.osf;
lastChange = "2020-07-08 22:11:09 +0000";
layers = (
{
layerId = "5472B35A-B7AE-4E4F-A6B1-630A6CFD37FC";
paths = (
{
closed = 1;
nodes = (
"150 454 OFFCURVE",
"166 470 OFFCURVE",
"200 470 CURVE SMOOTH",
"380 470 LINE SMOOTH",
"414 470 OFFCURVE",
"430 454 OFFCURVE",
"430 415 CURVE SMOOTH",
"430 370 LINE SMOOTH",
"430 343 OFFCURVE",
"420 331 OFFCURVE",
"364 313 CURVE SMOOTH",
"184 253 LINE SMOOTH",
"91 222 OFFCURVE",
"50 181 OFFCURVE",
"50 110 CURVE SMOOTH",
"50 0 LINE",
"530 0 LINE",
"530 90 LINE",
"150 90 LINE",
"150 110 LINE SMOOTH",
"150 137 OFFCURVE",
"160 149 OFFCURVE",
"216 167 CURVE SMOOTH",
"396 227 LINE SMOOTH",
"489 258 OFFCURVE",
"530 299 OFFCURVE",
"530 370 CURVE SMOOTH",
"530 415 LINE SMOOTH",
"530 503 OFFCURVE",
"470 560 OFFCURVE",
"380 560 CURVE SMOOTH",
"200 560 LINE SMOOTH",
"110 560 OFFCURVE",
"50 503 OFFCURVE",
"50 415 CURVE",
"150 415 LINE"
);
}
);
width = 580;
},
{
layerId = "A262DCEF-80AC-4544-820F-6C74D2F82537";
paths = (
{
closed = 1;
nodes = (
"120 500 OFFCURVE",
"148 530 OFFCURVE",
"200 530 CURVE SMOOTH",
"380 530 LINE SMOOTH",
"432 530 OFFCURVE",
"460 500 OFFCURVE",
"460 445 CURVE SMOOTH",
"460 370 LINE SMOOTH",
"460 327 OFFCURVE",
"439 306 OFFCURVE",
"374 284 CURVE SMOOTH",
"194 224 LINE SMOOTH",
"112 197 OFFCURVE",
"80 166 OFFCURVE",
"80 110 CURVE SMOOTH",
"80 0 LINE",
"500 0 LINE",
"500 30 LINE",
"120 30 LINE",
"120 110 LINE SMOOTH",
"120 153 OFFCURVE",
"141 174 OFFCURVE",
"206 196 CURVE SMOOTH",
"386 256 LINE SMOOTH",
"468 283 OFFCURVE",
"500 314 OFFCURVE",
"500 370 CURVE SMOOTH",
"500 445 LINE SMOOTH",
"500 516 OFFCURVE",
"454 560 OFFCURVE",
"380 560 CURVE SMOOTH",
"200 560 LINE SMOOTH",
"126 560 OFFCURVE",
"80 516 OFFCURVE",
"80 445 CURVE",
"120 445 LINE"
);
}
);
width = 580;
},
{
layerId = "A8E52AE2-2A6A-4CD2-B761-065329444C15";
paths = (
{
closed = 1;
nodes = (
"170 433 OFFCURVE",
"178 440 OFFCURVE",
"200 440 CURVE SMOOTH",
"380 440 LINE SMOOTH",
"402 440 OFFCURVE",
"410 433 OFFCURVE",
"410 400 CURVE SMOOTH",
"410 370 LINE SMOOTH",
"410 349 OFFCURVE",
"407 343 OFFCURVE",
"358 327 CURVE SMOOTH",
"178 267 LINE SMOOTH",
"79 235 OFFCURVE",
"30 190 OFFCURVE",
"30 110 CURVE SMOOTH",
"30 0 LINE",
"545 0 LINE",
"545 120 LINE",
"170 120 LINE",
"170 110 LINE SMOOTH",
"170 131 OFFCURVE",
"173 137 OFFCURVE",
"222 153 CURVE SMOOTH",
"402 213 LINE SMOOTH",
"501 245 OFFCURVE",
"550 290 OFFCURVE",
"550 370 CURVE SMOOTH",
"550 400 LINE SMOOTH",
"550 497 OFFCURVE",
"481 560 OFFCURVE",
"380 560 CURVE SMOOTH",
"200 560 LINE SMOOTH",
"99 560 OFFCURVE",
"30 497 OFFCURVE",
"30 400 CURVE",
"170 400 LINE"
);
}
);
width = 580;
}
);
},
{
color = 7;
glyphname = three.osf;
lastChange = "2020-07-08 22:11:09 +0000";
layers = (
{
layerId = "5472B35A-B7AE-4E4F-A6B1-630A6CFD37FC";
paths = (
{
closed = 1;
nodes = (
"155 415 LINE SMOOTH",
"155 454 OFFCURVE",
"171 470 OFFCURVE",
"205 470 CURVE SMOOTH",
"391 470 LINE SMOOTH",
"425 470 OFFCURVE",
"441 454 OFFCURVE",
"441 415 CURVE SMOOTH",
"441 383 LINE SMOOTH",
"441 344 OFFCURVE",
"425 328 OFFCURVE",
"391 328 CURVE",
"391 238 LINE",
"481 238 OFFCURVE",
"541 295 OFFCURVE",
"541 383 CURVE SMOOTH",
"541 415 LINE SMOOTH",
"541 503 OFFCURVE",
"481 560 OFFCURVE",
"391 560 CURVE SMOOTH",
"205 560 LINE SMOOTH",
"115 560 OFFCURVE",
"55 503 OFFCURVE",
"55 415 CURVE SMOOTH",
"55 390 LINE",
"155 390 LINE"
);
},
{
closed = 1;
nodes = (
"50 145 LINE SMOOTH",
"50 57 OFFCURVE",
"110 0 OFFCURVE",
"200 0 CURVE SMOOTH",
"400 0 LINE SMOOTH",
"490 0 OFFCURVE",
"550 57 OFFCURVE",
"550 145 CURVE SMOOTH",
"550 183 LINE SMOOTH",
"550 271 OFFCURVE",
"490 328 OFFCURVE",
"400 328 CURVE SMOOTH",
"295 328 LINE",
"295 238 LINE",
"400 238 LINE SMOOTH",
"434 238 OFFCURVE",
"450 222 OFFCURVE",
"450 183 CURVE SMOOTH",
"450 145 LINE SMOOTH",
"450 106 OFFCURVE",
"434 90 OFFCURVE",
"400 90 CURVE SMOOTH",
"200 90 LINE SMOOTH",
"166 90 OFFCURVE",
"150 106 OFFCURVE",
"150 145 CURVE SMOOTH",
"150 170 LINE",
"50 170 LINE"
);
}
);
width = 600;
},
{
layerId = "A262DCEF-80AC-4544-820F-6C74D2F82537";
paths = (
{
closed = 1;
nodes = (
"125 445 LINE SMOOTH",
"125 500 OFFCURVE",
"153 530 OFFCURVE",
"205 530 CURVE SMOOTH",
"391 530 LINE SMOOTH",
"443 530 OFFCURVE",
"471 500 OFFCURVE",
"471 445 CURVE SMOOTH",
"471 383 LINE SMOOTH",
"471 328 OFFCURVE",
"443 298 OFFCURVE",
"391 298 CURVE",
"391 268 LINE",
"465 268 OFFCURVE",
"511 312 OFFCURVE",
"511 383 CURVE SMOOTH",
"511 445 LINE SMOOTH",
"511 516 OFFCURVE",
"465 560 OFFCURVE",
"391 560 CURVE SMOOTH",
"205 560 LINE SMOOTH",
"131 560 OFFCURVE",
"85 516 OFFCURVE",
"85 445 CURVE SMOOTH",
"85 390 LINE",
"125 390 LINE"
);
},
{
closed = 1;
nodes = (
"80 115 LINE SMOOTH",
"80 44 OFFCURVE",
"126 0 OFFCURVE",
"200 0 CURVE SMOOTH",
"400 0 LINE SMOOTH",
"474 0 OFFCURVE",
"520 44 OFFCURVE",
"520 115 CURVE SMOOTH",
"520 183 LINE SMOOTH",
"520 254 OFFCURVE",
"474 298 OFFCURVE",
"400 298 CURVE SMOOTH",
"295 298 LINE",
"295 268 LINE",
"400 268 LINE SMOOTH",
"452 268 OFFCURVE",
"480 238 OFFCURVE",
"480 183 CURVE SMOOTH",
"480 115 LINE SMOOTH",
"480 60 OFFCURVE",
"452 30 OFFCURVE",
"400 30 CURVE SMOOTH",
"200 30 LINE SMOOTH",
"148 30 OFFCURVE",
"120 60 OFFCURVE",
"120 115 CURVE SMOOTH",
"120 170 LINE",
"80 170 LINE"
);
}
);
width = 600;
},
{
layerId = "A8E52AE2-2A6A-4CD2-B761-065329444C15";
paths = (
{
closed = 1;
nodes = (
"175 415 LINE SMOOTH",
"175 448 OFFCURVE",
"183 455 OFFCURVE",
"205 455 CURVE SMOOTH",
"391 455 LINE SMOOTH",
"413 455 OFFCURVE",
"421 448 OFFCURVE",
"421 415 CURVE SMOOTH",
"421 383 LINE SMOOTH",
"421 350 OFFCURVE",
"413 343 OFFCURVE",
"391 343 CURVE",
"391 223 LINE",
"492 223 OFFCURVE",
"561 286 OFFCURVE",
"561 383 CURVE SMOOTH",
"561 415 LINE SMOOTH",
"561 512 OFFCURVE",
"492 575 OFFCURVE",
"391 575 CURVE SMOOTH",
"205 575 LINE SMOOTH",
"104 575 OFFCURVE",
"35 512 OFFCURVE",
"35 415 CURVE SMOOTH",
"35 390 LINE",
"175 390 LINE"
);
},
{
closed = 1;
nodes = (
"30 145 LINE SMOOTH",
"30 48 OFFCURVE",
"99 -15 OFFCURVE",
"200 -15 CURVE SMOOTH",
"400 -15 LINE SMOOTH",
"501 -15 OFFCURVE",
"570 48 OFFCURVE",
"570 145 CURVE SMOOTH",
"570 183 LINE SMOOTH",
"570 280 OFFCURVE",
"501 343 OFFCURVE",
"400 343 CURVE SMOOTH",
"295 343 LINE",
"295 223 LINE",
"400 223 LINE SMOOTH",
"422 223 OFFCURVE",
"430 216 OFFCURVE",
"430 183 CURVE SMOOTH",
"430 145 LINE SMOOTH",
"430 112 OFFCURVE",
"422 105 OFFCURVE",
"400 105 CURVE SMOOTH",
"200 105 LINE SMOOTH",
"178 105 OFFCURVE",
"170 112 OFFCURVE",
"170 145 CURVE SMOOTH",
"170 170 LINE",
"30 170 LINE"
);
}
);
width = 600;
}
);
},
{
color = 7;
glyphname = four.osf;
lastChange = "2020-07-09 00:39:20 +0000";
layers = (
{
layerId = "5472B35A-B7AE-4E4F-A6B1-630A6CFD37FC";
paths = (
{
closed = 1;
nodes = (
"490 477 LINE SMOOTH",
"490 524 OFFCURVE",
"451 561 OFFCURVE",
"404 561 CURVE SMOOTH",
"382 561 OFFCURVE",
"361 553 OFFCURVE",
"345 537 CURVE SMOOTH",
"77 278 LINE SMOOTH",
"64 265 OFFCURVE",
"50 245 OFFCURVE",
"50 218 CURVE SMOOTH",
"50 172 OFFCURVE",
"90 140 OFFCURVE",
"137 140 CURVE SMOOTH",
"440 140 LINE",
"440 230 LINE",
"144 230 LINE SMOOTH",
"139 230 OFFCURVE",
"136 226 OFFCURVE",
"136 220 CURVE SMOOTH",
"136 215 OFFCURVE",
"145 212 OFFCURVE",
"150 217 CURVE SMOOTH",
"403 461 LINE SMOOTH",
"412 469 OFFCURVE",
"412 485 OFFCURVE",
"400 485 CURVE SMOOTH",
"393 485 OFFCURVE",
"390 478 OFFCURVE",
"390 466 CURVE SMOOTH",
"390 0 LINE",
"490 0 LINE"
);
}
);
width = 540;
},
{
layerId = "A262DCEF-80AC-4544-820F-6C74D2F82537";
paths = (
{
closed = 1;
nodes = (
"460 511 LINE SMOOTH",
"460 542 OFFCURVE",
"434 561 OFFCURVE",
"411 561 CURVE SMOOTH",
"388 561 OFFCURVE",
"373 554 OFFCURVE",
"356 536 CURVE SMOOTH",
"97 256 LINE SMOOTH",
"86 244 OFFCURVE",
"80 231 OFFCURVE",
"80 218 CURVE SMOOTH",
"80 190 OFFCURVE",
"105 170 OFFCURVE",
"137 170 CURVE SMOOTH",
"440 170 LINE",
"440 200 LINE",
"137 200 LINE SMOOTH",
"126 200 OFFCURVE",
"120 206 OFFCURVE",
"120 218 CURVE SMOOTH",
"120 224 OFFCURVE",
"123 231 OFFCURVE",
"127 236 CURVE SMOOTH",
"393 523 LINE SMOOTH",
"399 530 OFFCURVE",
"403 531 OFFCURVE",
"409 531 CURVE SMOOTH",
"414 531 OFFCURVE",
"420 526 OFFCURVE",
"420 512 CURVE SMOOTH",
"420 0 LINE",
"460 0 LINE"
);
}
);
width = 540;
},
{
layerId = "A8E52AE2-2A6A-4CD2-B761-065329444C15";
paths = (
{
closed = 1;
nodes = (
"510 474 LINE SMOOTH",
"510 531 OFFCURVE",
"461 561 OFFCURVE",
"422 561 CURVE SMOOTH",
"378 561 OFFCURVE",
"350 551 OFFCURVE",
"331 533 CURVE SMOOTH",
"76 301 LINE SMOOTH",
"43 271 OFFCURVE",
"30 248 OFFCURVE",
"30 208 CURVE SMOOTH",
"30 163 OFFCURVE",
"77 125 OFFCURVE",
"137 125 CURVE SMOOTH",
"440 125 LINE",
"440 245 LINE",
"200 245 LINE SMOOTH",
"191 245 OFFCURVE",
"187 242 OFFCURVE",
"187 237 CURVE SMOOTH",
"187 232 OFFCURVE",
"195 232 OFFCURVE",
"202 239 CURVE SMOOTH",
"377 399 LINE SMOOTH",
"387 408 OFFCURVE",
"384 417 OFFCURVE",
"378 417 CURVE SMOOTH",
"372 417 OFFCURVE",
"370 411 OFFCURVE",
"370 402 CURVE SMOOTH",
"370 0 LINE",
"510 0 LINE"
);
}
);
width = 540;
}
);
},
{
color = 7;
glyphname = five.osf;
lastChange = "2020-07-08 22:11:09 +0000";
layers = (
{
layerId = "5472B35A-B7AE-4E4F-A6B1-630A6CFD37FC";
paths = (
{
closed = 1;
nodes = (
"50 57 OFFCURVE",
"110 0 OFFCURVE",
"200 0 CURVE SMOOTH",
"400 0 LINE SMOOTH",
"490 0 OFFCURVE",
"550 57 OFFCURVE",
"550 145 CURVE SMOOTH",
"550 200 LINE SMOOTH",
"550 288 OFFCURVE",
"490 345 OFFCURVE",
"400 345 CURVE SMOOTH",
"205 345 LINE SMOOTH",
"171 345 OFFCURVE",
"155 361 OFFCURVE",
"155 400 CURVE SMOOTH",
"155 470 LINE",
"540 470 LINE",
"540 560 LINE",
"55 560 LINE",
"55 400 LINE SMOOTH",
"55 312 OFFCURVE",
"115 255 OFFCURVE",
"205 255 CURVE SMOOTH",
"400 255 LINE SMOOTH",
"434 255 OFFCURVE",
"450 239 OFFCURVE",
"450 200 CURVE SMOOTH",
"450 145 LINE SMOOTH",
"450 106 OFFCURVE",
"434 90 OFFCURVE",
"400 90 CURVE SMOOTH",
"200 90 LINE SMOOTH",
"166 90 OFFCURVE",
"150 106 OFFCURVE",
"150 145 CURVE",
"50 145 LINE"
);
}
);
width = 600;
},
{
layerId = "A262DCEF-80AC-4544-820F-6C74D2F82537";
paths = (
{
closed = 1;
nodes = (
"80 44 OFFCURVE",
"126 0 OFFCURVE",
"200 0 CURVE SMOOTH",
"400 0 LINE SMOOTH",
"474 0 OFFCURVE",
"520 44 OFFCURVE",
"520 115 CURVE SMOOTH",
"520 200 LINE SMOOTH",
"520 271 OFFCURVE",
"474 315 OFFCURVE",
"400 315 CURVE SMOOTH",
"205 315 LINE SMOOTH",
"153 315 OFFCURVE",
"125 345 OFFCURVE",
"125 400 CURVE SMOOTH",
"125 530 LINE",
"510 530 LINE",
"510 560 LINE",
"85 560 LINE",
"85 400 LINE SMOOTH",
"85 329 OFFCURVE",
"131 285 OFFCURVE",
"205 285 CURVE SMOOTH",
"400 285 LINE SMOOTH",
"452 285 OFFCURVE",
"480 255 OFFCURVE",
"480 200 CURVE SMOOTH",
"480 115 LINE SMOOTH",
"480 60 OFFCURVE",
"452 30 OFFCURVE",
"400 30 CURVE SMOOTH",
"200 30 LINE SMOOTH",
"148 30 OFFCURVE",
"120 60 OFFCURVE",
"120 115 CURVE",
"80 115 LINE"
);
}
);
width = 600;
},
{
layerId = "A8E52AE2-2A6A-4CD2-B761-065329444C15";
paths = (
{
closed = 1;
nodes = (
"30 63 OFFCURVE",
"99 0 OFFCURVE",
"200 0 CURVE SMOOTH",
"400 0 LINE SMOOTH",
"501 0 OFFCURVE",
"570 63 OFFCURVE",
"570 160 CURVE SMOOTH",
"570 200 LINE SMOOTH",
"570 297 OFFCURVE",
"501 360 OFFCURVE",
"400 360 CURVE SMOOTH",
"205 360 LINE SMOOTH",
"183 360 OFFCURVE",
"175 367 OFFCURVE",
"175 400 CURVE SMOOTH",
"175 440 LINE",
"555 440 LINE",
"555 560 LINE",
"35 560 LINE",
"35 400 LINE SMOOTH",
"35 303 OFFCURVE",
"104 240 OFFCURVE",
"205 240 CURVE SMOOTH",
"400 240 LINE SMOOTH",
"422 240 OFFCURVE",
"430 233 OFFCURVE",
"430 200 CURVE SMOOTH",
"430 160 LINE SMOOTH",
"430 127 OFFCURVE",
"422 120 OFFCURVE",
"400 120 CURVE SMOOTH",
"200 120 LINE SMOOTH",
"178 120 OFFCURVE",
"170 127 OFFCURVE",
"170 160 CURVE",
"30 160 LINE"
);
}
);
width = 600;
}
);
},
{
color = 7;
glyphname = six.osf;
lastChange = "2020-07-08 22:11:09 +0000";
layers = (
{
layerId = "5472B35A-B7AE-4E4F-A6B1-630A6CFD37FC";
paths = (
{
closed = 1;
nodes = (
"150 222 OFFCURVE",
"166 238 OFFCURVE",
"200 238 CURVE SMOOTH",
"400 238 LINE SMOOTH",
"434 238 OFFCURVE",
"450 222 OFFCURVE",
"450 183 CURVE SMOOTH",
"450 145 LINE SMOOTH",
"450 106 OFFCURVE",
"434 90 OFFCURVE",
"400 90 CURVE SMOOTH",
"200 90 LINE SMOOTH",
"166 90 OFFCURVE",
"150 106 OFFCURVE",
"150 145 CURVE SMOOTH",
"150 415 LINE SMOOTH",
"150 454 OFFCURVE",
"166 470 OFFCURVE",
"200 470 CURVE SMOOTH",
"386 470 LINE SMOOTH",
"420 470 OFFCURVE",
"436 454 OFFCURVE",
"436 415 CURVE SMOOTH",
"436 390 LINE",
"536 390 LINE",
"536 415 LINE SMOOTH",
"536 503 OFFCURVE",
"476 560 OFFCURVE",
"386 560 CURVE SMOOTH",
"200 560 LINE SMOOTH",
"110 560 OFFCURVE",
"50 503 OFFCURVE",
"50 415 CURVE SMOOTH",
"50 145 LINE SMOOTH",
"50 57 OFFCURVE",
"110 0 OFFCURVE",
"200 0 CURVE SMOOTH",
"400 0 LINE SMOOTH",
"490 0 OFFCURVE",
"550 57 OFFCURVE",
"550 145 CURVE SMOOTH",
"550 183 LINE SMOOTH",
"550 271 OFFCURVE",
"490 328 OFFCURVE",
"400 328 CURVE SMOOTH",
"200 328 LINE SMOOTH",
"110 328 OFFCURVE",
"50 271 OFFCURVE",
"50 183 CURVE",
"150 183 LINE"
);
}
);
width = 600;
},
{
layerId = "A262DCEF-80AC-4544-820F-6C74D2F82537";
paths = (
{
closed = 1;
nodes = (
"120 238 OFFCURVE",
"148 268 OFFCURVE",
"200 268 CURVE SMOOTH",
"400 268 LINE SMOOTH",
"452 268 OFFCURVE",
"480 238 OFFCURVE",
"480 183 CURVE SMOOTH",
"480 115 LINE SMOOTH",
"480 60 OFFCURVE",
"452 30 OFFCURVE",
"400 30 CURVE SMOOTH",
"200 30 LINE SMOOTH",
"148 30 OFFCURVE",
"120 60 OFFCURVE",
"120 115 CURVE SMOOTH",
"120 445 LINE SMOOTH",
"120 500 OFFCURVE",
"148 530 OFFCURVE",
"200 530 CURVE SMOOTH",
"386 530 LINE SMOOTH",
"438 530 OFFCURVE",
"466 500 OFFCURVE",
"466 445 CURVE SMOOTH",
"466 420 LINE",
"506 420 LINE",
"506 445 LINE SMOOTH",
"506 516 OFFCURVE",
"460 560 OFFCURVE",
"386 560 CURVE SMOOTH",
"200 560 LINE SMOOTH",
"126 560 OFFCURVE",
"80 516 OFFCURVE",
"80 445 CURVE SMOOTH",
"80 115 LINE SMOOTH",
"80 44 OFFCURVE",
"126 0 OFFCURVE",
"200 0 CURVE SMOOTH",
"400 0 LINE SMOOTH",
"474 0 OFFCURVE",
"520 44 OFFCURVE",
"520 115 CURVE SMOOTH",
"520 183 LINE SMOOTH",
"520 254 OFFCURVE",
"474 298 OFFCURVE",
"400 298 CURVE SMOOTH",
"200 298 LINE SMOOTH",
"126 298 OFFCURVE",
"80 254 OFFCURVE",
"80 183 CURVE",
"120 183 LINE"
);
}
);
width = 600;
},
{
layerId = "A8E52AE2-2A6A-4CD2-B761-065329444C15";
paths = (
{
closed = 1;
nodes = (
"170 216 OFFCURVE",
"178 223 OFFCURVE",
"200 223 CURVE SMOOTH",
"400 223 LINE SMOOTH",
"422 223 OFFCURVE",
"430 216 OFFCURVE",
"430 183 CURVE SMOOTH",
"430 160 LINE SMOOTH",
"430 127 OFFCURVE",
"422 120 OFFCURVE",
"400 120 CURVE SMOOTH",
"200 120 LINE SMOOTH",
"178 120 OFFCURVE",
"170 127 OFFCURVE",
"170 160 CURVE SMOOTH",
"170 400 LINE SMOOTH",
"170 433 OFFCURVE",
"178 440 OFFCURVE",
"200 440 CURVE SMOOTH",
"386 440 LINE SMOOTH",
"408 440 OFFCURVE",
"416 433 OFFCURVE",
"416 400 CURVE SMOOTH",
"416 390 LINE",
"556 390 LINE",
"556 400 LINE SMOOTH",
"556 497 OFFCURVE",
"487 560 OFFCURVE",
"386 560 CURVE SMOOTH",
"200 560 LINE SMOOTH",
"99 560 OFFCURVE",
"30 497 OFFCURVE",
"30 400 CURVE SMOOTH",
"30 160 LINE SMOOTH",
"30 63 OFFCURVE",
"99 0 OFFCURVE",
"200 0 CURVE SMOOTH",
"400 0 LINE SMOOTH",
"501 0 OFFCURVE",
"570 63 OFFCURVE",
"570 160 CURVE SMOOTH",
"570 183 LINE SMOOTH",
"570 280 OFFCURVE",
"501 343 OFFCURVE",
"400 343 CURVE SMOOTH",
"200 343 LINE SMOOTH",
"99 343 OFFCURVE",
"30 280 OFFCURVE",
"30 183 CURVE",
"170 183 LINE"
);
}
);
width = 600;
}
);
},
{
color = 7;
glyphname = seven.osf;
lastChange = "2020-07-08 22:11:09 +0000";
layers = (
{
layerId = "5472B35A-B7AE-4E4F-A6B1-630A6CFD37FC";
paths = (
{
closed = 1;
nodes = (
"270 75 LINE SMOOTH",
"270 106 OFFCURVE",
"280 114 OFFCURVE",
"334 166 CURVE SMOOTH",
"480 309 LINE SMOOTH",
"537 364 OFFCURVE",
"550 393 OFFCURVE",
"550 460 CURVE SMOOTH",
"550 560 LINE",
"50 560 LINE",
"50 470 LINE",
"450 470 LINE",
"450 460 LINE SMOOTH",
"450 416 OFFCURVE",
"447 409 OFFCURVE",
"410 373 CURVE SMOOTH",
"264 230 LINE SMOOTH",
"210 178 OFFCURVE",
"170 144 OFFCURVE",
"170 75 CURVE SMOOTH",
"170 0 LINE",
"270 0 LINE"
);
}
);
width = 600;
},
{
layerId = "A262DCEF-80AC-4544-820F-6C74D2F82537";
paths = (
{
closed = 1;
nodes = (
"240 75 LINE SMOOTH",
"240 120 OFFCURVE",
"260 137 OFFCURVE",
"313 187 CURVE SMOOTH",
"459 330 LINE SMOOTH",
"510 380 OFFCURVE",
"520 401 OFFCURVE",
"520 460 CURVE SMOOTH",
"520 560 LINE",
"80 560 LINE",
"80 530 LINE",
"480 530 LINE",
"480 460 LINE SMOOTH",
"480 408 OFFCURVE",
"473 393 OFFCURVE",
"431 352 CURVE SMOOTH",
"285 209 LINE SMOOTH",
"230 155 OFFCURVE",
"200 130 OFFCURVE",
"200 75 CURVE SMOOTH",
"200 0 LINE",
"240 0 LINE"
);
}
);
width = 600;
},
{
layerId = "A8E52AE2-2A6A-4CD2-B761-065329444C15";
paths = (
{
closed = 1;
nodes = (
"290 75 LINE SMOOTH",
"290 100 OFFCURVE",
"296 105 OFFCURVE",
"348 155 CURVE SMOOTH",
"494 298 LINE SMOOTH",
"555 358 OFFCURVE",
"570 389 OFFCURVE",
"570 460 CURVE SMOOTH",
"570 560 LINE",
"35 560 LINE",
"35 440 LINE",
"430 440 LINE",
"430 460 LINE SMOOTH",
"430 419 OFFCURVE",
"428 415 OFFCURVE",
"396 384 CURVE SMOOTH",
"250 241 LINE SMOOTH",
"174 167 OFFCURVE",
"150 140 OFFCURVE",
"150 75 CURVE SMOOTH",
"150 0 LINE",
"290 0 LINE"
);
}
);
width = 600;
}
);
},
{
color = 7;
glyphname = eight.osf;
lastChange = "2020-07-08 22:11:09 +0000";
layers = (
{
layerId = "5472B35A-B7AE-4E4F-A6B1-630A6CFD37FC";
paths = (
{
closed = 1;
nodes = (
"171 328 OFFCURVE",
"155 344 OFFCURVE",
"155 383 CURVE SMOOTH",
"155 415 LINE SMOOTH",
"155 454 OFFCURVE",
"171 470 OFFCURVE",
"205 470 CURVE SMOOTH",
"391 470 LINE SMOOTH",
"425 470 OFFCURVE",
"441 454 OFFCURVE",
"441 415 CURVE SMOOTH",
"441 383 LINE SMOOTH",
"441 344 OFFCURVE",
"425 328 OFFCURVE",
"391 328 CURVE SMOOTH",
"200 328 LINE SMOOTH",
"110 328 OFFCURVE",
"50 271 OFFCURVE",
"50 183 CURVE SMOOTH",
"50 145 LINE SMOOTH",
"50 57 OFFCURVE",
"110 0 OFFCURVE",
"200 0 CURVE SMOOTH",
"400 0 LINE SMOOTH",
"490 0 OFFCURVE",
"550 57 OFFCURVE",
"550 145 CURVE SMOOTH",
"550 183 LINE SMOOTH",
"550 271 OFFCURVE",
"490 328 OFFCURVE",
"400 328 CURVE",
"400 238 LINE",
"434 238 OFFCURVE",
"450 222 OFFCURVE",
"450 183 CURVE SMOOTH",
"450 145 LINE SMOOTH",
"450 106 OFFCURVE",
"434 90 OFFCURVE",
"400 90 CURVE SMOOTH",
"200 90 LINE SMOOTH",
"166 90 OFFCURVE",
"150 106 OFFCURVE",
"150 145 CURVE SMOOTH",
"150 183 LINE SMOOTH",
"150 222 OFFCURVE",
"166 238 OFFCURVE",
"200 238 CURVE SMOOTH",
"391 238 LINE SMOOTH",
"481 238 OFFCURVE",
"541 295 OFFCURVE",
"541 383 CURVE SMOOTH",
"541 415 LINE SMOOTH",
"541 503 OFFCURVE",
"481 560 OFFCURVE",
"391 560 CURVE SMOOTH",
"205 560 LINE SMOOTH",
"115 560 OFFCURVE",
"55 503 OFFCURVE",
"55 415 CURVE SMOOTH",
"55 383 LINE SMOOTH",
"55 295 OFFCURVE",
"115 238 OFFCURVE",
"205 238 CURVE",
"205 328 LINE"
);
}
);
width = 600;
},
{
layerId = "A262DCEF-80AC-4544-820F-6C74D2F82537";
paths = (
{
closed = 1;
nodes = (
"153 298 OFFCURVE",
"125 328 OFFCURVE",
"125 383 CURVE SMOOTH",
"125 445 LINE SMOOTH",
"125 500 OFFCURVE",
"153 530 OFFCURVE",
"205 530 CURVE SMOOTH",
"391 530 LINE SMOOTH",
"443 530 OFFCURVE",
"471 500 OFFCURVE",
"471 445 CURVE SMOOTH",
"471 383 LINE SMOOTH",
"471 328 OFFCURVE",
"443 298 OFFCURVE",
"391 298 CURVE SMOOTH",
"200 298 LINE SMOOTH",
"126 298 OFFCURVE",
"80 254 OFFCURVE",
"80 183 CURVE SMOOTH",
"80 115 LINE SMOOTH",
"80 44 OFFCURVE",
"126 0 OFFCURVE",
"200 0 CURVE SMOOTH",
"400 0 LINE SMOOTH",
"474 0 OFFCURVE",
"520 44 OFFCURVE",
"520 115 CURVE SMOOTH",
"520 183 LINE SMOOTH",
"520 254 OFFCURVE",
"474 298 OFFCURVE",
"400 298 CURVE",
"400 268 LINE",
"452 268 OFFCURVE",
"480 238 OFFCURVE",
"480 183 CURVE SMOOTH",
"480 115 LINE SMOOTH",
"480 60 OFFCURVE",
"452 30 OFFCURVE",
"400 30 CURVE SMOOTH",
"200 30 LINE SMOOTH",
"148 30 OFFCURVE",
"120 60 OFFCURVE",
"120 115 CURVE SMOOTH",
"120 183 LINE SMOOTH",
"120 238 OFFCURVE",
"148 268 OFFCURVE",
"200 268 CURVE SMOOTH",
"391 268 LINE SMOOTH",
"465 268 OFFCURVE",
"511 312 OFFCURVE",
"511 383 CURVE SMOOTH",
"511 445 LINE SMOOTH",
"511 516 OFFCURVE",
"465 560 OFFCURVE",
"391 560 CURVE SMOOTH",
"205 560 LINE SMOOTH",
"131 560 OFFCURVE",
"85 516 OFFCURVE",
"85 445 CURVE SMOOTH",
"85 383 LINE SMOOTH",
"85 312 OFFCURVE",
"131 268 OFFCURVE",
"205 268 CURVE",
"205 298 LINE"
);
}
);
width = 600;
},
{
layerId = "A8E52AE2-2A6A-4CD2-B761-065329444C15";
paths = (
{
closed = 1;
nodes = (
"183 343 OFFCURVE",
"175 350 OFFCURVE",
"175 383 CURVE SMOOTH",
"175 400 LINE SMOOTH",
"175 433 OFFCURVE",
"183 440 OFFCURVE",
"205 440 CURVE SMOOTH",
"391 440 LINE SMOOTH",
"413 440 OFFCURVE",
"421 433 OFFCURVE",
"421 400 CURVE SMOOTH",
"421 383 LINE SMOOTH",
"421 350 OFFCURVE",
"413 343 OFFCURVE",
"391 343 CURVE SMOOTH",
"200 343 LINE SMOOTH",
"99 343 OFFCURVE",
"30 280 OFFCURVE",
"30 183 CURVE SMOOTH",
"30 160 LINE SMOOTH",
"30 63 OFFCURVE",
"99 0 OFFCURVE",
"200 0 CURVE SMOOTH",
"400 0 LINE SMOOTH",
"501 0 OFFCURVE",
"570 63 OFFCURVE",
"570 160 CURVE SMOOTH",
"570 183 LINE SMOOTH",
"570 280 OFFCURVE",
"501 343 OFFCURVE",
"400 343 CURVE",
"400 223 LINE",
"422 223 OFFCURVE",
"430 216 OFFCURVE",
"430 183 CURVE SMOOTH",
"430 160 LINE SMOOTH",
"430 127 OFFCURVE",
"422 120 OFFCURVE",
"400 120 CURVE SMOOTH",
"200 120 LINE SMOOTH",
"178 120 OFFCURVE",
"170 127 OFFCURVE",
"170 160 CURVE SMOOTH",
"170 183 LINE SMOOTH",
"170 216 OFFCURVE",
"178 223 OFFCURVE",
"200 223 CURVE SMOOTH",
"391 223 LINE SMOOTH",
"492 223 OFFCURVE",
"561 286 OFFCURVE",
"561 383 CURVE SMOOTH",
"561 400 LINE SMOOTH",
"561 497 OFFCURVE",
"492 560 OFFCURVE",
"391 560 CURVE SMOOTH",
"205 560 LINE SMOOTH",
"104 560 OFFCURVE",
"35 497 OFFCURVE",
"35 400 CURVE SMOOTH",
"35 383 LINE SMOOTH",
"35 286 OFFCURVE",
"104 223 OFFCURVE",
"205 223 CURVE",
"205 343 LINE"
);
}
);
width = 600;
}
);
},
{
color = 7;
glyphname = nine.osf;
lastChange = "2020-07-08 22:11:09 +0000";
layers = (
{
layerId = "5472B35A-B7AE-4E4F-A6B1-630A6CFD37FC";
paths = (
{
closed = 1;
nodes = (
"204 322 LINE SMOOTH",
"170 322 OFFCURVE",
"154 338 OFFCURVE",
"154 377 CURVE SMOOTH",
"154 415 LINE SMOOTH",
"154 454 OFFCURVE",
"170 470 OFFCURVE",
"204 470 CURVE SMOOTH",
"400 470 LINE SMOOTH",
"434 470 OFFCURVE",
"450 454 OFFCURVE",
"450 415 CURVE SMOOTH",
"450 145 LINE SMOOTH",
"450 106 OFFCURVE",
"434 90 OFFCURVE",
"400 90 CURVE SMOOTH",
"200 90 LINE SMOOTH",
"166 90 OFFCURVE",
"150 106 OFFCURVE",
"150 145 CURVE SMOOTH",
"150 170 LINE",
"50 170 LINE",
"50 145 LINE SMOOTH",
"50 57 OFFCURVE",
"110 0 OFFCURVE",
"200 0 CURVE SMOOTH",
"400 0 LINE SMOOTH",
"490 0 OFFCURVE",
"550 57 OFFCURVE",
"550 145 CURVE SMOOTH",
"550 415 LINE SMOOTH",
"550 503 OFFCURVE",
"490 560 OFFCURVE",
"400 560 CURVE SMOOTH",
"204 560 LINE SMOOTH",
"114 560 OFFCURVE",
"54 503 OFFCURVE",
"54 415 CURVE SMOOTH",
"54 377 LINE SMOOTH",
"54 289 OFFCURVE",
"114 232 OFFCURVE",
"204 232 CURVE SMOOTH",
"500 232 LINE",
"500 322 LINE"
);
}
);
width = 600;
},
{
layerId = "A262DCEF-80AC-4544-820F-6C74D2F82537";
paths = (
{
closed = 1;
nodes = (
"204 292 LINE SMOOTH",
"152 292 OFFCURVE",
"124 322 OFFCURVE",
"124 377 CURVE SMOOTH",
"124 445 LINE SMOOTH",
"124 500 OFFCURVE",
"152 530 OFFCURVE",
"204 530 CURVE SMOOTH",
"400 530 LINE SMOOTH",
"452 530 OFFCURVE",
"480 500 OFFCURVE",
"480 445 CURVE SMOOTH",
"480 115 LINE SMOOTH",
"480 60 OFFCURVE",
"452 30 OFFCURVE",
"400 30 CURVE SMOOTH",
"200 30 LINE SMOOTH",
"148 30 OFFCURVE",
"120 60 OFFCURVE",
"120 115 CURVE SMOOTH",
"120 170 LINE",
"80 170 LINE",
"80 115 LINE SMOOTH",
"80 44 OFFCURVE",
"126 0 OFFCURVE",
"200 0 CURVE SMOOTH",
"400 0 LINE SMOOTH",
"474 0 OFFCURVE",
"520 44 OFFCURVE",
"520 115 CURVE SMOOTH",
"520 445 LINE SMOOTH",
"520 516 OFFCURVE",
"474 560 OFFCURVE",
"400 560 CURVE SMOOTH",
"204 560 LINE SMOOTH",
"130 560 OFFCURVE",
"84 516 OFFCURVE",
"84 445 CURVE SMOOTH",
"84 377 LINE SMOOTH",
"84 306 OFFCURVE",
"130 262 OFFCURVE",
"204 262 CURVE SMOOTH",
"500 262 LINE",
"500 292 LINE"
);
}
);
width = 600;
},
{
layerId = "A8E52AE2-2A6A-4CD2-B761-065329444C15";
paths = (
{
closed = 1;
nodes = (
"204 337 LINE SMOOTH",
"182 337 OFFCURVE",
"174 344 OFFCURVE",
"174 377 CURVE SMOOTH",
"174 400 LINE SMOOTH",
"174 433 OFFCURVE",
"182 440 OFFCURVE",
"204 440 CURVE SMOOTH",
"400 440 LINE SMOOTH",
"422 440 OFFCURVE",
"430 433 OFFCURVE",
"430 400 CURVE SMOOTH",
"430 160 LINE SMOOTH",
"430 127 OFFCURVE",
"422 120 OFFCURVE",
"400 120 CURVE SMOOTH",
"200 120 LINE SMOOTH",
"178 120 OFFCURVE",
"170 127 OFFCURVE",
"170 160 CURVE SMOOTH",
"170 170 LINE",
"30 170 LINE",
"30 160 LINE SMOOTH",
"30 63 OFFCURVE",
"99 0 OFFCURVE",
"200 0 CURVE SMOOTH",
"400 0 LINE SMOOTH",
"501 0 OFFCURVE",
"570 63 OFFCURVE",
"570 160 CURVE SMOOTH",
"570 400 LINE SMOOTH",
"570 497 OFFCURVE",
"501 560 OFFCURVE",
"400 560 CURVE SMOOTH",
"204 560 LINE SMOOTH",
"103 560 OFFCURVE",
"34 497 OFFCURVE",
"34 400 CURVE SMOOTH",
"34 377 LINE SMOOTH",
"34 280 OFFCURVE",
"103 217 OFFCURVE",
"204 217 CURVE SMOOTH",
"500 217 LINE",
"500 337 LINE"
);
}
);
width = 600;
}
);
},
{
color = 7;
glyphname = zero.osf.zero;
lastChange = "2020-07-17 20:12:48 +0000";
layers = (
{
layerId = "5472B35A-B7AE-4E4F-A6B1-630A6CFD37FC";
paths = (
{
closed = 1;
nodes = (
"460 145 LINE SMOOTH",
"460 106 OFFCURVE",
"444 90 OFFCURVE",
"410 90 CURVE SMOOTH",
"200 90 LINE SMOOTH",
"166 90 OFFCURVE",
"150 106 OFFCURVE",
"150 145 CURVE SMOOTH",
"150 415 LINE SMOOTH",
"150 454 OFFCURVE",
"166 470 OFFCURVE",
"200 470 CURVE SMOOTH",
"410 470 LINE SMOOTH",
"444 470 OFFCURVE",
"460 454 OFFCURVE",
"460 415 CURVE SMOOTH"
);
},
{
closed = 1;
nodes = (
"560 503 OFFCURVE",
"500 560 OFFCURVE",
"410 560 CURVE SMOOTH",
"200 560 LINE SMOOTH",
"110 560 OFFCURVE",
"50 503 OFFCURVE",
"50 415 CURVE SMOOTH",
"50 145 LINE SMOOTH",
"50 57 OFFCURVE",
"110 0 OFFCURVE",
"200 0 CURVE SMOOTH",
"410 0 LINE SMOOTH",
"500 0 OFFCURVE",
"560 57 OFFCURVE",
"560 145 CURVE SMOOTH",
"560 415 LINE SMOOTH"
);
},
{
closed = 1;
nodes = (
"107 124 LINE",
"183 66 LINE",
"503 436 LINE",
"427 494 LINE"
);
}
);
width = 610;
},
{
layerId = "A262DCEF-80AC-4544-820F-6C74D2F82537";
paths = (
{
closed = 1;
nodes = (
"490 115 LINE SMOOTH",
"490 60 OFFCURVE",
"462 30 OFFCURVE",
"410 30 CURVE SMOOTH",
"200 30 LINE SMOOTH",
"148 30 OFFCURVE",
"120 60 OFFCURVE",
"120 115 CURVE SMOOTH",
"120 445 LINE SMOOTH",
"120 500 OFFCURVE",
"148 530 OFFCURVE",
"200 530 CURVE SMOOTH",
"410 530 LINE SMOOTH",
"462 530 OFFCURVE",
"490 500 OFFCURVE",
"490 445 CURVE SMOOTH"
);
},
{
closed = 1;
nodes = (
"530 516 OFFCURVE",
"484 560 OFFCURVE",
"410 560 CURVE SMOOTH",
"200 560 LINE SMOOTH",
"126 560 OFFCURVE",
"80 516 OFFCURVE",
"80 445 CURVE SMOOTH",
"80 115 LINE SMOOTH",
"80 44 OFFCURVE",
"126 0 OFFCURVE",
"200 0 CURVE SMOOTH",
"410 0 LINE SMOOTH",
"484 0 OFFCURVE",
"530 44 OFFCURVE",
"530 115 CURVE SMOOTH",
"530 445 LINE SMOOTH"
);
},
{
closed = 1;
nodes = (
"119 54 LINE",
"151 36 LINE",
"491 506 LINE",
"459 524 LINE"
);
}
);
width = 610;
},
{
layerId = "A8E52AE2-2A6A-4CD2-B761-065329444C15";
paths = (
{
closed = 1;
nodes = (
"440 160 LINE SMOOTH",
"440 127 OFFCURVE",
"432 120 OFFCURVE",
"410 120 CURVE SMOOTH",
"200 120 LINE SMOOTH",
"178 120 OFFCURVE",
"170 127 OFFCURVE",
"170 160 CURVE SMOOTH",
"170 400 LINE SMOOTH",
"170 433 OFFCURVE",
"178 440 OFFCURVE",
"200 440 CURVE SMOOTH",
"410 440 LINE SMOOTH",
"432 440 OFFCURVE",
"440 433 OFFCURVE",
"440 400 CURVE SMOOTH"
);
},
{
closed = 1;
nodes = (
"580 497 OFFCURVE",
"511 560 OFFCURVE",
"410 560 CURVE SMOOTH",
"200 560 LINE SMOOTH",
"99 560 OFFCURVE",
"30 497 OFFCURVE",
"30 400 CURVE SMOOTH",
"30 160 LINE SMOOTH",
"30 63 OFFCURVE",
"99 0 OFFCURVE",
"200 0 CURVE SMOOTH",
"410 0 LINE SMOOTH",
"511 0 OFFCURVE",
"580 63 OFFCURVE",
"580 160 CURVE SMOOTH",
"580 400 LINE SMOOTH"
);
},
{
closed = 1;
nodes = (
"92 134 LINE",
"198 56 LINE",
"518 426 LINE",
"412 504 LINE"
);
}
);
width = 610;
}
);
},
{
color = 6;
export = 0;
glyphname = zero.fwid;
lastChange = "2020-07-09 00:23:29 +0000";
layers = (
{
layerId = "5472B35A-B7AE-4E4F-A6B1-630A6CFD37FC";
paths = (
{
closed = 1;
nodes = (
"550 145 LINE SMOOTH",
"550 106 OFFCURVE",
"534 90 OFFCURVE",
"500 90 CURVE SMOOTH",
"200 90 LINE SMOOTH",
"166 90 OFFCURVE",
"150 106 OFFCURVE",
"150 145 CURVE SMOOTH",
"150 455 LINE SMOOTH",
"150 494 OFFCURVE",
"166 510 OFFCURVE",
"200 510 CURVE SMOOTH",
"500 510 LINE SMOOTH",
"534 510 OFFCURVE",
"550 494 OFFCURVE",
"550 455 CURVE SMOOTH"
);
},
{
closed = 1;
nodes = (
"650 543 OFFCURVE",
"590 600 OFFCURVE",
"500 600 CURVE SMOOTH",
"200 600 LINE SMOOTH",
"110 600 OFFCURVE",
"50 543 OFFCURVE",
"50 455 CURVE SMOOTH",
"50 145 LINE SMOOTH",
"50 57 OFFCURVE",
"110 0 OFFCURVE",
"200 0 CURVE SMOOTH",
"500 0 LINE SMOOTH",
"590 0 OFFCURVE",
"650 57 OFFCURVE",
"650 145 CURVE SMOOTH",
"650 455 LINE SMOOTH"
);
},
{
closed = 1;
nodes = (
"110 127 LINE",
"180 63 LINE",
"590 473 LINE",
"520 537 LINE"
);
}
);
width = 700;
},
{
layerId = "A262DCEF-80AC-4544-820F-6C74D2F82537";
paths = (
{
closed = 1;
nodes = (
"580 145 LINE SMOOTH",
"580 90 OFFCURVE",
"552 60 OFFCURVE",
"500 60 CURVE SMOOTH",
"200 60 LINE SMOOTH",
"148 60 OFFCURVE",
"120 90 OFFCURVE",
"120 145 CURVE SMOOTH",
"120 455 LINE SMOOTH",
"120 510 OFFCURVE",
"148 540 OFFCURVE",
"200 540 CURVE SMOOTH",
"500 540 LINE SMOOTH",
"552 540 OFFCURVE",
"580 510 OFFCURVE",
"580 455 CURVE SMOOTH"
);
},
{
closed = 1;
nodes = (
"620 526 OFFCURVE",
"574 570 OFFCURVE",
"500 570 CURVE SMOOTH",
"200 570 LINE SMOOTH",
"126 570 OFFCURVE",
"80 526 OFFCURVE",
"80 455 CURVE SMOOTH",
"80 145 LINE SMOOTH",
"80 74 OFFCURVE",
"126 30 OFFCURVE",
"200 30 CURVE SMOOTH",
"500 30 LINE SMOOTH",
"574 30 OFFCURVE",
"620 74 OFFCURVE",
"620 145 CURVE SMOOTH",
"620 455 LINE SMOOTH"
);
},
{
closed = 1;
nodes = (
"112 87 LINE",
"140 65 LINE",
"593 518 LINE",
"565 540 LINE"
);
}
);
width = 700;
},
{
layerId = "A8E52AE2-2A6A-4CD2-B761-065329444C15";
paths = (
{
closed = 1;
nodes = (
"530 145 LINE SMOOTH",
"530 112 OFFCURVE",
"522 105 OFFCURVE",
"500 105 CURVE SMOOTH",
"200 105 LINE SMOOTH",
"178 105 OFFCURVE",
"170 112 OFFCURVE",
"170 145 CURVE SMOOTH",
"170 455 LINE SMOOTH",
"170 488 OFFCURVE",
"178 495 OFFCURVE",
"200 495 CURVE SMOOTH",
"500 495 LINE SMOOTH",
"522 495 OFFCURVE",
"530 488 OFFCURVE",
"530 455 CURVE SMOOTH"
);
},
{
closed = 1;
nodes = (
"670 552 OFFCURVE",
"601 615 OFFCURVE",
"500 615 CURVE SMOOTH",
"200 615 LINE SMOOTH",
"99 615 OFFCURVE",
"30 552 OFFCURVE",
"30 455 CURVE SMOOTH",
"30 145 LINE SMOOTH",
"30 48 OFFCURVE",
"99 -15 OFFCURVE",
"200 -15 CURVE SMOOTH",
"500 -15 LINE SMOOTH",
"601 -15 OFFCURVE",
"670 48 OFFCURVE",
"670 145 CURVE SMOOTH",
"670 455 LINE SMOOTH"
);
},
{
closed = 1;
nodes = (
"96 137 LINE",
"194 53 LINE",
"604 463 LINE",
"506 547 LINE"
);
}
);
width = 700;
}
);
},
{
color = 6;
export = 0;
glyphname = one.fwid;
lastChange = "2020-07-09 00:23:29 +0000";
layers = (
{
layerId = "5472B35A-B7AE-4E4F-A6B1-630A6CFD37FC";
paths = (
{
closed = 1;
nodes = (
"250 510 LINE SMOOTH",
"284 510 OFFCURVE",
"300 494 OFFCURVE",
"300 455 CURVE SMOOTH",
"300 45 LINE",
"400 45 LINE",
"400 455 LINE SMOOTH",
"400 543 OFFCURVE",
"340 600 OFFCURVE",
"250 600 CURVE SMOOTH",
"190 600 LINE",
"190 510 LINE"
);
},
{
closed = 1;
nodes = (
"100 90 LINE",
"100 0 LINE",
"600 0 LINE",
"600 90 LINE"
);
}
);
width = 700;
},
{
layerId = "A262DCEF-80AC-4544-820F-6C74D2F82537";
paths = (
{
closed = 1;
nodes = (
"250 540 LINE SMOOTH",
"302 540 OFFCURVE",
"330 510 OFFCURVE",
"330 455 CURVE SMOOTH",
"330 45 LINE",
"370 45 LINE",
"370 455 LINE SMOOTH",
"370 526 OFFCURVE",
"324 570 OFFCURVE",
"250 570 CURVE SMOOTH",
"190 570 LINE",
"190 540 LINE"
);
},
{
closed = 1;
nodes = (
"100 60 LINE",
"100 30 LINE",
"600 30 LINE",
"600 60 LINE"
);
}
);
width = 700;
},
{
layerId = "A8E52AE2-2A6A-4CD2-B761-065329444C15";
paths = (
{
closed = 1;
nodes = (
"250 495 LINE SMOOTH",
"272 495 OFFCURVE",
"280 488 OFFCURVE",
"280 455 CURVE SMOOTH",
"280 45 LINE",
"420 45 LINE",
"420 455 LINE SMOOTH",
"420 552 OFFCURVE",
"351 615 OFFCURVE",
"250 615 CURVE SMOOTH",
"190 615 LINE",
"190 495 LINE"
);
},
{
closed = 1;
nodes = (
"100 105 LINE",
"100 -15 LINE",
"600 -15 LINE",
"600 105 LINE"
);
}
);
width = 700;
}
);
},
{
color = 6;
export = 0;
glyphname = two.fwid;
lastChange = "2020-07-09 00:23:29 +0000";
layers = (
{
layerId = "5472B35A-B7AE-4E4F-A6B1-630A6CFD37FC";
paths = (
{
closed = 1;
nodes = (
"150 494 OFFCURVE",
"166 510 OFFCURVE",
"200 510 CURVE SMOOTH",
"500 510 LINE SMOOTH",
"534 510 OFFCURVE",
"550 494 OFFCURVE",
"550 455 CURVE SMOOTH",
"550 410 LINE SMOOTH",
"550 384 OFFCURVE",
"539 371 OFFCURVE",
"484 353 CURVE SMOOTH",
"184 253 LINE SMOOTH",
"91 221 OFFCURVE",
"50 179 OFFCURVE",
"50 110 CURVE SMOOTH",
"50 0 LINE",
"650 0 LINE",
"650 90 LINE",
"150 90 LINE",
"150 110 LINE SMOOTH",
"150 136 OFFCURVE",
"161 149 OFFCURVE",
"216 167 CURVE SMOOTH",
"516 267 LINE SMOOTH",
"609 299 OFFCURVE",
"650 341 OFFCURVE",
"650 410 CURVE SMOOTH",
"650 455 LINE SMOOTH",
"650 543 OFFCURVE",
"590 600 OFFCURVE",
"500 600 CURVE SMOOTH",
"200 600 LINE SMOOTH",
"110 600 OFFCURVE",
"50 543 OFFCURVE",
"50 455 CURVE",
"150 455 LINE"
);
}
);
width = 700;
},
{
layerId = "A262DCEF-80AC-4544-820F-6C74D2F82537";
paths = (
{
closed = 1;
nodes = (
"120 510 OFFCURVE",
"148 540 OFFCURVE",
"200 540 CURVE SMOOTH",
"500 540 LINE SMOOTH",
"552 540 OFFCURVE",
"580 510 OFFCURVE",
"580 455 CURVE SMOOTH",
"580 410 LINE SMOOTH",
"580 368 OFFCURVE",
"559 346 OFFCURVE",
"494 324 CURVE SMOOTH",
"194 224 LINE SMOOTH",
"112 197 OFFCURVE",
"80 165 OFFCURVE",
"80 110 CURVE SMOOTH",
"80 30 LINE",
"650 30 LINE",
"650 60 LINE",
"120 60 LINE",
"120 110 LINE SMOOTH",
"120 152 OFFCURVE",
"141 174 OFFCURVE",
"206 196 CURVE SMOOTH",
"506 296 LINE SMOOTH",
"588 323 OFFCURVE",
"620 355 OFFCURVE",
"620 410 CURVE SMOOTH",
"620 455 LINE SMOOTH",
"620 526 OFFCURVE",
"574 570 OFFCURVE",
"500 570 CURVE SMOOTH",
"200 570 LINE SMOOTH",
"126 570 OFFCURVE",
"80 526 OFFCURVE",
"80 455 CURVE",
"120 455 LINE"
);
}
);
width = 700;
},
{
layerId = "A8E52AE2-2A6A-4CD2-B761-065329444C15";
paths = (
{
closed = 1;
nodes = (
"170 488 OFFCURVE",
"178 495 OFFCURVE",
"200 495 CURVE SMOOTH",
"500 495 LINE SMOOTH",
"522 495 OFFCURVE",
"530 488 OFFCURVE",
"530 455 CURVE SMOOTH",
"530 410 LINE SMOOTH",
"530 390 OFFCURVE",
"526 383 OFFCURVE",
"478 367 CURVE SMOOTH",
"178 267 LINE SMOOTH",
"80 234 OFFCURVE",
"30 189 OFFCURVE",
"30 110 CURVE SMOOTH",
"30 -15 LINE",
"650 -15 LINE",
"650 105 LINE",
"170 105 LINE",
"170 110 LINE SMOOTH",
"170 130 OFFCURVE",
"174 137 OFFCURVE",
"222 153 CURVE SMOOTH",
"522 253 LINE SMOOTH",
"620 286 OFFCURVE",
"670 331 OFFCURVE",
"670 410 CURVE SMOOTH",
"670 455 LINE SMOOTH",
"670 552 OFFCURVE",
"601 615 OFFCURVE",
"500 615 CURVE SMOOTH",
"200 615 LINE SMOOTH",
"99 615 OFFCURVE",
"30 552 OFFCURVE",
"30 455 CURVE",
"170 455 LINE"
);
}
);
width = 700;
}
);
},
{
color = 6;
export = 0;
glyphname = three.fwid;
lastChange = "2020-07-09 00:23:29 +0000";
layers = (
{
layerId = "5472B35A-B7AE-4E4F-A6B1-630A6CFD37FC";
paths = (
{
closed = 1;
nodes = (
"155 455 LINE SMOOTH",
"155 494 OFFCURVE",
"171 510 OFFCURVE",
"205 510 CURVE SMOOTH",
"491 510 LINE SMOOTH",
"525 510 OFFCURVE",
"541 494 OFFCURVE",
"541 455 CURVE SMOOTH",
"541 403 LINE SMOOTH",
"541 364 OFFCURVE",
"525 348 OFFCURVE",
"491 348 CURVE",
"491 258 LINE",
"581 258 OFFCURVE",
"641 315 OFFCURVE",
"641 403 CURVE SMOOTH",
"641 455 LINE SMOOTH",
"641 543 OFFCURVE",
"581 600 OFFCURVE",
"491 600 CURVE SMOOTH",
"205 600 LINE SMOOTH",
"115 600 OFFCURVE",
"55 543 OFFCURVE",
"55 455 CURVE SMOOTH",
"55 430 LINE",
"155 430 LINE"
);
},
{
closed = 1;
nodes = (
"50 145 LINE SMOOTH",
"50 57 OFFCURVE",
"110 0 OFFCURVE",
"200 0 CURVE SMOOTH",
"500 0 LINE SMOOTH",
"590 0 OFFCURVE",
"650 57 OFFCURVE",
"650 145 CURVE SMOOTH",
"650 203 LINE SMOOTH",
"650 291 OFFCURVE",
"590 348 OFFCURVE",
"500 348 CURVE SMOOTH",
"315 348 LINE",
"315 258 LINE",
"500 258 LINE SMOOTH",
"534 258 OFFCURVE",
"550 242 OFFCURVE",
"550 203 CURVE SMOOTH",
"550 145 LINE SMOOTH",
"550 106 OFFCURVE",
"534 90 OFFCURVE",
"500 90 CURVE SMOOTH",
"200 90 LINE SMOOTH",
"166 90 OFFCURVE",
"150 106 OFFCURVE",
"150 145 CURVE SMOOTH",
"150 170 LINE",
"50 170 LINE"
);
}
);
width = 700;
},
{
layerId = "A262DCEF-80AC-4544-820F-6C74D2F82537";
paths = (
{
closed = 1;
nodes = (
"125 455 LINE SMOOTH",
"125 510 OFFCURVE",
"153 540 OFFCURVE",
"205 540 CURVE SMOOTH",
"491 540 LINE SMOOTH",
"543 540 OFFCURVE",
"571 510 OFFCURVE",
"571 455 CURVE SMOOTH",
"571 403 LINE SMOOTH",
"571 348 OFFCURVE",
"543 318 OFFCURVE",
"491 318 CURVE",
"491 288 LINE",
"565 288 OFFCURVE",
"611 332 OFFCURVE",
"611 403 CURVE SMOOTH",
"611 455 LINE SMOOTH",
"611 526 OFFCURVE",
"565 570 OFFCURVE",
"491 570 CURVE SMOOTH",
"205 570 LINE SMOOTH",
"131 570 OFFCURVE",
"85 526 OFFCURVE",
"85 455 CURVE SMOOTH",
"85 430 LINE",
"125 430 LINE"
);
},
{
closed = 1;
nodes = (
"80 145 LINE SMOOTH",
"80 74 OFFCURVE",
"126 30 OFFCURVE",
"200 30 CURVE SMOOTH",
"500 30 LINE SMOOTH",
"574 30 OFFCURVE",
"620 74 OFFCURVE",
"620 145 CURVE SMOOTH",
"620 203 LINE SMOOTH",
"620 274 OFFCURVE",
"574 318 OFFCURVE",
"500 318 CURVE SMOOTH",
"315 318 LINE",
"315 288 LINE",
"500 288 LINE SMOOTH",
"552 288 OFFCURVE",
"580 258 OFFCURVE",
"580 203 CURVE SMOOTH",
"580 145 LINE SMOOTH",
"580 90 OFFCURVE",
"552 60 OFFCURVE",
"500 60 CURVE SMOOTH",
"200 60 LINE SMOOTH",
"148 60 OFFCURVE",
"120 90 OFFCURVE",
"120 145 CURVE SMOOTH",
"120 170 LINE",
"80 170 LINE"
);
}
);
width = 700;
},
{
layerId = "A8E52AE2-2A6A-4CD2-B761-065329444C15";
paths = (
{
closed = 1;
nodes = (
"175 455 LINE SMOOTH",
"175 488 OFFCURVE",
"183 495 OFFCURVE",
"205 495 CURVE SMOOTH",
"491 495 LINE SMOOTH",
"513 495 OFFCURVE",
"521 488 OFFCURVE",
"521 455 CURVE SMOOTH",
"521 403 LINE SMOOTH",
"521 370 OFFCURVE",
"513 363 OFFCURVE",
"491 363 CURVE",
"491 243 LINE",
"592 243 OFFCURVE",
"661 306 OFFCURVE",
"661 403 CURVE SMOOTH",
"661 455 LINE SMOOTH",
"661 552 OFFCURVE",
"592 615 OFFCURVE",
"491 615 CURVE SMOOTH",
"205 615 LINE SMOOTH",
"104 615 OFFCURVE",
"35 552 OFFCURVE",
"35 455 CURVE SMOOTH",
"35 430 LINE",
"175 430 LINE"
);
},
{
closed = 1;
nodes = (
"30 145 LINE SMOOTH",
"30 48 OFFCURVE",
"99 -15 OFFCURVE",
"200 -15 CURVE SMOOTH",
"500 -15 LINE SMOOTH",
"601 -15 OFFCURVE",
"670 48 OFFCURVE",
"670 145 CURVE SMOOTH",
"670 203 LINE SMOOTH",
"670 300 OFFCURVE",
"601 363 OFFCURVE",
"500 363 CURVE SMOOTH",
"315 363 LINE",
"315 243 LINE",
"500 243 LINE SMOOTH",
"522 243 OFFCURVE",
"530 236 OFFCURVE",
"530 203 CURVE SMOOTH",
"530 145 LINE SMOOTH",
"530 112 OFFCURVE",
"522 105 OFFCURVE",
"500 105 CURVE SMOOTH",
"200 105 LINE SMOOTH",
"178 105 OFFCURVE",
"170 112 OFFCURVE",
"170 145 CURVE SMOOTH",
"170 170 LINE",
"30 170 LINE"
);
}
);
width = 700;
}
);
},
{
color = 6;
export = 0;
glyphname = four.fwid;
lastChange = "2020-07-09 00:35:02 +0000";
layers = (
{
layerId = "5472B35A-B7AE-4E4F-A6B1-630A6CFD37FC";
paths = (
{
closed = 1;
nodes = (
"437 515 LINE SMOOTH",
"442 520 OFFCURVE",
"443 528 OFFCURVE",
"438 528 CURVE SMOOTH",
"434 528 OFFCURVE",
"430 522 OFFCURVE",
"430 513 CURVE SMOOTH",
"430 0 LINE",
"530 0 LINE",
"530 484 LINE SMOOTH",
"530 555 OFFCURVE",
"516 600 OFFCURVE",
"453 600 CURVE SMOOTH",
"417 600 OFFCURVE",
"382 594 OFFCURVE",
"342 554 CURVE SMOOTH",
"90 306 LINE SMOOTH",
"57 273 OFFCURVE",
"50 259 OFFCURVE",
"50 235 CURVE SMOOTH",
"50 191 OFFCURVE",
"88 160 OFFCURVE",
"132 160 CURVE SMOOTH",
"590 160 LINE",
"590 250 LINE",
"142 250 LINE SMOOTH",
"128 250 OFFCURVE",
"123 243 OFFCURVE",
"123 235 CURVE SMOOTH",
"123 228 OFFCURVE",
"133 215 OFFCURVE",
"144 226 CURVE SMOOTH"
);
}
);
width = 700;
},
{
layerId = "A262DCEF-80AC-4544-820F-6C74D2F82537";
paths = (
{
closed = 1;
nodes = (
"392 542 LINE SMOOTH",
"409 561 OFFCURVE",
"420 570 OFFCURVE",
"437 570 CURVE SMOOTH",
"456 570 OFFCURVE",
"460 557 OFFCURVE",
"460 544 CURVE SMOOTH",
"460 0 LINE",
"500 0 LINE",
"500 534 LINE SMOOTH",
"500 574 OFFCURVE",
"478 600 OFFCURVE",
"437 600 CURVE SMOOTH",
"412 600 OFFCURVE",
"383 586 OFFCURVE",
"362 562 CURVE SMOOTH",
"96 270 LINE SMOOTH",
"85 258 OFFCURVE",
"80 247 OFFCURVE",
"80 235 CURVE SMOOTH",
"80 209 OFFCURVE",
"104 190 OFFCURVE",
"132 190 CURVE SMOOTH",
"560 190 LINE",
"560 220 LINE",
"142 220 LINE SMOOTH",
"125 220 OFFCURVE",
"120 225 OFFCURVE",
"120 235 CURVE SMOOTH",
"120 240 OFFCURVE",
"122 246 OFFCURVE",
"126 250 CURVE"
);
}
);
width = 700;
},
{
layerId = "A8E52AE2-2A6A-4CD2-B761-065329444C15";
paths = (
{
closed = 1;
nodes = (
"419 458 LINE SMOOTH",
"431 469 OFFCURVE",
"426 477 OFFCURVE",
"419 477 CURVE SMOOTH",
"411 477 OFFCURVE",
"410 471 OFFCURVE",
"410 459 CURVE SMOOTH",
"410 0 LINE",
"550 0 LINE",
"550 469 LINE SMOOTH",
"550 545 OFFCURVE",
"507 600 OFFCURVE",
"437 600 CURVE SMOOTH",
"400 600 OFFCURVE",
"362 581 OFFCURVE",
"329 551 CURVE SMOOTH",
"63 304 LINE",
"39 282 OFFCURVE",
"30 260 OFFCURVE",
"30 235 CURVE SMOOTH",
"30 181 OFFCURVE",
"78 145 OFFCURVE",
"132 145 CURVE SMOOTH",
"605 145 LINE",
"605 265 LINE",
"172 265 LINE SMOOTH",
"143 265 OFFCURVE",
"132 256 OFFCURVE",
"132 239 CURVE SMOOTH",
"132 226 OFFCURVE",
"153 211 OFFCURVE",
"172 229 CURVE SMOOTH"
);
}
);
width = 700;
}
);
},
{
color = 6;
export = 0;
glyphname = five.fwid;
lastChange = "2020-07-09 00:23:29 +0000";
layers = (
{
layerId = "5472B35A-B7AE-4E4F-A6B1-630A6CFD37FC";
paths = (
{
closed = 1;
nodes = (
"50 57 OFFCURVE",
"110 0 OFFCURVE",
"200 0 CURVE SMOOTH",
"500 0 LINE SMOOTH",
"590 0 OFFCURVE",
"650 57 OFFCURVE",
"650 145 CURVE SMOOTH",
"650 220 LINE SMOOTH",
"650 308 OFFCURVE",
"590 365 OFFCURVE",
"500 365 CURVE SMOOTH",
"205 365 LINE SMOOTH",
"171 365 OFFCURVE",
"155 381 OFFCURVE",
"155 420 CURVE SMOOTH",
"155 510 LINE",
"630 510 LINE",
"630 600 LINE",
"55 600 LINE",
"55 420 LINE SMOOTH",
"55 332 OFFCURVE",
"115 275 OFFCURVE",
"205 275 CURVE SMOOTH",
"500 275 LINE SMOOTH",
"534 275 OFFCURVE",
"550 259 OFFCURVE",
"550 220 CURVE SMOOTH",
"550 145 LINE SMOOTH",
"550 106 OFFCURVE",
"534 90 OFFCURVE",
"500 90 CURVE SMOOTH",
"200 90 LINE SMOOTH",
"166 90 OFFCURVE",
"150 106 OFFCURVE",
"150 145 CURVE",
"50 145 LINE"
);
}
);
width = 700;
},
{
layerId = "A262DCEF-80AC-4544-820F-6C74D2F82537";
paths = (
{
closed = 1;
nodes = (
"80 74 OFFCURVE",
"126 30 OFFCURVE",
"200 30 CURVE SMOOTH",
"500 30 LINE SMOOTH",
"574 30 OFFCURVE",
"620 74 OFFCURVE",
"620 145 CURVE SMOOTH",
"620 220 LINE SMOOTH",
"620 291 OFFCURVE",
"574 335 OFFCURVE",
"500 335 CURVE SMOOTH",
"205 335 LINE SMOOTH",
"153 335 OFFCURVE",
"125 365 OFFCURVE",
"125 420 CURVE SMOOTH",
"125 540 LINE",
"630 540 LINE",
"630 570 LINE",
"85 570 LINE",
"85 420 LINE SMOOTH",
"85 349 OFFCURVE",
"131 305 OFFCURVE",
"205 305 CURVE SMOOTH",
"500 305 LINE SMOOTH",
"552 305 OFFCURVE",
"580 275 OFFCURVE",
"580 220 CURVE SMOOTH",
"580 145 LINE SMOOTH",
"580 90 OFFCURVE",
"552 60 OFFCURVE",
"500 60 CURVE SMOOTH",
"200 60 LINE SMOOTH",
"148 60 OFFCURVE",
"120 90 OFFCURVE",
"120 145 CURVE",
"80 145 LINE"
);
}
);
width = 700;
},
{
layerId = "A8E52AE2-2A6A-4CD2-B761-065329444C15";
paths = (
{
closed = 1;
nodes = (
"30 48 OFFCURVE",
"99 -15 OFFCURVE",
"200 -15 CURVE SMOOTH",
"500 -15 LINE SMOOTH",
"601 -15 OFFCURVE",
"670 48 OFFCURVE",
"670 145 CURVE SMOOTH",
"670 220 LINE SMOOTH",
"670 317 OFFCURVE",
"601 380 OFFCURVE",
"500 380 CURVE SMOOTH",
"205 380 LINE SMOOTH",
"183 380 OFFCURVE",
"175 387 OFFCURVE",
"175 420 CURVE SMOOTH",
"175 495 LINE",
"630 495 LINE",
"630 615 LINE",
"35 615 LINE",
"35 420 LINE SMOOTH",
"35 323 OFFCURVE",
"104 260 OFFCURVE",
"205 260 CURVE SMOOTH",
"500 260 LINE SMOOTH",
"522 260 OFFCURVE",
"530 253 OFFCURVE",
"530 220 CURVE SMOOTH",
"530 145 LINE SMOOTH",
"530 112 OFFCURVE",
"522 105 OFFCURVE",
"500 105 CURVE SMOOTH",
"200 105 LINE SMOOTH",
"178 105 OFFCURVE",
"170 112 OFFCURVE",
"170 145 CURVE",
"30 145 LINE"
);
}
);
width = 700;
}
);
},
{
color = 6;
export = 0;
glyphname = six.fwid;
lastChange = "2020-07-09 00:23:29 +0000";
layers = (
{
layerId = "5472B35A-B7AE-4E4F-A6B1-630A6CFD37FC";
paths = (
{
closed = 1;
nodes = (
"150 242 OFFCURVE",
"166 258 OFFCURVE",
"200 258 CURVE SMOOTH",
"500 258 LINE SMOOTH",
"534 258 OFFCURVE",
"550 242 OFFCURVE",
"550 203 CURVE SMOOTH",
"550 145 LINE SMOOTH",
"550 106 OFFCURVE",
"534 90 OFFCURVE",
"500 90 CURVE SMOOTH",
"200 90 LINE SMOOTH",
"166 90 OFFCURVE",
"150 106 OFFCURVE",
"150 145 CURVE SMOOTH",
"150 455 LINE SMOOTH",
"150 494 OFFCURVE",
"166 510 OFFCURVE",
"200 510 CURVE SMOOTH",
"486 510 LINE SMOOTH",
"520 510 OFFCURVE",
"536 494 OFFCURVE",
"536 455 CURVE SMOOTH",
"536 430 LINE",
"636 430 LINE",
"636 455 LINE SMOOTH",
"636 543 OFFCURVE",
"576 600 OFFCURVE",
"486 600 CURVE SMOOTH",
"200 600 LINE SMOOTH",
"110 600 OFFCURVE",
"50 543 OFFCURVE",
"50 455 CURVE SMOOTH",
"50 145 LINE SMOOTH",
"50 57 OFFCURVE",
"110 0 OFFCURVE",
"200 0 CURVE SMOOTH",
"500 0 LINE SMOOTH",
"590 0 OFFCURVE",
"650 57 OFFCURVE",
"650 145 CURVE SMOOTH",
"650 203 LINE SMOOTH",
"650 291 OFFCURVE",
"590 348 OFFCURVE",
"500 348 CURVE SMOOTH",
"200 348 LINE SMOOTH",
"110 348 OFFCURVE",
"50 291 OFFCURVE",
"50 203 CURVE",
"150 203 LINE"
);
}
);
width = 700;
},
{
layerId = "A262DCEF-80AC-4544-820F-6C74D2F82537";
paths = (
{
closed = 1;
nodes = (
"120 258 OFFCURVE",
"148 288 OFFCURVE",
"200 288 CURVE SMOOTH",
"500 288 LINE SMOOTH",
"552 288 OFFCURVE",
"580 258 OFFCURVE",
"580 203 CURVE SMOOTH",
"580 145 LINE SMOOTH",
"580 90 OFFCURVE",
"552 60 OFFCURVE",
"500 60 CURVE SMOOTH",
"200 60 LINE SMOOTH",
"148 60 OFFCURVE",
"120 90 OFFCURVE",
"120 145 CURVE SMOOTH",
"120 455 LINE SMOOTH",
"120 510 OFFCURVE",
"148 540 OFFCURVE",
"200 540 CURVE SMOOTH",
"486 540 LINE SMOOTH",
"538 540 OFFCURVE",
"566 510 OFFCURVE",
"566 455 CURVE SMOOTH",
"566 430 LINE",
"606 430 LINE",
"606 455 LINE SMOOTH",
"606 526 OFFCURVE",
"560 570 OFFCURVE",
"486 570 CURVE SMOOTH",
"200 570 LINE SMOOTH",
"126 570 OFFCURVE",
"80 526 OFFCURVE",
"80 455 CURVE SMOOTH",
"80 145 LINE SMOOTH",
"80 74 OFFCURVE",
"126 30 OFFCURVE",
"200 30 CURVE SMOOTH",
"500 30 LINE SMOOTH",
"574 30 OFFCURVE",
"620 74 OFFCURVE",
"620 145 CURVE SMOOTH",
"620 203 LINE SMOOTH",
"620 274 OFFCURVE",
"574 318 OFFCURVE",
"500 318 CURVE SMOOTH",
"200 318 LINE SMOOTH",
"126 318 OFFCURVE",
"80 274 OFFCURVE",
"80 203 CURVE",
"120 203 LINE"
);
}
);
width = 700;
},
{
layerId = "A8E52AE2-2A6A-4CD2-B761-065329444C15";
paths = (
{
closed = 1;
nodes = (
"170 236 OFFCURVE",
"178 243 OFFCURVE",
"200 243 CURVE SMOOTH",
"500 243 LINE SMOOTH",
"522 243 OFFCURVE",
"530 236 OFFCURVE",
"530 203 CURVE SMOOTH",
"530 145 LINE SMOOTH",
"530 112 OFFCURVE",
"522 105 OFFCURVE",
"500 105 CURVE SMOOTH",
"200 105 LINE SMOOTH",
"178 105 OFFCURVE",
"170 112 OFFCURVE",
"170 145 CURVE SMOOTH",
"170 455 LINE SMOOTH",
"170 488 OFFCURVE",
"178 495 OFFCURVE",
"200 495 CURVE SMOOTH",
"486 495 LINE SMOOTH",
"508 495 OFFCURVE",
"516 488 OFFCURVE",
"516 455 CURVE SMOOTH",
"516 430 LINE",
"656 430 LINE",
"656 455 LINE SMOOTH",
"656 552 OFFCURVE",
"587 615 OFFCURVE",
"486 615 CURVE SMOOTH",
"200 615 LINE SMOOTH",
"99 615 OFFCURVE",
"30 552 OFFCURVE",
"30 455 CURVE SMOOTH",
"30 145 LINE SMOOTH",
"30 48 OFFCURVE",
"99 -15 OFFCURVE",
"200 -15 CURVE SMOOTH",
"500 -15 LINE SMOOTH",
"601 -15 OFFCURVE",
"670 48 OFFCURVE",
"670 145 CURVE SMOOTH",
"670 203 LINE SMOOTH",
"670 300 OFFCURVE",
"601 363 OFFCURVE",
"500 363 CURVE SMOOTH",
"200 363 LINE SMOOTH",
"99 363 OFFCURVE",
"30 300 OFFCURVE",
"30 203 CURVE",
"170 203 LINE"
);
}
);
width = 700;
}
);
},
{
color = 6;
export = 0;
glyphname = seven.fwid;
lastChange = "2020-07-09 00:23:29 +0000";
layers = (
{
layerId = "5472B35A-B7AE-4E4F-A6B1-630A6CFD37FC";
paths = (
{
closed = 1;
nodes = (
"290 75 LINE SMOOTH",
"290 110 OFFCURVE",
"300 127 OFFCURVE",
"348 162 CURVE SMOOTH",
"574 325 LINE SMOOTH",
"657 385 OFFCURVE",
"650 433 OFFCURVE",
"650 480 CURVE SMOOTH",
"650 600 LINE",
"50 600 LINE",
"50 510 LINE",
"550 510 LINE",
"550 480 LINE SMOOTH",
"550 427 OFFCURVE",
"551 423 OFFCURVE",
"516 397 CURVE SMOOTH",
"290 234 LINE SMOOTH",
"216 182 OFFCURVE",
"190 141 OFFCURVE",
"190 75 CURVE SMOOTH",
"190 0 LINE",
"290 0 LINE"
);
}
);
width = 700;
},
{
layerId = "A262DCEF-80AC-4544-820F-6C74D2F82537";
paths = (
{
closed = 1;
nodes = (
"260 75 LINE SMOOTH",
"260 121 OFFCURVE",
"276 146 OFFCURVE",
"331 186 CURVE SMOOTH",
"557 349 LINE SMOOTH",
"625 399 OFFCURVE",
"620 431 OFFCURVE",
"620 480 CURVE SMOOTH",
"620 570 LINE",
"50 570 LINE",
"50 540 LINE",
"580 540 LINE",
"580 480 LINE SMOOTH",
"580 429 OFFCURVE",
"583 409 OFFCURVE",
"533 373 CURVE SMOOTH",
"307 210 LINE SMOOTH",
"242 163 OFFCURVE",
"220 130 OFFCURVE",
"220 75 CURVE SMOOTH",
"220 0 LINE",
"260 0 LINE"
);
}
);
width = 700;
},
{
layerId = "A8E52AE2-2A6A-4CD2-B761-065329444C15";
paths = (
{
closed = 1;
nodes = (
"310 75 LINE SMOOTH",
"310 106 OFFCURVE",
"318 119 OFFCURVE",
"360 149 CURVE SMOOTH",
"586 312 LINE SMOOTH",
"656 363 OFFCURVE",
"670 394 OFFCURVE",
"670 480 CURVE SMOOTH",
"670 615 LINE",
"50 615 LINE",
"50 495 LINE",
"530 495 LINE",
"530 480 LINE SMOOTH",
"530 427 OFFCURVE",
"530 429 OFFCURVE",
"504 410 CURVE SMOOTH",
"278 247 LINE SMOOTH",
"199 189 OFFCURVE",
"170 146 OFFCURVE",
"170 75 CURVE SMOOTH",
"170 0 LINE",
"310 0 LINE"
);
}
);
width = 700;
}
);
},
{
color = 6;
export = 0;
glyphname = eight.fwid;
lastChange = "2020-07-09 00:23:29 +0000";
layers = (
{
layerId = "5472B35A-B7AE-4E4F-A6B1-630A6CFD37FC";
paths = (
{
closed = 1;
nodes = (
"171 348 OFFCURVE",
"155 364 OFFCURVE",
"155 403 CURVE SMOOTH",
"155 455 LINE SMOOTH",
"155 494 OFFCURVE",
"171 510 OFFCURVE",
"205 510 CURVE SMOOTH",
"491 510 LINE SMOOTH",
"525 510 OFFCURVE",
"541 494 OFFCURVE",
"541 455 CURVE SMOOTH",
"541 403 LINE SMOOTH",
"541 364 OFFCURVE",
"525 348 OFFCURVE",
"491 348 CURVE SMOOTH",
"200 348 LINE SMOOTH",
"110 348 OFFCURVE",
"50 291 OFFCURVE",
"50 203 CURVE SMOOTH",
"50 145 LINE SMOOTH",
"50 57 OFFCURVE",
"110 0 OFFCURVE",
"200 0 CURVE SMOOTH",
"500 0 LINE SMOOTH",
"590 0 OFFCURVE",
"650 57 OFFCURVE",
"650 145 CURVE SMOOTH",
"650 203 LINE SMOOTH",
"650 291 OFFCURVE",
"590 348 OFFCURVE",
"500 348 CURVE",
"500 258 LINE",
"534 258 OFFCURVE",
"550 242 OFFCURVE",
"550 203 CURVE SMOOTH",
"550 145 LINE SMOOTH",
"550 106 OFFCURVE",
"534 90 OFFCURVE",
"500 90 CURVE SMOOTH",
"200 90 LINE SMOOTH",
"166 90 OFFCURVE",
"150 106 OFFCURVE",
"150 145 CURVE SMOOTH",
"150 203 LINE SMOOTH",
"150 242 OFFCURVE",
"166 258 OFFCURVE",
"200 258 CURVE SMOOTH",
"491 258 LINE SMOOTH",
"581 258 OFFCURVE",
"641 315 OFFCURVE",
"641 403 CURVE SMOOTH",
"641 455 LINE SMOOTH",
"641 543 OFFCURVE",
"581 600 OFFCURVE",
"491 600 CURVE SMOOTH",
"205 600 LINE SMOOTH",
"115 600 OFFCURVE",
"55 543 OFFCURVE",
"55 455 CURVE SMOOTH",
"55 403 LINE SMOOTH",
"55 315 OFFCURVE",
"115 258 OFFCURVE",
"205 258 CURVE",
"205 348 LINE"
);
}
);
width = 700;
},
{
layerId = "A262DCEF-80AC-4544-820F-6C74D2F82537";
paths = (
{
closed = 1;
nodes = (
"153 318 OFFCURVE",
"125 348 OFFCURVE",
"125 403 CURVE SMOOTH",
"125 455 LINE SMOOTH",
"125 510 OFFCURVE",
"153 540 OFFCURVE",
"205 540 CURVE SMOOTH",
"491 540 LINE SMOOTH",
"543 540 OFFCURVE",
"571 510 OFFCURVE",
"571 455 CURVE SMOOTH",
"571 403 LINE SMOOTH",
"571 348 OFFCURVE",
"543 318 OFFCURVE",
"491 318 CURVE SMOOTH",
"200 318 LINE SMOOTH",
"126 318 OFFCURVE",
"80 274 OFFCURVE",
"80 203 CURVE SMOOTH",
"80 145 LINE SMOOTH",
"80 74 OFFCURVE",
"126 30 OFFCURVE",
"200 30 CURVE SMOOTH",
"500 30 LINE SMOOTH",
"574 30 OFFCURVE",
"620 74 OFFCURVE",
"620 145 CURVE SMOOTH",
"620 203 LINE SMOOTH",
"620 274 OFFCURVE",
"574 318 OFFCURVE",
"500 318 CURVE",
"500 288 LINE",
"552 288 OFFCURVE",
"580 258 OFFCURVE",
"580 203 CURVE SMOOTH",
"580 145 LINE SMOOTH",
"580 90 OFFCURVE",
"552 60 OFFCURVE",
"500 60 CURVE SMOOTH",
"200 60 LINE SMOOTH",
"148 60 OFFCURVE",
"120 90 OFFCURVE",
"120 145 CURVE SMOOTH",
"120 203 LINE SMOOTH",
"120 258 OFFCURVE",
"148 288 OFFCURVE",
"200 288 CURVE SMOOTH",
"491 288 LINE SMOOTH",
"565 288 OFFCURVE",
"611 332 OFFCURVE",
"611 403 CURVE SMOOTH",
"611 455 LINE SMOOTH",
"611 526 OFFCURVE",
"565 570 OFFCURVE",
"491 570 CURVE SMOOTH",
"205 570 LINE SMOOTH",
"131 570 OFFCURVE",
"85 526 OFFCURVE",
"85 455 CURVE SMOOTH",
"85 403 LINE SMOOTH",
"85 332 OFFCURVE",
"131 288 OFFCURVE",
"205 288 CURVE",
"205 318 LINE"
);
}
);
width = 700;
},
{
layerId = "A8E52AE2-2A6A-4CD2-B761-065329444C15";
paths = (
{
closed = 1;
nodes = (
"183 363 OFFCURVE",
"175 370 OFFCURVE",
"175 403 CURVE SMOOTH",
"175 455 LINE SMOOTH",
"175 488 OFFCURVE",
"183 495 OFFCURVE",
"205 495 CURVE SMOOTH",
"491 495 LINE SMOOTH",
"513 495 OFFCURVE",
"521 488 OFFCURVE",
"521 455 CURVE SMOOTH",
"521 403 LINE SMOOTH",
"521 370 OFFCURVE",
"513 363 OFFCURVE",
"491 363 CURVE SMOOTH",
"200 363 LINE SMOOTH",
"99 363 OFFCURVE",
"30 300 OFFCURVE",
"30 203 CURVE SMOOTH",
"30 145 LINE SMOOTH",
"30 48 OFFCURVE",
"99 -15 OFFCURVE",
"200 -15 CURVE SMOOTH",
"500 -15 LINE SMOOTH",
"601 -15 OFFCURVE",
"670 48 OFFCURVE",
"670 145 CURVE SMOOTH",
"670 203 LINE SMOOTH",
"670 300 OFFCURVE",
"601 363 OFFCURVE",
"500 363 CURVE",
"500 243 LINE",
"522 243 OFFCURVE",
"530 236 OFFCURVE",
"530 203 CURVE SMOOTH",
"530 145 LINE SMOOTH",
"530 112 OFFCURVE",
"522 105 OFFCURVE",
"500 105 CURVE SMOOTH",
"200 105 LINE SMOOTH",
"178 105 OFFCURVE",
"170 112 OFFCURVE",
"170 145 CURVE SMOOTH",
"170 203 LINE SMOOTH",
"170 236 OFFCURVE",
"178 243 OFFCURVE",
"200 243 CURVE SMOOTH",
"491 243 LINE SMOOTH",
"592 243 OFFCURVE",
"661 306 OFFCURVE",
"661 403 CURVE SMOOTH",
"661 455 LINE SMOOTH",
"661 552 OFFCURVE",
"592 615 OFFCURVE",
"491 615 CURVE SMOOTH",
"205 615 LINE SMOOTH",
"104 615 OFFCURVE",
"35 552 OFFCURVE",
"35 455 CURVE SMOOTH",
"35 403 LINE SMOOTH",
"35 306 OFFCURVE",
"104 243 OFFCURVE",
"205 243 CURVE",
"205 363 LINE"
);
}
);
width = 700;
}
);
},
{
color = 6;
export = 0;
glyphname = nine.fwid;
lastChange = "2020-07-09 00:23:29 +0000";
layers = (
{
layerId = "5472B35A-B7AE-4E4F-A6B1-630A6CFD37FC";
paths = (
{
closed = 1;
nodes = (
"204 342 LINE SMOOTH",
"170 342 OFFCURVE",
"154 358 OFFCURVE",
"154 397 CURVE SMOOTH",
"154 455 LINE SMOOTH",
"154 494 OFFCURVE",
"170 510 OFFCURVE",
"204 510 CURVE SMOOTH",
"500 510 LINE SMOOTH",
"534 510 OFFCURVE",
"550 494 OFFCURVE",
"550 455 CURVE SMOOTH",
"550 145 LINE SMOOTH",
"550 106 OFFCURVE",
"534 90 OFFCURVE",
"500 90 CURVE SMOOTH",
"200 90 LINE SMOOTH",
"166 90 OFFCURVE",
"150 106 OFFCURVE",
"150 145 CURVE SMOOTH",
"150 170 LINE",
"50 170 LINE",
"50 145 LINE SMOOTH",
"50 57 OFFCURVE",
"110 0 OFFCURVE",
"200 0 CURVE SMOOTH",
"500 0 LINE SMOOTH",
"590 0 OFFCURVE",
"650 57 OFFCURVE",
"650 145 CURVE SMOOTH",
"650 455 LINE SMOOTH",
"650 543 OFFCURVE",
"590 600 OFFCURVE",
"500 600 CURVE SMOOTH",
"204 600 LINE SMOOTH",
"114 600 OFFCURVE",
"54 543 OFFCURVE",
"54 455 CURVE SMOOTH",
"54 397 LINE SMOOTH",
"54 309 OFFCURVE",
"114 252 OFFCURVE",
"204 252 CURVE SMOOTH",
"600 252 LINE",
"600 342 LINE"
);
}
);
width = 700;
},
{
layerId = "A262DCEF-80AC-4544-820F-6C74D2F82537";
paths = (
{
closed = 1;
nodes = (
"204 312 LINE SMOOTH",
"152 312 OFFCURVE",
"124 342 OFFCURVE",
"124 397 CURVE SMOOTH",
"124 455 LINE SMOOTH",
"124 510 OFFCURVE",
"152 540 OFFCURVE",
"204 540 CURVE SMOOTH",
"500 540 LINE SMOOTH",
"552 540 OFFCURVE",
"580 510 OFFCURVE",
"580 455 CURVE SMOOTH",
"580 145 LINE SMOOTH",
"580 90 OFFCURVE",
"552 60 OFFCURVE",
"500 60 CURVE SMOOTH",
"200 60 LINE SMOOTH",
"148 60 OFFCURVE",
"120 90 OFFCURVE",
"120 145 CURVE SMOOTH",
"120 170 LINE",
"80 170 LINE",
"80 145 LINE SMOOTH",
"80 74 OFFCURVE",
"126 30 OFFCURVE",
"200 30 CURVE SMOOTH",
"500 30 LINE SMOOTH",
"574 30 OFFCURVE",
"620 74 OFFCURVE",
"620 145 CURVE SMOOTH",
"620 455 LINE SMOOTH",
"620 526 OFFCURVE",
"574 570 OFFCURVE",
"500 570 CURVE SMOOTH",
"204 570 LINE SMOOTH",
"130 570 OFFCURVE",
"84 526 OFFCURVE",
"84 455 CURVE SMOOTH",
"84 397 LINE SMOOTH",
"84 326 OFFCURVE",
"130 282 OFFCURVE",
"204 282 CURVE SMOOTH",
"600 282 LINE",
"600 312 LINE"
);
}
);
width = 700;
},
{
layerId = "A8E52AE2-2A6A-4CD2-B761-065329444C15";
paths = (
{
closed = 1;
nodes = (
"204 357 LINE SMOOTH",
"182 357 OFFCURVE",
"174 364 OFFCURVE",
"174 397 CURVE SMOOTH",
"174 455 LINE SMOOTH",
"174 488 OFFCURVE",
"182 495 OFFCURVE",
"204 495 CURVE SMOOTH",
"500 495 LINE SMOOTH",
"522 495 OFFCURVE",
"530 488 OFFCURVE",
"530 455 CURVE SMOOTH",
"530 145 LINE SMOOTH",
"530 112 OFFCURVE",
"522 105 OFFCURVE",
"500 105 CURVE SMOOTH",
"200 105 LINE SMOOTH",
"178 105 OFFCURVE",
"170 112 OFFCURVE",
"170 145 CURVE SMOOTH",
"170 170 LINE",
"30 170 LINE",
"30 145 LINE SMOOTH",
"30 48 OFFCURVE",
"99 -15 OFFCURVE",
"200 -15 CURVE SMOOTH",
"500 -15 LINE SMOOTH",
"601 -15 OFFCURVE",
"670 48 OFFCURVE",
"670 145 CURVE SMOOTH",
"670 455 LINE SMOOTH",
"670 552 OFFCURVE",
"601 615 OFFCURVE",
"500 615 CURVE SMOOTH",
"204 615 LINE SMOOTH",
"103 615 OFFCURVE",
"34 552 OFFCURVE",
"34 455 CURVE SMOOTH",
"34 397 LINE SMOOTH",
"34 300 OFFCURVE",
"103 237 OFFCURVE",
"204 237 CURVE SMOOTH",
"600 237 LINE",
"600 357 LINE"
);
}
);
width = 700;
}
);
},
{
glyphname = period;
lastChange = "2020-07-06 15:41:12 +0000";
layers = (
{
layerId = "5472B35A-B7AE-4E4F-A6B1-630A6CFD37FC";
paths = (
{
closed = 1;
nodes = (
"54 0 LINE",
"154 0 LINE",
"154 100 LINE",
"54 100 LINE"
);
}
);
width = 208;
},
{
layerId = "A262DCEF-80AC-4544-820F-6C74D2F82537";
paths = (
{
closed = 1;
nodes = (
"74 0 LINE",
"134 0 LINE",
"134 60 LINE",
"74 60 LINE"
);
}
);
width = 208;
},
{
layerId = "A8E52AE2-2A6A-4CD2-B761-065329444C15";
paths = (
{
closed = 1;
nodes = (
"35 0 LINE",
"173 0 LINE",
"173 138 LINE",
"35 138 LINE"
);
}
);
width = 208;
}
);
unicode = 002E;
},
{
glyphname = comma;
lastChange = "2020-07-06 16:10:11 +0000";
layers = (
{
components = (
{
name = period;
}
);
layerId = "5472B35A-B7AE-4E4F-A6B1-630A6CFD37FC";
paths = (
{
closed = 1;
nodes = (
"114 -64 LINE SMOOTH",
"144 -64 OFFCURVE",
"154 -27 OFFCURVE",
"154 0 CURVE",
"154 50 LINE",
"99 50 LINE",
"99 -64 LINE"
);
},
{
closed = 1;
nodes = (
"85 -64 LINE",
"105 -64 LINE",
"105 -30 LINE",
"85 -30 LINE"
);
}
);
width = 208;
},
{
components = (
{
name = period;
}
);
layerId = "A262DCEF-80AC-4544-820F-6C74D2F82537";
paths = (
{
closed = 1;
nodes = (
"104 -44 LINE SMOOTH",
"124 -44 OFFCURVE",
"134 -27 OFFCURVE",
"134 0 CURVE",
"134 30 LINE",
"99 30 LINE",
"99 -44 LINE"
);
},
{
closed = 1;
nodes = (
"85 -44 LINE",
"105 -44 LINE",
"105 -24 LINE",
"85 -24 LINE"
);
}
);
width = 208;
},
{
components = (
{
alignment = -1;
name = period;
}
);
layerId = "A8E52AE2-2A6A-4CD2-B761-065329444C15";
paths = (
{
closed = 1;
nodes = (
"124 -74 LINE SMOOTH",
"154 -74 OFFCURVE",
"173 -47 OFFCURVE",
"173 0 CURVE",
"173 80 LINE",
"99 80 LINE",
"99 -74 LINE"
);
},
{
closed = 1;
nodes = (
"85 -74 LINE",
"105 -74 LINE",
"105 -35 LINE",
"85 -35 LINE"
);
}
);
width = 208;
}
);
unicode = 002C;
},
{
glyphname = exclam;
lastChange = "2020-07-08 14:48:08 +0000";
layers = (
{
components = (
{
name = period;
}
);
layerId = "A262DCEF-80AC-4544-820F-6C74D2F82537";
paths = (
{
closed = 1;
nodes = (
"93 160 LINE",
"115 160 LINE",
"128 600 LINE",
"80 600 LINE"
);
}
);
width = 208;
},
{
components = (
{
name = period;
}
);
layerId = "5472B35A-B7AE-4E4F-A6B1-630A6CFD37FC";
paths = (
{
closed = 1;
nodes = (
"78 180 LINE",
"130 180 LINE",
"148 600 LINE",
"60 600 LINE"
);
}
);
width = 208;
},
{
components = (
{
name = period;
}
);
layerId = "A8E52AE2-2A6A-4CD2-B761-065329444C15";
paths = (
{
closed = 1;
nodes = (
"65 200 LINE",
"143 200 LINE",
"173 600 LINE",
"35 600 LINE"
);
}
);
width = 208;
}
);
unicode = 0021;
},
{
glyphname = asterisk;
lastChange = "2020-07-08 22:18:42 +0000";
layers = (
{
layerId = "A262DCEF-80AC-4544-820F-6C74D2F82537";
paths = (
{
closed = 1;
nodes = (
"325 498 LINE",
"305 524 LINE",
"75 392 LINE",
"95 366 LINE"
);
},
{
closed = 1;
nodes = (
"220 578 LINE",
"180 578 LINE",
"180 312 LINE",
"220 312 LINE"
);
},
{
closed = 1;
nodes = (
"95 524 LINE",
"75 498 LINE",
"305 366 LINE",
"325 392 LINE"
);
}
);
width = 400;
},
{
layerId = "5472B35A-B7AE-4E4F-A6B1-630A6CFD37FC";
paths = (
{
closed = 1;
nodes = (
"352 485 LINE",
"308 555 LINE",
"48 405 LINE",
"92 335 LINE"
);
},
{
closed = 1;
nodes = (
"245 595 LINE",
"155 595 LINE",
"155 295 LINE",
"245 295 LINE"
);
},
{
closed = 1;
nodes = (
"92 555 LINE",
"48 485 LINE",
"308 335 LINE",
"352 405 LINE"
);
}
);
width = 400;
},
{
layerId = "A8E52AE2-2A6A-4CD2-B761-065329444C15";
paths = (
{
closed = 1;
nodes = (
"380 489 LINE",
"320 575 LINE",
"20 401 LINE",
"80 315 LINE"
);
},
{
closed = 1;
nodes = (
"260 618 LINE",
"140 618 LINE",
"140 272 LINE",
"260 272 LINE"
);
},
{
closed = 1;
nodes = (
"80 575 LINE",
"20 489 LINE",
"320 315 LINE",
"380 401 LINE"
);
}
);
width = 400;
}
);
unicode = 002A;
},
{
glyphname = numbersign;
lastChange = "2020-07-08 22:18:57 +0000";
layers = (
{
layerId = "A262DCEF-80AC-4544-820F-6C74D2F82537";
paths = (
{
closed = 1;
nodes = (
"136 375 OFFCURVE",
"144 375 OFFCURVE",
"148 375 CURVE SMOOTH",
"590 375 LINE SMOOTH",
"595 375 OFFCURVE",
"595 375 OFFCURVE",
"598 374 CURVE",
"610 402 LINE",
"602 405 OFFCURVE",
"594 405 OFFCURVE",
"590 405 CURVE SMOOTH",
"148 405 LINE SMOOTH",
"143 405 OFFCURVE",
"143 405 OFFCURVE",
"140 406 CURVE",
"128 378 LINE"
);
},
{
closed = 1;
nodes = (
"98 218 OFFCURVE",
"106 218 OFFCURVE",
"110 218 CURVE SMOOTH",
"552 218 LINE SMOOTH",
"557 218 OFFCURVE",
"557 218 OFFCURVE",
"560 217 CURVE",
"572 245 LINE",
"564 248 OFFCURVE",
"556 248 OFFCURVE",
"552 248 CURVE SMOOTH",
"110 248 LINE SMOOTH",
"105 248 OFFCURVE",
"105 248 OFFCURVE",
"102 249 CURVE",
"90 221 LINE"
);
},
{
closed = 1;
nodes = (
"310 595 LINE SMOOTH",
"310 588 OFFCURVE",
"309 582 OFFCURVE",
"306 566 CURVE SMOOTH",
"186 40 LINE SMOOTH",
"181 22 OFFCURVE",
"180 15 OFFCURVE",
"180 5 CURVE SMOOTH",
"180 0 LINE",
"220 0 LINE",
"220 5 LINE SMOOTH",
"220 12 OFFCURVE",
"221 18 OFFCURVE",
"224 34 CURVE SMOOTH",
"344 560 LINE SMOOTH",
"349 578 OFFCURVE",
"350 585 OFFCURVE",
"350 595 CURVE SMOOTH",
"350 600 LINE",
"310 600 LINE"
);
},
{
closed = 1;
nodes = (
"479 595 LINE SMOOTH",
"479 588 OFFCURVE",
"478 582 OFFCURVE",
"475 566 CURVE SMOOTH",
"355 40 LINE SMOOTH",
"350 22 OFFCURVE",
"349 15 OFFCURVE",
"349 5 CURVE SMOOTH",
"349 0 LINE",
"389 0 LINE",
"389 5 LINE SMOOTH",
"389 12 OFFCURVE",
"390 18 OFFCURVE",
"393 34 CURVE SMOOTH",
"513 560 LINE SMOOTH",
"518 578 OFFCURVE",
"519 585 OFFCURVE",
"519 595 CURVE SMOOTH",
"519 600 LINE",
"479 600 LINE"
);
}
);
width = 700;
},
{
layerId = "5472B35A-B7AE-4E4F-A6B1-630A6CFD37FC";
paths = (
{
closed = 1;
nodes = (
"109 362 OFFCURVE",
"123 360 OFFCURVE",
"131 360 CURVE SMOOTH",
"613 360 LINE SMOOTH",
"618 360 OFFCURVE",
"612 360 OFFCURVE",
"613 360 CURVE",
"641 436 LINE",
"635 438 OFFCURVE",
"621 440 OFFCURVE",
"613 440 CURVE SMOOTH",
"131 440 LINE SMOOTH",
"126 440 OFFCURVE",
"132 440 OFFCURVE",
"131 440 CURVE",
"103 364 LINE"
);
},
{
closed = 1;
nodes = (
"65 185 OFFCURVE",
"79 183 OFFCURVE",
"87 183 CURVE SMOOTH",
"569 183 LINE SMOOTH",
"574 183 OFFCURVE",
"568 183 OFFCURVE",
"569 183 CURVE",
"597 259 LINE",
"591 261 OFFCURVE",
"577 263 OFFCURVE",
"569 263 CURVE SMOOTH",
"87 263 LINE SMOOTH",
"82 263 OFFCURVE",
"88 263 OFFCURVE",
"87 263 CURVE",
"59 187 LINE"
);
},
{
closed = 1;
nodes = (
"275 595 LINE SMOOTH",
"275 589 OFFCURVE",
"275 586 OFFCURVE",
"271 572 CURVE SMOOTH",
"151 46 LINE SMOOTH",
"145 20 OFFCURVE",
"145 11 OFFCURVE",
"145 5 CURVE SMOOTH",
"145 0 LINE",
"235 0 LINE",
"235 5 LINE SMOOTH",
"235 11 OFFCURVE",
"235 14 OFFCURVE",
"239 28 CURVE SMOOTH",
"359 554 LINE SMOOTH",
"365 580 OFFCURVE",
"365 589 OFFCURVE",
"365 595 CURVE SMOOTH",
"365 600 LINE",
"275 600 LINE"
);
},
{
closed = 1;
nodes = (
"464 595 LINE SMOOTH",
"464 589 OFFCURVE",
"464 586 OFFCURVE",
"460 572 CURVE SMOOTH",
"340 46 LINE SMOOTH",
"334 20 OFFCURVE",
"334 11 OFFCURVE",
"334 5 CURVE SMOOTH",
"334 0 LINE",
"424 0 LINE",
"424 5 LINE SMOOTH",
"424 11 OFFCURVE",
"424 14 OFFCURVE",
"428 28 CURVE SMOOTH",
"548 554 LINE SMOOTH",
"554 580 OFFCURVE",
"554 589 OFFCURVE",
"554 595 CURVE SMOOTH",
"554 600 LINE",
"464 600 LINE"
);
}
);
width = 700;
},
{
layerId = "A8E52AE2-2A6A-4CD2-B761-065329444C15";
paths = (
{
closed = 1;
nodes = (
"107 361 OFFCURVE",
"117 360 OFFCURVE",
"124 360 CURVE SMOOTH",
"626 360 LINE SMOOTH",
"629 360 OFFCURVE",
"628 360 OFFCURVE",
"632 360 CURVE",
"648 458 LINE",
"643 459 OFFCURVE",
"633 460 OFFCURVE",
"626 460 CURVE SMOOTH",
"124 460 LINE SMOOTH",
"121 460 OFFCURVE",
"122 460 OFFCURVE",
"118 460 CURVE",
"102 362 LINE"
);
},
{
closed = 1;
nodes = (
"57 164 OFFCURVE",
"67 163 OFFCURVE",
"74 163 CURVE SMOOTH",
"576 163 LINE SMOOTH",
"579 163 OFFCURVE",
"578 163 OFFCURVE",
"582 163 CURVE",
"598 261 LINE",
"593 262 OFFCURVE",
"583 263 OFFCURVE",
"576 263 CURVE SMOOTH",
"74 263 LINE SMOOTH",
"71 263 OFFCURVE",
"72 263 OFFCURVE",
"68 263 CURVE",
"52 165 LINE"
);
},
{
closed = 1;
nodes = (
"250 595 LINE SMOOTH",
"250 590 OFFCURVE",
"250 588 OFFCURVE",
"247 574 CURVE SMOOTH",
"127 48 LINE SMOOTH",
"120 21 OFFCURVE",
"120 11 OFFCURVE",
"120 5 CURVE SMOOTH",
"120 0 LINE",
"240 0 LINE",
"240 5 LINE SMOOTH",
"240 10 OFFCURVE",
"240 12 OFFCURVE",
"243 26 CURVE SMOOTH",
"363 552 LINE SMOOTH",
"370 579 OFFCURVE",
"370 589 OFFCURVE",
"370 595 CURVE SMOOTH",
"370 600 LINE",
"250 600 LINE"
);
},
{
closed = 1;
nodes = (
"459 595 LINE SMOOTH",
"459 590 OFFCURVE",
"459 588 OFFCURVE",
"456 574 CURVE SMOOTH",
"336 48 LINE SMOOTH",
"329 21 OFFCURVE",
"329 11 OFFCURVE",
"329 5 CURVE SMOOTH",
"329 0 LINE",
"449 0 LINE",
"449 5 LINE SMOOTH",
"449 10 OFFCURVE",
"449 12 OFFCURVE",
"452 26 CURVE SMOOTH",
"572 552 LINE SMOOTH",
"579 579 OFFCURVE",
"579 589 OFFCURVE",
"579 595 CURVE SMOOTH",
"579 600 LINE",
"459 600 LINE"
);
}
);
width = 700;
}
);
unicode = 0023;
},
{
glyphname = slash;
lastChange = "2020-07-08 22:11:23 +0000";
layers = (
{
layerId = "5472B35A-B7AE-4E4F-A6B1-630A6CFD37FC";
paths = (
{
closed = 1;
nodes = (
"250 630 LINE SMOOTH",
"250 584 OFFCURVE",
"246 562 OFFCURVE",
"222 496 CURVE SMOOTH",
"84 104 LINE SMOOTH",
"51 13 OFFCURVE",
"50 -18 OFFCURVE",
"50 -60 CURVE SMOOTH",
"50 -85 LINE",
"150 -85 LINE",
"150 -60 LINE SMOOTH",
"150 -14 OFFCURVE",
"154 8 OFFCURVE",
"178 74 CURVE SMOOTH",
"316 466 LINE SMOOTH",
"349 557 OFFCURVE",
"350 588 OFFCURVE",
"350 630 CURVE SMOOTH",
"350 655 LINE",
"250 655 LINE"
);
}
);
width = 400;
},
{
layerId = "A262DCEF-80AC-4544-820F-6C74D2F82537";
paths = (
{
closed = 1;
nodes = (
"280 630 LINE SMOOTH",
"280 590 OFFCURVE",
"277 577 OFFCURVE",
"250 496 CURVE SMOOTH",
"112 84 LINE SMOOTH",
"84 -2 OFFCURVE",
"80 -17 OFFCURVE",
"80 -60 CURVE SMOOTH",
"80 -85 LINE",
"120 -85 LINE",
"120 -60 LINE SMOOTH",
"120 -20 OFFCURVE",
"123 -7 OFFCURVE",
"150 74 CURVE SMOOTH",
"288 486 LINE SMOOTH",
"316 572 OFFCURVE",
"320 587 OFFCURVE",
"320 630 CURVE SMOOTH",
"320 655 LINE",
"280 655 LINE"
);
}
);
width = 400;
},
{
layerId = "A8E52AE2-2A6A-4CD2-B761-065329444C15";
paths = (
{
closed = 1;
nodes = (
"230 630 LINE SMOOTH",
"230 589 OFFCURVE",
"230 564 OFFCURVE",
"203 492 CURVE SMOOTH",
"65 120 LINE SMOOTH",
"30 24 OFFCURVE",
"30 -19 OFFCURVE",
"30 -60 CURVE SMOOTH",
"30 -85 LINE",
"170 -85 LINE",
"170 -60 LINE SMOOTH",
"170 -19 OFFCURVE",
"170 6 OFFCURVE",
"197 78 CURVE SMOOTH",
"335 450 LINE SMOOTH",
"370 546 OFFCURVE",
"370 589 OFFCURVE",
"370 630 CURVE SMOOTH",
"370 655 LINE",
"230 655 LINE"
);
}
);
width = 400;
}
);
unicode = 002F;
},
{
glyphname = parenleft;
lastChange = "2020-07-08 22:11:23 +0000";
layers = (
{
layerId = "A262DCEF-80AC-4544-820F-6C74D2F82537";
paths = (
{
closed = 1;
nodes = (
"280 -80 LINE SMOOTH",
"169 -80 OFFCURVE",
"120 7 OFFCURVE",
"120 205 CURVE SMOOTH",
"120 355 LINE SMOOTH",
"120 553 OFFCURVE",
"169 640 OFFCURVE",
"280 640 CURVE SMOOTH",
"295 640 LINE",
"295 670 LINE",
"280 670 LINE SMOOTH",
"107 670 OFFCURVE",
"80 506 OFFCURVE",
"80 355 CURVE SMOOTH",
"80 205 LINE SMOOTH",
"80 54 OFFCURVE",
"107 -110 OFFCURVE",
"280 -110 CURVE SMOOTH",
"295 -110 LINE",
"295 -80 LINE"
);
}
);
width = 375;
},
{
layerId = "5472B35A-B7AE-4E4F-A6B1-630A6CFD37FC";
paths = (
{
closed = 1;
nodes = (
"280 -30 LINE SMOOTH",
"189 -30 OFFCURVE",
"150 44 OFFCURVE",
"150 225 CURVE SMOOTH",
"150 335 LINE SMOOTH",
"150 516 OFFCURVE",
"189 590 OFFCURVE",
"280 590 CURVE SMOOTH",
"295 590 LINE",
"295 680 LINE",
"280 680 LINE SMOOTH",
"123 680 OFFCURVE",
"50 567 OFFCURVE",
"50 335 CURVE SMOOTH",
"50 225 LINE SMOOTH",
"50 -7 OFFCURVE",
"123 -120 OFFCURVE",
"280 -120 CURVE SMOOTH",
"295 -120 LINE",
"295 -30 LINE"
);
}
);
width = 345;
},
{
layerId = "A8E52AE2-2A6A-4CD2-B761-065329444C15";
paths = (
{
closed = 1;
nodes = (
"280 5 LINE SMOOTH",
"204 5 OFFCURVE",
"170 72 OFFCURVE",
"170 245 CURVE SMOOTH",
"170 315 LINE SMOOTH",
"170 488 OFFCURVE",
"204 555 OFFCURVE",
"280 555 CURVE SMOOTH",
"295 555 LINE",
"295 675 LINE",
"280 675 LINE SMOOTH",
"110 675 OFFCURVE",
"30 556 OFFCURVE",
"30 315 CURVE SMOOTH",
"30 245 LINE SMOOTH",
"30 4 OFFCURVE",
"110 -115 OFFCURVE",
"280 -115 CURVE SMOOTH",
"295 -115 LINE",
"295 5 LINE"
);
}
);
width = 330;
}
);
unicode = 0028;
},
{
glyphname = braceleft;
lastChange = "2020-07-08 22:11:23 +0000";
layers = (
{
layerId = "A262DCEF-80AC-4544-820F-6C74D2F82537";
paths = (
{
closed = 1;
nodes = (
"270 -80 LINE SMOOTH",
"218 -80 OFFCURVE",
"190 -50 OFFCURVE",
"190 5 CURVE SMOOTH",
"190 160 LINE SMOOTH",
"190 250 OFFCURVE",
"153 295 OFFCURVE",
"80 295 CURVE SMOOTH",
"75 295 LINE",
"75 265 LINE",
"80 265 LINE SMOOTH",
"153 265 OFFCURVE",
"190 310 OFFCURVE",
"190 400 CURVE SMOOTH",
"190 555 LINE SMOOTH",
"190 610 OFFCURVE",
"218 640 OFFCURVE",
"270 640 CURVE SMOOTH",
"325 640 LINE",
"325 670 LINE",
"270 670 LINE SMOOTH",
"196 670 OFFCURVE",
"150 626 OFFCURVE",
"150 555 CURVE SMOOTH",
"150 400 LINE SMOOTH",
"150 327 OFFCURVE",
"128 295 OFFCURVE",
"80 295 CURVE SMOOTH",
"75 295 LINE",
"75 265 LINE",
"80 265 LINE SMOOTH",
"128 265 OFFCURVE",
"150 233 OFFCURVE",
"150 160 CURVE SMOOTH",
"150 5 LINE SMOOTH",
"150 -66 OFFCURVE",
"196 -110 OFFCURVE",
"270 -110 CURVE SMOOTH",
"325 -110 LINE",
"325 -80 LINE"
);
}
);
width = 400;
},
{
layerId = "5472B35A-B7AE-4E4F-A6B1-630A6CFD37FC";
paths = (
{
closed = 1;
nodes = (
"270 -30 LINE SMOOTH",
"236 -30 OFFCURVE",
"220 -14 OFFCURVE",
"220 25 CURVE SMOOTH",
"220 160 LINE SMOOTH",
"220 264 OFFCURVE",
"172 325 OFFCURVE",
"80 325 CURVE SMOOTH",
"55 325 LINE",
"55 235 LINE",
"80 235 LINE SMOOTH",
"172 235 OFFCURVE",
"220 296 OFFCURVE",
"220 400 CURVE SMOOTH",
"220 535 LINE SMOOTH",
"220 574 OFFCURVE",
"236 590 OFFCURVE",
"270 590 CURVE SMOOTH",
"345 590 LINE",
"345 680 LINE",
"270 680 LINE SMOOTH",
"180 680 OFFCURVE",
"120 623 OFFCURVE",
"120 535 CURVE SMOOTH",
"120 400 LINE SMOOTH",
"120 342 OFFCURVE",
"108 325 OFFCURVE",
"80 325 CURVE SMOOTH",
"55 325 LINE",
"55 235 LINE",
"80 235 LINE SMOOTH",
"108 235 OFFCURVE",
"120 218 OFFCURVE",
"120 160 CURVE SMOOTH",
"120 25 LINE SMOOTH",
"120 -63 OFFCURVE",
"180 -120 OFFCURVE",
"270 -120 CURVE SMOOTH",
"345 -120 LINE",
"345 -30 LINE"
);
}
);
width = 400;
},
{
layerId = "A8E52AE2-2A6A-4CD2-B761-065329444C15";
paths = (
{
closed = 1;
nodes = (
"260 5 LINE SMOOTH",
"238 5 OFFCURVE",
"230 12 OFFCURVE",
"230 45 CURVE SMOOTH",
"230 160 LINE SMOOTH",
"230 273 OFFCURVE",
"174 340 OFFCURVE",
"70 340 CURVE SMOOTH",
"35 340 LINE",
"35 220 LINE",
"70 220 LINE SMOOTH",
"174 220 OFFCURVE",
"230 287 OFFCURVE",
"230 400 CURVE SMOOTH",
"230 515 LINE SMOOTH",
"230 548 OFFCURVE",
"238 555 OFFCURVE",
"260 555 CURVE SMOOTH",
"355 555 LINE",
"355 675 LINE",
"260 675 LINE SMOOTH",
"159 675 OFFCURVE",
"90 612 OFFCURVE",
"90 515 CURVE SMOOTH",
"90 400 LINE SMOOTH",
"90 349 OFFCURVE",
"83 340 OFFCURVE",
"70 340 CURVE SMOOTH",
"35 340 LINE",
"35 220 LINE",
"70 220 LINE SMOOTH",
"83 220 OFFCURVE",
"90 211 OFFCURVE",
"90 160 CURVE SMOOTH",
"90 45 LINE SMOOTH",
"90 -52 OFFCURVE",
"159 -115 OFFCURVE",
"260 -115 CURVE SMOOTH",
"355 -115 LINE",
"355 5 LINE"
);
}
);
width = 390;
}
);
unicode = 007B;
},
{
glyphname = bracketleft;
lastChange = "2020-07-08 22:11:23 +0000";
layers = (
{
layerId = "5472B35A-B7AE-4E4F-A6B1-630A6CFD37FC";
paths = (
{
closed = 1;
nodes = (
"200 -30 LINE SMOOTH",
"166 -30 OFFCURVE",
"150 -14 OFFCURVE",
"150 25 CURVE SMOOTH",
"150 535 LINE SMOOTH",
"150 574 OFFCURVE",
"166 590 OFFCURVE",
"200 590 CURVE SMOOTH",
"280 590 LINE",
"280 680 LINE",
"200 680 LINE SMOOTH",
"110 680 OFFCURVE",
"50 623 OFFCURVE",
"50 535 CURVE SMOOTH",
"50 25 LINE SMOOTH",
"50 -63 OFFCURVE",
"110 -120 OFFCURVE",
"200 -120 CURVE SMOOTH",
"280 -120 LINE",
"280 -30 LINE"
);
}
);
width = 330;
},
{
layerId = "A262DCEF-80AC-4544-820F-6C74D2F82537";
paths = (
{
closed = 1;
nodes = (
"200 -80 LINE SMOOTH",
"148 -80 OFFCURVE",
"120 -50 OFFCURVE",
"120 5 CURVE SMOOTH",
"120 555 LINE SMOOTH",
"120 610 OFFCURVE",
"148 640 OFFCURVE",
"200 640 CURVE SMOOTH",
"250 640 LINE",
"250 670 LINE",
"200 670 LINE SMOOTH",
"126 670 OFFCURVE",
"80 626 OFFCURVE",
"80 555 CURVE SMOOTH",
"80 5 LINE SMOOTH",
"80 -66 OFFCURVE",
"126 -110 OFFCURVE",
"200 -110 CURVE SMOOTH",
"250 -110 LINE",
"250 -80 LINE"
);
}
);
width = 330;
},
{
layerId = "A8E52AE2-2A6A-4CD2-B761-065329444C15";
paths = (
{
closed = 1;
nodes = (
"200 5 LINE SMOOTH",
"178 5 OFFCURVE",
"170 12 OFFCURVE",
"170 45 CURVE SMOOTH",
"170 515 LINE SMOOTH",
"170 548 OFFCURVE",
"178 555 OFFCURVE",
"200 555 CURVE SMOOTH",
"295 555 LINE",
"295 675 LINE",
"200 675 LINE SMOOTH",
"99 675 OFFCURVE",
"30 612 OFFCURVE",
"30 515 CURVE SMOOTH",
"30 45 LINE SMOOTH",
"30 -52 OFFCURVE",
"99 -115 OFFCURVE",
"200 -115 CURVE SMOOTH",
"295 -115 LINE",
"295 5 LINE"
);
}
);
width = 330;
}
);
unicode = 005B;
},
{
glyphname = hyphen;
lastChange = "2020-07-08 22:11:23 +0000";
layers = (
{
layerId = "5472B35A-B7AE-4E4F-A6B1-630A6CFD37FC";
paths = (
{
closed = 1;
nodes = (
"350 180 LINE",
"350 270 LINE",
"50 270 LINE",
"50 180 LINE"
);
}
);
width = 400;
},
{
layerId = "A262DCEF-80AC-4544-820F-6C74D2F82537";
paths = (
{
closed = 1;
nodes = (
"350 210 LINE",
"350 240 LINE",
"50 240 LINE",
"50 210 LINE"
);
}
);
width = 400;
},
{
layerId = "A8E52AE2-2A6A-4CD2-B761-065329444C15";
paths = (
{
closed = 1;
nodes = (
"350 165 LINE",
"350 285 LINE",
"50 285 LINE",
"50 165 LINE"
);
}
);
width = 400;
}
);
unicode = 002D;
},
{
glyphname = endash;
lastChange = "2020-07-08 22:11:23 +0000";
layers = (
{
layerId = "A262DCEF-80AC-4544-820F-6C74D2F82537";
paths = (
{
closed = 1;
nodes = (
"650 210 LINE",
"650 240 LINE",
"50 240 LINE",
"50 210 LINE"
);
}
);
width = 700;
},
{
layerId = "5472B35A-B7AE-4E4F-A6B1-630A6CFD37FC";
paths = (
{
closed = 1;
nodes = (
"650 180 LINE",
"650 270 LINE",
"50 270 LINE",
"50 180 LINE"
);
}
);
width = 700;
},
{
layerId = "A8E52AE2-2A6A-4CD2-B761-065329444C15";
paths = (
{
closed = 1;
nodes = (
"650 165 LINE",
"650 285 LINE",
"50 285 LINE",
"50 165 LINE"
);
}
);
width = 700;
}
);
unicode = 2013;
},
{
glyphname = emdash;
lastChange = "2020-07-08 22:11:23 +0000";
layers = (
{
layerId = "A262DCEF-80AC-4544-820F-6C74D2F82537";
paths = (
{
closed = 1;
nodes = (
"730 210 LINE",
"730 240 LINE",
"50 240 LINE",
"50 210 LINE"
);
}
);
width = 780;
},
{
layerId = "5472B35A-B7AE-4E4F-A6B1-630A6CFD37FC";
paths = (
{
closed = 1;
nodes = (
"730 180 LINE",
"730 270 LINE",
"50 270 LINE",
"50 180 LINE"
);
}
);
width = 780;
},
{
layerId = "A8E52AE2-2A6A-4CD2-B761-065329444C15";
paths = (
{
closed = 1;
nodes = (
"730 165 LINE",
"730 285 LINE",
"50 285 LINE",
"50 165 LINE"
);
}
);
width = 780;
}
);
unicode = 2014;
},
{
glyphname = quotesingle;
lastChange = "2020-07-09 02:38:57 +0000";
layers = (
{
layerId = "5472B35A-B7AE-4E4F-A6B1-630A6CFD37FC";
paths = (
{
closed = 1;
nodes = (
"60 448 LINE",
"140 448 LINE",
"150 620 LINE",
"50 620 LINE"
);
}
);
width = 200;
},
{
layerId = "A262DCEF-80AC-4544-820F-6C74D2F82537";
paths = (
{
closed = 1;
nodes = (
"85 478 LINE",
"115 478 LINE",
"120 620 LINE",
"80 620 LINE"
);
}
);
width = 200;
},
{
layerId = "A8E52AE2-2A6A-4CD2-B761-065329444C15";
paths = (
{
closed = 1;
nodes = (
"50 418 LINE",
"150 418 LINE",
"170 620 LINE",
"30 620 LINE"
);
}
);
width = 200;
}
);
unicode = 0027;
},
